<svg width="167" height="90" viewBox="0 0 167 90" fill="none" xmlns="http://www.w3.org/2000/svg">
<path d="M67.2023 55.0462H78.7003V69.0414H76.4446V56.9977H69.458V69.0414H67.2023V55.0462Z" fill="#333E48"/>
<path d="M84.9331 65.6313L92.658 55.0462H94.4353V69.0414H92.1792V58.6535L84.5738 69.0414H82.6774V55.0462H84.9331V65.6313Z" fill="#333E48"/>
<path d="M98.4059 69.0414V55.0462H104.354C104.994 55.0462 105.579 55.1777 106.111 55.4405C106.657 55.7033 107.123 56.0515 107.508 56.4852C107.895 56.9057 108.194 57.3919 108.407 57.9438C108.633 58.4826 108.746 59.0345 108.746 59.5996C108.746 60.191 108.64 60.7626 108.427 61.3145C108.227 61.8533 107.941 62.3395 107.569 62.7732C107.196 63.1937 106.743 63.5353 106.211 63.7982C105.692 64.0479 105.113 64.1727 104.474 64.1727H100.641V69.0414H98.4059ZM100.641 62.2213H104.334C104.654 62.2213 104.94 62.1556 105.193 62.0241C105.459 61.8927 105.686 61.7087 105.872 61.4722C106.058 61.2357 106.204 60.9597 106.311 60.6443C106.417 60.3289 106.47 59.9807 106.47 59.5996C106.47 59.2054 106.411 58.8505 106.291 58.5352C106.171 58.2198 106.004 57.9504 105.792 57.727C105.579 57.4905 105.332 57.313 105.053 57.1948C104.787 57.0634 104.508 56.9977 104.215 56.9977H100.641V62.2213Z" fill="#333E48"/>
<path d="M121.302 67.09V69.0414H111.581V55.0462H121.123V56.9977H113.817V60.9794H120.145V62.8126H113.817V67.09H121.302Z" fill="#333E48"/>
<path d="M134.726 56.9977H130.015V69.0414H127.759V56.9977H123.028V55.0462H134.726V56.9977Z" fill="#333E48"/>
<path d="M147.725 56.9977H143.014V69.0414H140.759V56.9977H136.028V55.0462H147.725V56.9977Z" fill="#333E48"/>
<path d="M153.093 55.0462H155.049L160.639 69.0414H158.283L156.786 65.2371H151.316L149.84 69.0414H147.464L153.093 55.0462ZM156.347 63.601L154.071 57.589L151.716 63.601H156.347Z" fill="#333E48"/>
<path d="M7.86158 66.7632H5.56665V69.0415H7.86158V66.7632Z" fill="#E2231A"/>
<path d="M7.86158 63.8338H5.56665V66.1121H7.86158V63.8338Z" fill="#E2231A"/>
<path d="M7.86158 60.9047H5.56665V63.1829H7.86158V60.9047Z" fill="#E2231A"/>
<path d="M7.86158 57.9754H5.56665V60.2537H7.86158V57.9754Z" fill="#E2231A"/>
<path d="M7.86158 55.0462H5.56665V57.3245H7.86158V55.0462Z" fill="#E2231A"/>
<path d="M7.86158 52.117H5.56665V54.3953H7.86158V52.117Z" fill="#E2231A"/>
<path d="M7.86158 49.1878H5.56665V51.4661H7.86158V49.1878Z" fill="#E2231A"/>
<path d="M7.86158 46.2586H5.56665V48.5369H7.86158V46.2586Z" fill="#E2231A"/>
<path d="M7.86158 43.3293H5.56665V45.6076H7.86158V43.3293Z" fill="#E2231A"/>
<path d="M7.86158 40.4001H5.56665V42.6784H7.86158V40.4001Z" fill="#E2231A"/>
<path d="M7.86158 37.4708H5.56665V39.7491H7.86158V37.4708Z" fill="#E2231A"/>
<path d="M7.86158 34.5415H5.56665V36.8198H7.86158V34.5415Z" fill="#E2231A"/>
<path d="M7.86158 31.6123H5.56665V33.8906H7.86158V31.6123Z" fill="#E2231A"/>
<path d="M7.86158 28.6831H5.56665V30.9614H7.86158V28.6831Z" fill="#E2231A"/>
<path d="M7.86158 22.4991H5.56665V24.7774H7.86158V22.4991Z" fill="#E2231A"/>
<path d="M7.86158 16.3152H5.56665V18.5935H7.86158V16.3152Z" fill="#E2231A"/>
<path d="M7.86158 9.48043H5.56665V11.7587H7.86158V9.48043Z" fill="#E2231A"/>
<path d="M7.86158 3.94737H5.56665V6.22566H7.86158V3.94737Z" fill="#E2231A"/>
<path d="M22.6154 34.5415H20.3205V36.8198H22.6154V34.5415Z" fill="#E2231A"/>
<path d="M22.6154 31.6123H20.3205V33.8906H22.6154V31.6123Z" fill="#E2231A"/>
<path d="M22.6154 26.4047H20.3205V28.683H22.6154V26.4047Z" fill="#E2231A"/>
<path d="M22.6154 21.5228H20.3205V23.8011H22.6154V21.5228Z" fill="#E2231A"/>
<path d="M48.8427 66.7632H46.5478V69.0415H48.8427V66.7632Z" fill="#E2231A"/>
<path d="M48.8427 63.8338H46.5478V66.1121H48.8427V63.8338Z" fill="#E2231A"/>
<path d="M48.8427 60.9047H46.5478V63.1829H48.8427V60.9047Z" fill="#E2231A"/>
<path d="M48.8427 57.9754H46.5478V60.2537H48.8427V57.9754Z" fill="#E2231A"/>
<path d="M48.8427 55.0462H46.5478V57.3245H48.8427V55.0462Z" fill="#E2231A"/>
<path d="M48.8427 52.117H46.5478V54.3953H48.8427V52.117Z" fill="#E2231A"/>
<path d="M48.8427 49.1878H46.5478V51.4661H48.8427V49.1878Z" fill="#E2231A"/>
<path d="M48.8427 46.2586H46.5478V48.5369H48.8427V46.2586Z" fill="#E2231A"/>
<path d="M48.8427 43.3293H46.5478V45.6076H48.8427V43.3293Z" fill="#E2231A"/>
<path d="M48.8427 40.4001H46.5478V42.6784H48.8427V40.4001Z" fill="#E2231A"/>
<path d="M48.8427 37.4708H46.5478V39.7491H48.8427V37.4708Z" fill="#E2231A"/>
<path d="M48.8427 34.5415H46.5478V36.8198H48.8427V34.5415Z" fill="#E2231A"/>
<path d="M48.8427 31.6123H46.5478V33.8906H48.8427V31.6123Z" fill="#E2231A"/>
<path d="M48.8427 28.6831H46.5478V30.9614H48.8427V28.6831Z" fill="#E2231A"/>
<path d="M48.8427 25.754H46.5478V28.0323H48.8427V25.754Z" fill="#E2231A"/>
<path d="M48.8427 22.8246H46.5478V25.1028H48.8427V22.8246Z" fill="#E2231A"/>
<path d="M48.8427 19.2444H46.5478V21.5227H48.8427V19.2444Z" fill="#E2231A"/>
<path d="M10.8127 66.7632H8.51773V69.0415H10.8127V66.7632Z" fill="#E2231A"/>
<path d="M10.8127 63.8338H8.51773V66.1121H10.8127V63.8338Z" fill="#E2231A"/>
<path d="M10.8127 60.9047H8.51773V63.1829H10.8127V60.9047Z" fill="#E2231A"/>
<path d="M10.8127 57.9754H8.51773V60.2537H10.8127V57.9754Z" fill="#E2231A"/>
<path d="M10.8127 55.0462H8.51773V57.3245H10.8127V55.0462Z" fill="#E2231A"/>
<path d="M10.8127 52.117H8.51773V54.3953H10.8127V52.117Z" fill="#E2231A"/>
<path d="M10.8127 49.1878H8.51773V51.4661H10.8127V49.1878Z" fill="#E2231A"/>
<path d="M10.8127 46.2586H8.51773V48.5369H10.8127V46.2586Z" fill="#E2231A"/>
<path d="M10.8127 43.3293H8.51773V45.6076H10.8127V43.3293Z" fill="#E2231A"/>
<path d="M10.8127 40.4001H8.51773V42.6784H10.8127V40.4001Z" fill="#E2231A"/>
<path d="M10.8127 37.4708H8.51773V39.7491H10.8127V37.4708Z" fill="#E2231A"/>
<path d="M10.8127 34.5415H8.51773V36.8198H10.8127V34.5415Z" fill="#E2231A"/>
<path d="M10.8127 31.2868H8.51773V33.5651H10.8127V31.2868Z" fill="#E2231A"/>
<path d="M10.8127 26.0794H8.51773V28.3577H10.8127V26.0794Z" fill="#E2231A"/>
<path d="M10.8127 18.919H8.51773V21.1973H10.8127V18.919Z" fill="#E2231A"/>
<path d="M10.8127 12.4097H8.51773V14.688H10.8127V12.4097Z" fill="#E2231A"/>
<path d="M25.5649 34.5415H23.27V36.8198H25.5649V34.5415Z" fill="#E2231A"/>
<path d="M25.5649 31.6123H23.27V33.8906H25.5649V31.6123Z" fill="#E2231A"/>
<path d="M25.5649 28.6831H23.27V30.9614H25.5649V28.6831Z" fill="#E2231A"/>
<path d="M25.5649 23.8011H23.27V26.0794H25.5649V23.8011Z" fill="#E2231A"/>
<path d="M25.5649 15.6644H23.27V17.9427H25.5649V15.6644Z" fill="#E2231A"/>
<path d="M37.3677 34.5415H35.0728V36.8198H37.3677V34.5415Z" fill="#E2231A"/>
<path d="M37.3677 31.6123H35.0728V33.8906H37.3677V31.6123Z" fill="#E2231A"/>
<path d="M37.3677 26.4047H35.0728V28.683H37.3677V26.4047Z" fill="#E2231A"/>
<path d="M37.3677 21.1973H35.0728V23.4756H37.3677V21.1973Z" fill="#E2231A"/>
<path d="M51.7923 66.7632H49.4974V69.0415H51.7923V66.7632Z" fill="#E2231A"/>
<path d="M51.7923 63.8338H49.4974V66.1121H51.7923V63.8338Z" fill="#E2231A"/>
<path d="M51.7923 60.9047H49.4974V63.1829H51.7923V60.9047Z" fill="#E2231A"/>
<path d="M51.7923 57.9754H49.4974V60.2537H51.7923V57.9754Z" fill="#E2231A"/>
<path d="M51.7923 55.0462H49.4974V57.3245H51.7923V55.0462Z" fill="#E2231A"/>
<path d="M51.7923 52.117H49.4974V54.3953H51.7923V52.117Z" fill="#E2231A"/>
<path d="M51.7923 49.1878H49.4974V51.4661H51.7923V49.1878Z" fill="#E2231A"/>
<path d="M51.7923 46.2586H49.4974V48.5369H51.7923V46.2586Z" fill="#E2231A"/>
<path d="M51.7923 43.3293H49.4974V45.6076H51.7923V43.3293Z" fill="#E2231A"/>
<path d="M51.7923 40.4001H49.4974V42.6784H51.7923V40.4001Z" fill="#E2231A"/>
<path d="M51.7923 37.4708H49.4974V39.7491H51.7923V37.4708Z" fill="#E2231A"/>
<path d="M51.7923 34.5415H49.4974V36.8198H51.7923V34.5415Z" fill="#E2231A"/>
<path d="M51.7923 31.6123H49.4974V33.8906H51.7923V31.6123Z" fill="#E2231A"/>
<path d="M51.7923 28.6831H49.4974V30.9614H51.7923V28.6831Z" fill="#E2231A"/>
<path d="M51.7923 25.754H49.4974V28.0323H51.7923V25.754Z" fill="#E2231A"/>
<path d="M51.7923 22.8246H49.4974V25.1028H51.7923V22.8246Z" fill="#E2231A"/>
<path d="M13.7622 66.7632H11.4673V69.0415H13.7622V66.7632Z" fill="#E2231A"/>
<path d="M13.7622 63.8338H11.4673V66.1121H13.7622V63.8338Z" fill="#E2231A"/>
<path d="M13.7622 60.9047H11.4673V63.1829H13.7622V60.9047Z" fill="#E2231A"/>
<path d="M13.7622 57.9754H11.4673V60.2537H13.7622V57.9754Z" fill="#E2231A"/>
<path d="M13.7622 55.0462H11.4673V57.3245H13.7622V55.0462Z" fill="#E2231A"/>
<path d="M13.7622 52.117H11.4673V54.3953H13.7622V52.117Z" fill="#E2231A"/>
<path d="M13.7622 49.1878H11.4673V51.4661H13.7622V49.1878Z" fill="#E2231A"/>
<path d="M13.7622 46.2586H11.4673V48.5369H13.7622V46.2586Z" fill="#E2231A"/>
<path d="M13.7622 43.3293H11.4673V45.6076H13.7622V43.3293Z" fill="#E2231A"/>
<path d="M13.7622 40.4001H11.4673V42.6784H13.7622V40.4001Z" fill="#E2231A"/>
<path d="M13.7622 37.4708H11.4673V39.7491H13.7622V37.4708Z" fill="#E2231A"/>
<path d="M13.7622 34.5415H11.4673V36.8198H13.7622V34.5415Z" fill="#E2231A"/>
<path d="M13.7622 31.6123H11.4673V33.8906H13.7622V31.6123Z" fill="#E2231A"/>
<path d="M13.7622 28.0322H11.4673V30.3105H13.7622V28.0322Z" fill="#E2231A"/>
<path d="M13.7622 22.1738H11.4673V24.4521H13.7622V22.1738Z" fill="#E2231A"/>
<path d="M13.7622 15.6644H11.4673V17.9427H13.7622V15.6644Z" fill="#E2231A"/>
<path d="M13.7622 7.20202H11.4673V9.48032H13.7622V7.20202Z" fill="#E2231A"/>
<path d="M28.5161 34.5415H26.2211V36.8198H28.5161V34.5415Z" fill="#E2231A"/>
<path d="M28.5161 31.6123H26.2211V33.8906H28.5161V31.6123Z" fill="#E2231A"/>
<path d="M28.5161 28.3577H26.2211V30.636H28.5161V28.3577Z" fill="#E2231A"/>
<path d="M28.5161 24.7776H26.2211V27.0558H28.5161V24.7776Z" fill="#E2231A"/>
<path d="M28.5161 19.8954H26.2211V22.1737H28.5161V19.8954Z" fill="#E2231A"/>
<path d="M40.3188 34.5415H38.0239V36.8198H40.3188V34.5415Z" fill="#E2231A"/>
<path d="M40.3188 31.6123H38.0239V33.8906H40.3188V31.6123Z" fill="#E2231A"/>
<path d="M40.3188 28.6831H38.0239V30.9614H40.3188V28.6831Z" fill="#E2231A"/>
<path d="M40.3188 25.754H38.0239V28.0323H40.3188V25.754Z" fill="#E2231A"/>
<path d="M40.3188 18.5935H38.0239V20.8718H40.3188V18.5935Z" fill="#E2231A"/>
<path d="M54.7433 66.7632H52.4484V69.0415H54.7433V66.7632Z" fill="#E2231A"/>
<path d="M54.7433 63.8338H52.4484V66.1121H54.7433V63.8338Z" fill="#E2231A"/>
<path d="M54.7433 60.9047H52.4484V63.1829H54.7433V60.9047Z" fill="#E2231A"/>
<path d="M54.7433 57.9754H52.4484V60.2537H54.7433V57.9754Z" fill="#E2231A"/>
<path d="M54.7433 55.0462H52.4484V57.3245H54.7433V55.0462Z" fill="#E2231A"/>
<path d="M54.7433 52.117H52.4484V54.3953H54.7433V52.117Z" fill="#E2231A"/>
<path d="M54.7433 49.1878H52.4484V51.4661H54.7433V49.1878Z" fill="#E2231A"/>
<path d="M54.7433 46.2586H52.4484V48.5369H54.7433V46.2586Z" fill="#E2231A"/>
<path d="M54.7433 43.3293H52.4484V45.6076H54.7433V43.3293Z" fill="#E2231A"/>
<path d="M54.7433 40.4001H52.4484V42.6784H54.7433V40.4001Z" fill="#E2231A"/>
<path d="M54.7433 37.4708H52.4484V39.7491H54.7433V37.4708Z" fill="#E2231A"/>
<path d="M54.7433 34.5415H52.4484V36.8198H54.7433V34.5415Z" fill="#E2231A"/>
<path d="M54.7433 31.6123H52.4484V33.8906H54.7433V31.6123Z" fill="#E2231A"/>
<path d="M54.7433 28.6831H52.4484V30.9614H54.7433V28.6831Z" fill="#E2231A"/>
<path d="M54.7433 25.754H52.4484V28.0323H54.7433V25.754Z" fill="#E2231A"/>
<path d="M54.7433 19.8954H52.4484V22.1737H54.7433V19.8954Z" fill="#E2231A"/>
<path d="M16.7133 66.7632H14.4184V69.0415H16.7133V66.7632Z" fill="#E2231A"/>
<path d="M16.7133 63.8338H14.4184V66.1121H16.7133V63.8338Z" fill="#E2231A"/>
<path d="M16.7133 60.9047H14.4184V63.1829H16.7133V60.9047Z" fill="#E2231A"/>
<path d="M16.7133 57.9754H14.4184V60.2537H16.7133V57.9754Z" fill="#E2231A"/>
<path d="M16.7133 55.0462H14.4184V57.3245H16.7133V55.0462Z" fill="#E2231A"/>
<path d="M16.7133 52.117H14.4184V54.3953H16.7133V52.117Z" fill="#E2231A"/>
<path d="M16.7133 49.1878H14.4184V51.4661H16.7133V49.1878Z" fill="#E2231A"/>
<path d="M16.7133 46.2586H14.4184V48.5369H16.7133V46.2586Z" fill="#E2231A"/>
<path d="M16.7133 43.3293H14.4184V45.6076H16.7133V43.3293Z" fill="#E2231A"/>
<path d="M16.7133 40.4001H14.4184V42.6784H16.7133V40.4001Z" fill="#E2231A"/>
<path d="M16.7133 37.4708H14.4184V39.7491H16.7133V37.4708Z" fill="#E2231A"/>
<path d="M16.7133 34.5415H14.4184V36.8198H16.7133V34.5415Z" fill="#E2231A"/>
<path d="M16.7133 31.6123H14.4184V33.8906H16.7133V31.6123Z" fill="#E2231A"/>
<path d="M16.7133 28.6831H14.4184V30.9614H16.7133V28.6831Z" fill="#E2231A"/>
<path d="M16.7133 25.754H14.4184V28.0323H16.7133V25.754Z" fill="#E2231A"/>
<path d="M16.7133 22.8246H14.4184V25.1028H16.7133V22.8246Z" fill="#E2231A"/>
<path d="M16.7133 19.8954H14.4184V22.1737H16.7133V19.8954Z" fill="#E2231A"/>
<path d="M16.7133 16.9663H14.4184V19.2446H16.7133V16.9663Z" fill="#E2231A"/>
<path d="M16.7133 11.1078H14.4184V13.386H16.7133V11.1078Z" fill="#E2231A"/>
<path d="M31.4671 34.5415H29.1722V36.8198H31.4671V34.5415Z" fill="#E2231A"/>
<path d="M31.4671 31.6123H29.1722V33.8906H31.4671V31.6123Z" fill="#E2231A"/>
<path d="M31.4671 27.3812H29.1722V29.6595H31.4671V27.3812Z" fill="#E2231A"/>
<path d="M31.4671 21.1973H29.1722V23.4756H31.4671V21.1973Z" fill="#E2231A"/>
<path d="M43.2683 34.5415H40.9734V36.8198H43.2683V34.5415Z" fill="#E2231A"/>
<path d="M43.2683 31.6123H40.9734V33.8906H43.2683V31.6123Z" fill="#E2231A"/>
<path d="M43.2683 28.6831H40.9734V30.9614H43.2683V28.6831Z" fill="#E2231A"/>
<path d="M43.2683 24.4519H40.9734V26.7302H43.2683V24.4519Z" fill="#E2231A"/>
<path d="M43.2683 19.8954H40.9734V22.1737H43.2683V19.8954Z" fill="#E2231A"/>
<path d="M57.6945 66.7632H55.3995V69.0415H57.6945V66.7632Z" fill="#E2231A"/>
<path d="M57.6945 63.8338H55.3995V66.1121H57.6945V63.8338Z" fill="#E2231A"/>
<path d="M57.6945 60.9047H55.3995V63.1829H57.6945V60.9047Z" fill="#E2231A"/>
<path d="M57.6945 57.9754H55.3995V60.2537H57.6945V57.9754Z" fill="#E2231A"/>
<path d="M57.6945 55.0462H55.3995V57.3245H57.6945V55.0462Z" fill="#E2231A"/>
<path d="M57.6945 52.117H55.3995V54.3953H57.6945V52.117Z" fill="#E2231A"/>
<path d="M57.6945 49.1878H55.3995V51.4661H57.6945V49.1878Z" fill="#E2231A"/>
<path d="M57.6945 46.2586H55.3995V48.5369H57.6945V46.2586Z" fill="#E2231A"/>
<path d="M57.6945 43.3293H55.3995V45.6076H57.6945V43.3293Z" fill="#E2231A"/>
<path d="M57.6945 40.4001H55.3995V42.6784H57.6945V40.4001Z" fill="#E2231A"/>
<path d="M57.6945 37.4708H55.3995V39.7491H57.6945V37.4708Z" fill="#E2231A"/>
<path d="M57.6945 34.5415H55.3995V36.8198H57.6945V34.5415Z" fill="#E2231A"/>
<path d="M57.6945 31.6123H55.3995V33.8906H57.6945V31.6123Z" fill="#E2231A"/>
<path d="M57.6945 28.6831H55.3995V30.9614H57.6945V28.6831Z" fill="#E2231A"/>
<path d="M57.6945 25.754H55.3995V28.0323H57.6945V25.754Z" fill="#E2231A"/>
<path d="M57.6945 22.8246H55.3995V25.1028H57.6945V22.8246Z" fill="#E2231A"/>
<path d="M19.6643 66.7632H17.3694V69.0415H19.6643V66.7632Z" fill="#E2231A"/>
<path d="M19.6643 63.8338H17.3694V66.1121H19.6643V63.8338Z" fill="#E2231A"/>
<path d="M19.6643 60.9047H17.3694V63.1829H19.6643V60.9047Z" fill="#E2231A"/>
<path d="M19.6643 57.9754H17.3694V60.2537H19.6643V57.9754Z" fill="#E2231A"/>
<path d="M19.6643 55.0462H17.3694V57.3245H19.6643V55.0462Z" fill="#E2231A"/>
<path d="M19.6643 52.117H17.3694V54.3953H19.6643V52.117Z" fill="#E2231A"/>
<path d="M19.6643 49.1878H17.3694V51.4661H19.6643V49.1878Z" fill="#E2231A"/>
<path d="M19.6643 46.2586H17.3694V48.5369H19.6643V46.2586Z" fill="#E2231A"/>
<path d="M19.6643 43.3293H17.3694V45.6076H19.6643V43.3293Z" fill="#E2231A"/>
<path d="M19.6643 40.4001H17.3694V42.6784H19.6643V40.4001Z" fill="#E2231A"/>
<path d="M19.6643 37.4708H17.3694V39.7491H19.6643V37.4708Z" fill="#E2231A"/>
<path d="M19.6643 34.5415H17.3694V36.8198H19.6643V34.5415Z" fill="#E2231A"/>
<path d="M19.6643 31.6123H17.3694V33.8906H19.6643V31.6123Z" fill="#E2231A"/>
<path d="M19.6643 27.7067H17.3694V29.985H19.6643V27.7067Z" fill="#E2231A"/>
<path d="M19.6643 19.8954H17.3694V22.1737H19.6643V19.8954Z" fill="#E2231A"/>
<path d="M19.6643 14.0371H17.3694V16.3154H19.6643V14.0371Z" fill="#E2231A"/>
<path d="M34.4166 34.5415H32.1217V36.8198H34.4166V34.5415Z" fill="#E2231A"/>
<path d="M34.4166 31.6123H32.1217V33.8906H34.4166V31.6123Z" fill="#E2231A"/>
<path d="M34.4166 28.6831H32.1217V30.9614H34.4166V28.6831Z" fill="#E2231A"/>
<path d="M34.4166 23.4756H32.1217V25.7538H34.4166V23.4756Z" fill="#E2231A"/>
<path d="M34.4166 16.9663H32.1217V19.2446H34.4166V16.9663Z" fill="#E2231A"/>
<path d="M46.2194 34.5415H43.9245V36.8198H46.2194V34.5415Z" fill="#E2231A"/>
<path d="M46.2194 31.6123H43.9245V33.8906H46.2194V31.6123Z" fill="#E2231A"/>
<path d="M46.2194 28.3577H43.9245V30.636H46.2194V28.3577Z" fill="#E2231A"/>
<path d="M46.2194 22.8246H43.9245V25.1028H46.2194V22.8246Z" fill="#E2231A"/>
<path d="M60.6455 66.7632H58.3506V69.0415H60.6455V66.7632Z" fill="#E2231A"/>
<path d="M60.6455 63.8338H58.3506V66.1121H60.6455V63.8338Z" fill="#E2231A"/>
<path d="M60.6455 60.9047H58.3506V63.1829H60.6455V60.9047Z" fill="#E2231A"/>
<path d="M60.6455 57.9754H58.3506V60.2537H60.6455V57.9754Z" fill="#E2231A"/>
<path d="M60.6455 55.0462H58.3506V57.3245H60.6455V55.0462Z" fill="#E2231A"/>
<path d="M60.6455 52.117H58.3506V54.3953H60.6455V52.117Z" fill="#E2231A"/>
<path d="M60.6455 49.1878H58.3506V51.4661H60.6455V49.1878Z" fill="#E2231A"/>
<path d="M60.6455 46.2586H58.3506V48.5369H60.6455V46.2586Z" fill="#E2231A"/>
<path d="M60.6455 43.3293H58.3506V45.6076H60.6455V43.3293Z" fill="#E2231A"/>
<path d="M60.6455 40.4001H58.3506V42.6784H60.6455V40.4001Z" fill="#E2231A"/>
<path d="M60.6455 37.4708H58.3506V39.7491H60.6455V37.4708Z" fill="#E2231A"/>
<path d="M60.6455 34.5415H58.3506V36.8198H60.6455V34.5415Z" fill="#E2231A"/>
<path d="M60.6455 31.6123H58.3506V33.8906H60.6455V31.6123Z" fill="#E2231A"/>
<path d="M60.6455 28.6831H58.3506V30.9614H60.6455V28.6831Z" fill="#E2231A"/>
<path d="M60.6455 25.754H58.3506V28.0323H60.6455V25.754Z" fill="#E2231A"/>
<path d="M72.3926 43.5802H71.6456C71.6014 43.3669 71.5241 43.1795 71.4136 43.018C71.3052 42.8565 71.1727 42.721 71.016 42.6113C70.8614 42.4997 70.6897 42.4159 70.5009 42.3601C70.3122 42.3043 70.1153 42.2764 69.9105 42.2764C69.537 42.2764 69.1986 42.3701 68.8954 42.5575C68.5942 42.7449 68.3542 43.021 68.1754 43.3858C67.9987 43.7507 67.9104 44.1982 67.9104 44.7285C67.9104 45.2589 67.9987 45.7064 68.1754 46.0713C68.3542 46.4361 68.5942 46.7122 68.8954 46.8996C69.1986 47.087 69.537 47.1807 69.9105 47.1807C70.1153 47.1807 70.3122 47.1528 70.5009 47.097C70.6897 47.0412 70.8614 46.9584 71.016 46.8488C71.1727 46.7371 71.3052 46.6006 71.4136 46.4391C71.5241 46.2756 71.6014 46.0882 71.6456 45.8769H72.3926C72.3364 46.1899 72.234 46.47 72.0854 46.7172C71.9368 46.9644 71.752 47.1747 71.5311 47.3482C71.3102 47.5196 71.0622 47.6502 70.7871 47.7399C70.514 47.8296 70.2218 47.8745 69.9105 47.8745C69.3844 47.8745 68.9165 47.7469 68.5068 47.4917C68.0971 47.2365 67.7748 46.8737 67.5399 46.4032C67.3049 45.9327 67.1874 45.3745 67.1874 44.7285C67.1874 44.0826 67.3049 43.5244 67.5399 43.0539C67.7748 42.5834 68.0971 42.2206 68.5068 41.9654C68.9165 41.7102 69.3844 41.5826 69.9105 41.5826C70.2218 41.5826 70.514 41.6275 70.7871 41.7172C71.0622 41.8069 71.3102 41.9385 71.5311 42.1119C71.752 42.2834 71.9368 42.4927 72.0854 42.7399C72.234 42.9851 72.3364 43.2652 72.3926 43.5802Z" fill="#333E48"/>
<path d="M73.5998 47.7908V41.6663H77.323V42.3242H74.3468V44.3936H77.1302V45.0515H74.3468V47.1329H77.3712V47.7908H73.5998Z" fill="#333E48"/>
<path d="M78.3321 42.3242V41.6663H82.9589V42.3242H81.019V47.7908H80.272V42.3242H78.3321Z" fill="#333E48"/>
<path d="M84.6662 44.2381H86.4253C86.8671 44.2381 87.2396 44.3099 87.5429 44.4534C87.8481 44.597 88.0791 44.7993 88.2357 45.0605C88.3943 45.3217 88.4737 45.6297 88.4737 45.9845C88.4737 46.3394 88.3943 46.6524 88.2357 46.9235C88.0791 47.1947 87.8481 47.407 87.5429 47.5605C87.2396 47.714 86.8671 47.7908 86.4253 47.7908H84.1119V41.6663H84.8589V47.1448H86.4253C86.7065 47.1448 86.9444 47.089 87.1392 46.9774C87.336 46.8637 87.4846 46.7182 87.585 46.5408C87.6875 46.3613 87.7387 46.1719 87.7387 45.9726C87.7387 45.6795 87.6252 45.4273 87.3983 45.216C87.1714 45.0027 86.847 44.896 86.4253 44.896H84.6662V44.2381Z" fill="#333E48"/>
<path d="M95.6662 47.7908L93.5456 44.9797H92.7865V47.7908H92.0395V41.6663H92.7865V44.3218H93.1118L95.5819 41.6663H96.4735L93.9794 44.3577L96.5579 47.7908H95.6662Z" fill="#333E48"/>
<path d="M102.439 44.7285C102.439 45.3745 102.321 45.9327 102.086 46.4032C101.851 46.8737 101.529 47.2365 101.119 47.4917C100.71 47.7469 100.242 47.8745 99.7155 47.8745C99.1893 47.8745 98.7214 47.7469 98.3118 47.4917C97.9021 47.2365 97.5798 46.8737 97.3448 46.4032C97.1099 45.9327 96.9924 45.3745 96.9924 44.7285C96.9924 44.0826 97.1099 43.5244 97.3448 43.0539C97.5798 42.5834 97.9021 42.2206 98.3118 41.9654C98.7214 41.7102 99.1893 41.5826 99.7155 41.5826C100.242 41.5826 100.71 41.7102 101.119 41.9654C101.529 42.2206 101.851 42.5834 102.086 43.0539C102.321 43.5244 102.439 44.0826 102.439 44.7285ZM101.716 44.7285C101.716 44.1982 101.626 43.7507 101.448 43.3858C101.271 43.021 101.031 42.7449 100.728 42.5575C100.426 42.3701 100.089 42.2764 99.7155 42.2764C99.3419 42.2764 99.0036 42.3701 98.7003 42.5575C98.3991 42.7449 98.1591 43.021 97.9804 43.3858C97.8037 43.7507 97.7153 44.1982 97.7153 44.7285C97.7153 45.2589 97.8037 45.7064 97.9804 46.0713C98.1591 46.4361 98.3991 46.7122 98.7003 46.8996C99.0036 47.087 99.3419 47.1807 99.7155 47.1807C100.089 47.1807 100.426 47.087 100.728 46.8996C101.031 46.7122 101.271 46.4361 101.448 46.0713C101.626 45.7064 101.716 45.2589 101.716 44.7285Z" fill="#333E48"/>
<path d="M103.695 41.6663H104.586L106.683 46.7501H106.755L108.852 41.6663H109.743V47.7908H109.044V43.1376H108.984L107.056 47.7908H106.382L104.454 43.1376H104.394V47.7908H103.695V41.6663Z" fill="#333E48"/>
<path d="M115.856 41.6663V47.7908H115.109V42.3242H112V47.7908H111.253V41.6663H115.856Z" fill="#333E48"/>
<path d="M117.616 47.7908H116.833L119.098 41.6663H119.869L122.134 47.7908H121.351L119.508 42.6352H119.459L117.616 47.7908ZM117.905 45.3984H121.062V46.0563H117.905V45.3984Z" fill="#333E48"/>
<path d="M123.095 47.7908V41.6663H123.842V44.3936H127.132V41.6663H127.879V47.7908H127.132V45.0515H123.842V47.7908H123.095Z" fill="#333E48"/>
<path d="M129.374 41.6663H130.109V46.4869H130.17L133.543 41.6663H134.266V47.7908H133.519V42.9821H133.459L130.097 47.7908H129.374V41.6663Z" fill="#333E48"/>
<path d="M135.761 41.6663H136.496V46.4869H136.556L139.93 41.6663H140.653V47.7908H139.906V42.9821H139.846L136.484 47.7908H135.761V41.6663ZM138.797 40.1352H139.46C139.46 40.4582 139.348 40.7224 139.123 40.9277C138.898 41.133 138.593 41.2357 138.207 41.2357C137.828 41.2357 137.525 41.133 137.3 40.9277C137.077 40.7224 136.966 40.4582 136.966 40.1352H137.629C137.629 40.2907 137.672 40.4273 137.758 40.5449C137.847 40.6625 137.996 40.7214 138.207 40.7214C138.418 40.7214 138.569 40.6625 138.659 40.5449C138.751 40.4273 138.797 40.2907 138.797 40.1352Z" fill="#333E48"/>
<path d="M12.8884 78.2514V84.4737H12.1449V79.9014C12.1449 79.8406 12.1463 79.7755 12.1492 79.7061C12.1551 79.6366 12.1609 79.5657 12.1667 79.4933L10.0148 83.3838C9.94775 83.5141 9.84569 83.5792 9.70865 83.5792H9.58618C9.44914 83.5792 9.34708 83.5141 9.28002 83.3838L7.08436 79.4759C7.10186 79.6293 7.11061 79.7712 7.11061 79.9014V84.4737H6.36706V78.2514H6.99251C7.06833 78.2514 7.12664 78.2587 7.16746 78.2732C7.20829 78.2876 7.24765 78.3282 7.28556 78.3947L9.45059 82.2245C9.48558 82.2939 9.51912 82.3663 9.55119 82.4416C9.58618 82.5168 9.61826 82.5935 9.64742 82.6717C9.67657 82.5935 9.70719 82.5168 9.73926 82.4416C9.77134 82.3634 9.80633 82.2896 9.84424 82.2201L11.9699 78.3947C12.0049 78.3282 12.0428 78.2876 12.0836 78.2732C12.1274 78.2587 12.1871 78.2514 12.263 78.2514H12.8884Z" fill="#333E48"/>
<path d="M15.853 83.9092C16.0104 83.9092 16.146 83.8904 16.2597 83.8528C16.3764 83.8122 16.4726 83.7572 16.5484 83.6878C16.6242 83.6154 16.6811 83.5314 16.719 83.4359C16.7569 83.3404 16.7758 83.2362 16.7758 83.1233C16.7758 83.0191 16.7598 82.9221 16.7277 82.8324C16.6957 82.7397 16.6417 82.6587 16.5659 82.5892C16.493 82.5197 16.3968 82.4647 16.2772 82.4242C16.1577 82.3837 16.0119 82.3634 15.8398 82.3634H14.8951V83.9092H15.853ZM15.8398 81.7989C16.146 81.7989 16.4026 81.8351 16.6096 81.9075C16.8196 81.9799 16.9872 82.0768 17.1126 82.1984C17.2409 82.32 17.3328 82.4604 17.3882 82.6196C17.4436 82.7788 17.4713 82.9438 17.4713 83.1146C17.4713 83.3115 17.4363 83.4938 17.3663 83.6617C17.2963 83.8267 17.1928 83.97 17.0558 84.0916C16.9187 84.2103 16.7496 84.3043 16.5484 84.3738C16.3472 84.4404 16.1154 84.4737 15.853 84.4737H14.1516V80.0751H14.8951V81.7989H15.8398ZM19.2252 80.0751V84.4737H18.4466V80.0751H19.2252Z" fill="#333E48"/>
<path d="M26.2192 84.4737H25.4363V80.6657H23.3106V84.4737H22.5277V80.0751H26.2192V84.4737Z" fill="#333E48"/>
<path d="M28.1523 83.4142C28.2951 83.6053 28.4511 83.7399 28.6202 83.818C28.7894 83.8962 28.9789 83.9353 29.1888 83.9353C29.6029 83.9353 29.9207 83.7891 30.1423 83.4967C30.3639 83.2043 30.4747 82.7875 30.4747 82.2462C30.4747 81.9596 30.4485 81.7136 30.396 81.508C30.3464 81.3025 30.2736 81.1346 30.1773 81.0043C30.0811 80.8712 29.963 80.7742 29.823 80.7134C29.6831 80.6526 29.5242 80.6222 29.3463 80.6222C29.0926 80.6222 28.8696 80.6801 28.6771 80.7959C28.4876 80.9117 28.3126 81.0753 28.1523 81.2866V83.4142ZM28.1129 80.7568C28.2995 80.5282 28.5153 80.3443 28.7602 80.2054C29.0051 80.0664 29.2851 79.997 29.6 79.997C29.8566 79.997 30.0884 80.0462 30.2954 80.1446C30.5024 80.2401 30.6789 80.3834 30.8246 80.5745C30.9704 80.7626 31.0827 80.9971 31.1614 81.2779C31.2402 81.5587 31.2795 81.8814 31.2795 82.2462C31.2795 82.5704 31.2358 82.8729 31.1483 83.1537C31.0608 83.4316 30.934 83.6733 30.7678 83.8788C30.6045 84.0814 30.4033 84.2421 30.1642 84.3608C29.928 84.4766 29.6612 84.5345 29.3638 84.5345C29.0926 84.5345 28.8594 84.4896 28.664 84.3999C28.4715 84.3072 28.301 84.1799 28.1523 84.0178V85.963H27.3693V80.0751H27.8373C27.9481 80.0751 28.0167 80.1287 28.0429 80.2358L28.1129 80.7568Z" fill="#333E48"/>
<path d="M34.0444 80.0057C34.3681 80.0057 34.6596 80.0592 34.9192 80.1663C35.1787 80.2734 35.4003 80.4254 35.584 80.6222C35.7677 80.8191 35.9076 81.0579 36.0039 81.3387C36.103 81.6166 36.1526 81.9278 36.1526 82.2722C36.1526 82.6196 36.103 82.9322 36.0039 83.2101C35.9076 83.488 35.7677 83.7254 35.584 83.9222C35.4003 84.1191 35.1787 84.271 34.9192 84.3782C34.6596 84.4824 34.3681 84.5345 34.0444 84.5345C33.7178 84.5345 33.4233 84.4824 33.1609 84.3782C32.9014 84.271 32.6798 84.1191 32.4961 83.9222C32.3124 83.7254 32.1709 83.488 32.0718 83.2101C31.9756 82.9322 31.9275 82.6196 31.9275 82.2722C31.9275 81.9278 31.9756 81.6166 32.0718 81.3387C32.1709 81.0579 32.3124 80.8191 32.4961 80.6222C32.6798 80.4254 32.9014 80.2734 33.1609 80.1663C33.4233 80.0592 33.7178 80.0057 34.0444 80.0057ZM34.0444 83.9309C34.4818 83.9309 34.8083 83.7862 35.0241 83.4967C35.2399 83.2043 35.3478 82.7976 35.3478 82.2766C35.3478 81.7526 35.2399 81.3445 35.0241 81.0521C34.8083 80.7597 34.4818 80.6135 34.0444 80.6135C33.8228 80.6135 33.6289 80.6512 33.4627 80.7264C33.2994 80.8017 33.1623 80.9103 33.0515 81.0521C32.9436 81.1939 32.862 81.3691 32.8066 81.5775C32.7541 81.783 32.7279 82.016 32.7279 82.2766C32.7279 82.7976 32.8358 83.2043 33.0515 83.4967C33.2702 83.7862 33.6012 83.9309 34.0444 83.9309Z" fill="#333E48"/>
<path d="M40.1361 80.8567C40.1128 80.8886 40.0894 80.9132 40.0661 80.9305C40.0428 80.9479 40.0107 80.9566 39.9699 80.9566C39.9261 80.9566 39.878 80.9392 39.8255 80.9045C39.7731 80.8668 39.7074 80.8263 39.6287 80.7829C39.5529 80.7395 39.4581 80.7004 39.3444 80.6657C39.2336 80.628 39.0966 80.6092 38.9333 80.6092C38.7146 80.6092 38.5221 80.6483 38.3559 80.7264C38.1897 80.8017 38.0498 80.9117 37.9361 81.0564C37.8253 81.2012 37.7407 81.3763 37.6824 81.5818C37.627 81.7874 37.5993 82.0175 37.5993 82.2722C37.5993 82.5386 37.6299 82.7759 37.6911 82.9843C37.7524 83.1899 37.8384 83.3636 37.9492 83.5054C38.0629 83.6443 38.1985 83.7514 38.3559 83.8267C38.5163 83.8991 38.6956 83.9353 38.8939 83.9353C39.0835 83.9353 39.2395 83.9135 39.3619 83.8701C39.4844 83.8238 39.585 83.7732 39.6637 83.7182C39.7454 83.6632 39.8124 83.6139 39.8649 83.5705C39.9203 83.5242 39.9743 83.501 40.0267 83.501C40.0909 83.501 40.1405 83.5257 40.1754 83.5749L40.3941 83.8571C40.2979 83.9758 40.1886 84.0771 40.0661 84.161C39.9436 84.245 39.811 84.3159 39.6681 84.3738C39.5281 84.4288 39.3809 84.4693 39.2263 84.4954C39.0718 84.5214 38.9143 84.5345 38.754 84.5345C38.477 84.5345 38.2189 84.4838 37.9798 84.3825C37.7436 84.2812 37.538 84.135 37.3631 83.9439C37.1881 83.75 37.0511 83.5126 36.9519 83.2318C36.8528 82.9511 36.8032 82.6312 36.8032 82.2722C36.8032 81.9451 36.8484 81.6426 36.9388 81.3647C37.0321 81.0868 37.1663 80.848 37.3412 80.6483C37.5191 80.4457 37.7363 80.2879 37.9929 80.175C38.2524 80.0621 38.5498 80.0057 38.8852 80.0057C39.1972 80.0057 39.4713 80.0563 39.7074 80.1576C39.9465 80.256 40.1579 80.3964 40.3416 80.5788L40.1361 80.8567Z" fill="#333E48"/>
<path d="M44.8251 80.6657H43.1237V84.4737H42.3452V80.6657H40.6438V80.0751H44.8251V80.6657Z" fill="#333E48"/>
<path d="M47.1682 80.0057C47.4919 80.0057 47.7835 80.0592 48.043 80.1663C48.3025 80.2734 48.5241 80.4254 48.7078 80.6222C48.8915 80.8191 49.0315 81.0579 49.1277 81.3387C49.2268 81.6166 49.2764 81.9278 49.2764 82.2722C49.2764 82.6196 49.2268 82.9322 49.1277 83.2101C49.0315 83.488 48.8915 83.7254 48.7078 83.9222C48.5241 84.1191 48.3025 84.271 48.043 84.3782C47.7835 84.4824 47.4919 84.5345 47.1682 84.5345C46.8416 84.5345 46.5471 84.4824 46.2847 84.3782C46.0252 84.271 45.8036 84.1191 45.6199 83.9222C45.4362 83.7254 45.2948 83.488 45.1956 83.2101C45.0994 82.9322 45.0513 82.6196 45.0513 82.2722C45.0513 81.9278 45.0994 81.6166 45.1956 81.3387C45.2948 81.0579 45.4362 80.8191 45.6199 80.6222C45.8036 80.4254 46.0252 80.2734 46.2847 80.1663C46.5471 80.0592 46.8416 80.0057 47.1682 80.0057ZM47.1682 83.9309C47.6056 83.9309 47.9322 83.7862 48.1479 83.4967C48.3637 83.2043 48.4716 82.7976 48.4716 82.2766C48.4716 81.7526 48.3637 81.3445 48.1479 81.0521C47.9322 80.7597 47.6056 80.6135 47.1682 80.6135C46.9466 80.6135 46.7527 80.6512 46.5865 80.7264C46.4232 80.8017 46.2862 80.9103 46.1754 81.0521C46.0675 81.1939 45.9858 81.3691 45.9304 81.5775C45.8779 81.783 45.8517 82.016 45.8517 82.2766C45.8517 82.7976 45.9596 83.2043 46.1754 83.4967C46.394 83.7862 46.725 83.9309 47.1682 83.9309Z" fill="#333E48"/>
<path d="M55.5943 80.0751V84.4737H54.8158V82.6066C54.4367 82.705 54.0795 82.7672 53.7442 82.7933C53.4118 82.8164 53.1202 82.7904 52.8694 82.7151C52.6216 82.6399 52.4247 82.5082 52.2789 82.32C52.1361 82.1289 52.0646 81.8655 52.0646 81.5297V80.0751H52.8475V81.4125C52.8475 81.6238 52.8898 81.7903 52.9744 81.9118C53.0619 82.0334 53.1887 82.1174 53.3549 82.1637C53.5211 82.21 53.7267 82.223 53.9716 82.2028C54.2165 82.1825 54.4979 82.1347 54.8158 82.0595V80.0751H55.5943Z" fill="#333E48"/>
<path d="M59.707 81.7946C59.707 81.6151 59.6807 81.4516 59.6282 81.3039C59.5787 81.1534 59.5043 81.0246 59.4052 80.9175C59.3089 80.8075 59.1909 80.7235 59.0509 80.6657C58.9109 80.6049 58.752 80.5745 58.5742 80.5745C58.2009 80.5745 57.905 80.683 57.6863 80.9001C57.4705 81.1143 57.3364 81.4125 57.2839 81.7946H59.707ZM60.3368 83.8571C60.2406 83.9729 60.1254 84.0742 59.9913 84.161C59.8571 84.245 59.7128 84.3145 59.5583 84.3695C59.4066 84.4245 59.2492 84.465 59.0859 84.4911C58.9226 84.52 58.7608 84.5345 58.6004 84.5345C58.2942 84.5345 58.0114 84.4838 57.7519 84.3825C57.4953 84.2783 57.2722 84.1278 57.0827 83.9309C56.8961 83.7312 56.7503 83.4851 56.6453 83.1928C56.5403 82.9004 56.4878 82.5646 56.4878 82.1854C56.4878 81.8786 56.5345 81.592 56.6278 81.3256C56.724 81.0593 56.8611 80.8292 57.0389 80.6353C57.2168 80.4384 57.434 80.285 57.6906 80.175C57.9472 80.0621 58.2359 80.0057 58.5567 80.0057C58.822 80.0057 59.0669 80.0505 59.2915 80.1403C59.5189 80.2271 59.7143 80.3545 59.8775 80.5224C60.0438 80.6874 60.1735 80.8929 60.2668 81.1389C60.3601 81.3821 60.4068 81.66 60.4068 81.9726C60.4068 82.0942 60.3937 82.1753 60.3674 82.2158C60.3412 82.2563 60.2916 82.2766 60.2187 82.2766H57.2576C57.2664 82.5545 57.3043 82.7962 57.3713 83.0017C57.4413 83.2072 57.5376 83.3795 57.66 83.5184C57.7825 83.6545 57.9283 83.7572 58.0974 83.8267C58.2665 83.8933 58.4561 83.9266 58.666 83.9266C58.8614 83.9266 59.029 83.9049 59.169 83.8614C59.3119 83.8151 59.4343 83.7659 59.5364 83.7138C59.6384 83.6617 59.723 83.6139 59.7901 83.5705C59.8601 83.5242 59.9198 83.501 59.9694 83.501C60.0335 83.501 60.0831 83.5257 60.1181 83.5749L60.3368 83.8571Z" fill="#333E48"/>
<path d="M64.3591 80.8567C64.3358 80.8886 64.3125 80.9132 64.2892 80.9305C64.2658 80.9479 64.2337 80.9566 64.1929 80.9566C64.1492 80.9566 64.1011 80.9392 64.0486 80.9045C63.9961 80.8668 63.9305 80.8263 63.8518 80.7829C63.776 80.7395 63.6812 80.7004 63.5675 80.6657C63.4567 80.628 63.3196 80.6092 63.1563 80.6092C62.9376 80.6092 62.7452 80.6483 62.579 80.7264C62.4128 80.8017 62.2728 80.9117 62.1591 81.0564C62.0483 81.2012 61.9637 81.3763 61.9054 81.5818C61.85 81.7874 61.8223 82.0175 61.8223 82.2722C61.8223 82.5386 61.8529 82.7759 61.9142 82.9843C61.9754 83.1899 62.0614 83.3636 62.1722 83.5054C62.2859 83.6443 62.4215 83.7514 62.579 83.8267C62.7394 83.8991 62.9187 83.9353 63.117 83.9353C63.3065 83.9353 63.4625 83.9135 63.585 83.8701C63.7074 83.8238 63.808 83.7732 63.8868 83.7182C63.9684 83.6632 64.0355 83.6139 64.0879 83.5705C64.1433 83.5242 64.1973 83.501 64.2498 83.501C64.3139 83.501 64.3635 83.5257 64.3985 83.5749L64.6172 83.8571C64.521 83.9758 64.4116 84.0771 64.2892 84.161C64.1667 84.245 64.034 84.3159 63.8911 84.3738C63.7512 84.4288 63.6039 84.4693 63.4494 84.4954C63.2948 84.5214 63.1374 84.5345 62.977 84.5345C62.7 84.5345 62.4419 84.4838 62.2028 84.3825C61.9667 84.2812 61.7611 84.135 61.5861 83.9439C61.4112 83.75 61.2741 83.5126 61.175 83.2318C61.0759 82.9511 61.0263 82.6312 61.0263 82.2722C61.0263 81.9451 61.0715 81.6426 61.1619 81.3647C61.2552 81.0868 61.3893 80.848 61.5643 80.6483C61.7421 80.4457 61.9594 80.2879 62.216 80.175C62.4755 80.0621 62.7729 80.0057 63.1082 80.0057C63.4202 80.0057 63.6943 80.0563 63.9305 80.1576C64.1696 80.256 64.381 80.3964 64.5647 80.5788L64.3591 80.8567Z" fill="#333E48"/>
<path d="M69.0482 80.6657H67.3468V84.4737H66.5682V80.6657H64.8668V80.0751H69.0482V80.6657Z" fill="#333E48"/>
<path d="M73.3945 80.0751V84.4737H72.6116V82.4155H70.4859V84.4737H69.703V80.0751H70.4859V81.8293H72.6116V80.0751H73.3945Z" fill="#333E48"/>
<path d="M76.4123 80.0057C76.7359 80.0057 77.0275 80.0592 77.287 80.1663C77.5465 80.2734 77.7681 80.4254 77.9518 80.6222C78.1355 80.8191 78.2755 81.0579 78.3717 81.3387C78.4709 81.6166 78.5204 81.9278 78.5204 82.2722C78.5204 82.6196 78.4709 82.9322 78.3717 83.2101C78.2755 83.488 78.1355 83.7254 77.9518 83.9222C77.7681 84.1191 77.5465 84.271 77.287 84.3782C77.0275 84.4824 76.7359 84.5345 76.4123 84.5345C76.0857 84.5345 75.7912 84.4824 75.5287 84.3782C75.2692 84.271 75.0476 84.1191 74.8639 83.9222C74.6802 83.7254 74.5388 83.488 74.4397 83.2101C74.3434 82.9322 74.2953 82.6196 74.2953 82.2722C74.2953 81.9278 74.3434 81.6166 74.4397 81.3387C74.5388 81.0579 74.6802 80.8191 74.8639 80.6222C75.0476 80.4254 75.2692 80.2734 75.5287 80.1663C75.7912 80.0592 76.0857 80.0057 76.4123 80.0057ZM76.4123 83.9309C76.8496 83.9309 77.1762 83.7862 77.392 83.4967C77.6078 83.2043 77.7156 82.7976 77.7156 82.2766C77.7156 81.7526 77.6078 81.3445 77.392 81.0521C77.1762 80.7597 76.8496 80.6135 76.4123 80.6135C76.1906 80.6135 75.9967 80.6512 75.8305 80.7264C75.6673 80.8017 75.5302 80.9103 75.4194 81.0521C75.3115 81.1939 75.2299 81.3691 75.1745 81.5775C75.122 81.783 75.0957 82.016 75.0957 82.2766C75.0957 82.7976 75.2036 83.2043 75.4194 83.4967C75.6381 83.7862 75.969 83.9309 76.4123 83.9309Z" fill="#333E48"/>
<path d="M85.3719 80.0751V84.4737H84.5934V81.4863C84.5934 81.4284 84.5963 81.3662 84.6021 81.2996C84.608 81.233 84.6153 81.1664 84.624 81.0999C84.5978 81.1578 84.5715 81.2113 84.5453 81.2605C84.519 81.3097 84.4913 81.3546 84.4622 81.3951L82.3234 84.2826C82.2913 84.3289 82.2505 84.3738 82.2009 84.4172C82.1543 84.4578 82.1018 84.478 82.0435 84.478H81.5711V80.0795H82.354V83.0668C82.354 83.1218 82.3511 83.1826 82.3453 83.2492C82.3394 83.3129 82.3321 83.378 82.3234 83.4446C82.3496 83.3896 82.3759 83.3389 82.4021 83.2926C82.4284 83.2434 82.4546 83.1986 82.4808 83.158L84.6196 80.2705C84.6517 80.2242 84.6925 80.1808 84.7421 80.1403C84.7917 80.0968 84.8456 80.0751 84.9039 80.0751H85.3719Z" fill="#333E48"/>
<path d="M92.3049 84.4737H91.557C91.4928 84.4737 91.4418 84.4578 91.4039 84.4259C91.3689 84.3912 91.3398 84.3535 91.3164 84.313L90.2011 82.5892C90.1894 82.6297 90.1763 82.6703 90.1617 82.7108C90.1501 82.7484 90.1326 82.7832 90.1093 82.815L89.077 84.313C89.0479 84.3535 89.0158 84.3912 88.9808 84.4259C88.9487 84.4578 88.9035 84.4737 88.8452 84.4737H88.1498L89.7025 82.2158L88.211 80.0751H88.9589C89.0231 80.0751 89.0697 80.0853 89.0989 80.1055C89.1281 80.1258 89.1543 80.1547 89.1776 80.1924L90.2667 81.8424C90.29 81.7584 90.3265 81.6774 90.3761 81.5992L91.3295 80.2097C91.3558 80.1692 91.3835 80.1374 91.4127 80.1142C91.4447 80.0882 91.4826 80.0751 91.5264 80.0751H92.2437L90.7522 82.1767L92.3049 84.4737Z" fill="#333E48"/>
<path d="M94.6063 80.0057C94.9299 80.0057 95.2215 80.0592 95.481 80.1663C95.7406 80.2734 95.9622 80.4254 96.1459 80.6222C96.3296 80.8191 96.4695 81.0579 96.5657 81.3387C96.6649 81.6166 96.7145 81.9278 96.7145 82.2722C96.7145 82.6196 96.6649 82.9322 96.5657 83.2101C96.4695 83.488 96.3296 83.7254 96.1459 83.9222C95.9622 84.1191 95.7406 84.271 95.481 84.3782C95.2215 84.4824 94.9299 84.5345 94.6063 84.5345C94.2797 84.5345 93.9852 84.4824 93.7228 84.3782C93.4633 84.271 93.2417 84.1191 93.058 83.9222C92.8743 83.7254 92.7328 83.488 92.6337 83.2101C92.5375 82.9322 92.4894 82.6196 92.4894 82.2722C92.4894 81.9278 92.5375 81.6166 92.6337 81.3387C92.7328 81.0579 92.8743 80.8191 93.058 80.6222C93.2417 80.4254 93.4633 80.2734 93.7228 80.1663C93.9852 80.0592 94.2797 80.0057 94.6063 80.0057ZM94.6063 83.9309C95.0437 83.9309 95.3702 83.7862 95.586 83.4967C95.8018 83.2043 95.9097 82.7976 95.9097 82.2766C95.9097 81.7526 95.8018 81.3445 95.586 81.0521C95.3702 80.7597 95.0437 80.6135 94.6063 80.6135C94.3847 80.6135 94.1908 80.6512 94.0246 80.7264C93.8613 80.8017 93.7242 80.9103 93.6134 81.0521C93.5055 81.1939 93.4239 81.3691 93.3685 81.5775C93.316 81.783 93.2898 82.016 93.2898 82.2766C93.2898 82.7976 93.3977 83.2043 93.6134 83.4967C93.8321 83.7862 94.1631 83.9309 94.6063 83.9309Z" fill="#333E48"/>
<path d="M98.3973 83.4142C98.5402 83.6053 98.6962 83.7399 98.8653 83.818C99.0345 83.8962 99.224 83.9353 99.4339 83.9353C99.848 83.9353 100.166 83.7891 100.387 83.4967C100.609 83.2043 100.72 82.7875 100.72 82.2462C100.72 81.9596 100.694 81.7136 100.641 81.508C100.592 81.3025 100.519 81.1346 100.422 81.0043C100.326 80.8712 100.208 80.7742 100.068 80.7134C99.9282 80.6526 99.7693 80.6222 99.5914 80.6222C99.3377 80.6222 99.1147 80.6801 98.9222 80.7959C98.7327 80.9117 98.5577 81.0753 98.3973 81.2866V83.4142ZM98.358 80.7568C98.5446 80.5282 98.7604 80.3443 99.0053 80.2054C99.2502 80.0664 99.5302 79.997 99.8451 79.997C100.102 79.997 100.333 80.0462 100.541 80.1446C100.748 80.2401 100.924 80.3834 101.07 80.5745C101.216 80.7626 101.328 80.9971 101.407 81.2779C101.485 81.5587 101.525 81.8814 101.525 82.2462C101.525 82.5704 101.481 82.8729 101.393 83.1537C101.306 83.4316 101.179 83.6733 101.013 83.8788C100.85 84.0814 100.648 84.2421 100.409 84.3608C100.173 84.4766 99.9063 84.5345 99.6089 84.5345C99.3377 84.5345 99.1044 84.4896 98.9091 84.3999C98.7166 84.3072 98.5461 84.1799 98.3973 84.0178V85.963H97.6144V80.0751H98.0824C98.1932 80.0751 98.2618 80.1287 98.288 80.2358L98.358 80.7568Z" fill="#333E48"/>
<path d="M104.289 80.0057C104.613 80.0057 104.905 80.0592 105.164 80.1663C105.424 80.2734 105.645 80.4254 105.829 80.6222C106.013 80.8191 106.153 81.0579 106.249 81.3387C106.348 81.6166 106.398 81.9278 106.398 82.2722C106.398 82.6196 106.348 82.9322 106.249 83.2101C106.153 83.488 106.013 83.7254 105.829 83.9222C105.645 84.1191 105.424 84.271 105.164 84.3782C104.905 84.4824 104.613 84.5345 104.289 84.5345C103.963 84.5345 103.668 84.4824 103.406 84.3782C103.146 84.271 102.925 84.1191 102.741 83.9222C102.557 83.7254 102.416 83.488 102.317 83.2101C102.221 82.9322 102.173 82.6196 102.173 82.2722C102.173 81.9278 102.221 81.6166 102.317 81.3387C102.416 81.0579 102.557 80.8191 102.741 80.6222C102.925 80.4254 103.146 80.2734 103.406 80.1663C103.668 80.0592 103.963 80.0057 104.289 80.0057ZM104.289 83.9309C104.727 83.9309 105.053 83.7862 105.269 83.4967C105.485 83.2043 105.593 82.7976 105.593 82.2766C105.593 81.7526 105.485 81.3445 105.269 81.0521C105.053 80.7597 104.727 80.6135 104.289 80.6135C104.068 80.6135 103.874 80.6512 103.708 80.7264C103.544 80.8017 103.407 80.9103 103.297 81.0521C103.189 81.1939 103.107 81.3691 103.052 81.5775C102.999 81.783 102.973 82.016 102.973 82.2766C102.973 82.7976 103.081 83.2043 103.297 83.4967C103.515 83.7862 103.846 83.9309 104.289 83.9309Z" fill="#333E48"/>
<path d="M113.259 80.0751V84.4737H107.298V80.0751H108.081V83.8875H109.887V80.0751H110.67V83.8875H112.476V80.0751H113.259Z" fill="#333E48"/>
<path d="M116.271 80.0057C116.594 80.0057 116.886 80.0592 117.145 80.1663C117.405 80.2734 117.627 80.4254 117.81 80.6222C117.994 80.8191 118.134 81.0579 118.23 81.3387C118.329 81.6166 118.379 81.9278 118.379 82.2722C118.379 82.6196 118.329 82.9322 118.23 83.2101C118.134 83.488 117.994 83.7254 117.81 83.9222C117.627 84.1191 117.405 84.271 117.145 84.3782C116.886 84.4824 116.594 84.5345 116.271 84.5345C115.944 84.5345 115.65 84.4824 115.387 84.3782C115.128 84.271 114.906 84.1191 114.722 83.9222C114.539 83.7254 114.397 83.488 114.298 83.2101C114.202 82.9322 114.154 82.6196 114.154 82.2722C114.154 81.9278 114.202 81.6166 114.298 81.3387C114.397 81.0579 114.539 80.8191 114.722 80.6222C114.906 80.4254 115.128 80.2734 115.387 80.1663C115.65 80.0592 115.944 80.0057 116.271 80.0057ZM116.271 83.9309C116.708 83.9309 117.035 83.7862 117.25 83.4967C117.466 83.2043 117.574 82.7976 117.574 82.2766C117.574 81.7526 117.466 81.3445 117.25 81.0521C117.035 80.7597 116.708 80.6135 116.271 80.6135C116.049 80.6135 115.855 80.6512 115.689 80.7264C115.526 80.8017 115.389 80.9103 115.278 81.0521C115.17 81.1939 115.088 81.3691 115.033 81.5775C114.98 81.783 114.954 82.016 114.954 82.2766C114.954 82.7976 115.062 83.2043 115.278 83.4967C115.496 83.7862 115.827 83.9309 116.271 83.9309Z" fill="#333E48"/>
<path d="M122.212 83.4142C122.355 83.6053 122.511 83.7399 122.68 83.818C122.85 83.8962 123.039 83.9353 123.249 83.9353C123.663 83.9353 123.981 83.7891 124.202 83.4967C124.424 83.2043 124.535 82.7875 124.535 82.2462C124.535 81.9596 124.509 81.7136 124.456 81.508C124.407 81.3025 124.334 81.1346 124.237 81.0043C124.141 80.8712 124.023 80.7742 123.883 80.7134C123.743 80.6526 123.584 80.6222 123.406 80.6222C123.153 80.6222 122.93 80.6801 122.737 80.7959C122.548 80.9117 122.373 81.0753 122.212 81.2866V83.4142ZM122.173 80.7568C122.36 80.5282 122.575 80.3443 122.82 80.2054C123.065 80.0664 123.345 79.997 123.66 79.997C123.917 79.997 124.149 80.0462 124.356 80.1446C124.563 80.2401 124.739 80.3834 124.885 80.5745C125.031 80.7626 125.143 80.9971 125.222 81.2779C125.3 81.5587 125.34 81.8814 125.34 82.2462C125.34 82.5704 125.296 82.8729 125.208 83.1537C125.121 83.4316 124.994 83.6733 124.828 83.8788C124.665 84.0814 124.463 84.2421 124.224 84.3608C123.988 84.4766 123.721 84.5345 123.424 84.5345C123.153 84.5345 122.92 84.4896 122.724 84.3999C122.532 84.3072 122.361 84.1799 122.212 84.0178V85.963H121.429V80.0751H121.897C122.008 80.0751 122.077 80.1287 122.103 80.2358L122.173 80.7568Z" fill="#333E48"/>
<path d="M128.638 82.4937C128.279 82.5053 127.973 82.5342 127.72 82.5805C127.469 82.6239 127.263 82.6818 127.103 82.7542C126.945 82.8266 126.83 82.912 126.757 83.0104C126.687 83.1088 126.652 83.2188 126.652 83.3404C126.652 83.4562 126.671 83.556 126.709 83.64C126.747 83.7239 126.798 83.7934 126.862 83.8484C126.929 83.9005 127.007 83.9396 127.094 83.9657C127.185 83.9888 127.281 84.0004 127.383 84.0004C127.52 84.0004 127.645 83.9874 127.759 83.9613C127.873 83.9324 127.979 83.8918 128.078 83.8397C128.18 83.7876 128.277 83.7254 128.367 83.653C128.46 83.5807 128.551 83.4982 128.638 83.4055V82.4937ZM126.123 80.696C126.368 80.4616 126.632 80.2864 126.915 80.1707C127.198 80.0549 127.511 79.997 127.855 79.997C128.103 79.997 128.323 80.0375 128.516 80.1185C128.708 80.1996 128.87 80.3125 129.001 80.4572C129.132 80.602 129.232 80.7771 129.299 80.9826C129.366 81.1882 129.399 81.4139 129.399 81.66V84.4737H129.054C128.978 84.4737 128.92 84.4621 128.879 84.4389C128.838 84.4129 128.806 84.3637 128.782 84.2913L128.695 83.8745C128.578 83.9816 128.465 84.0771 128.354 84.161C128.243 84.2421 128.126 84.3116 128.004 84.3695C127.881 84.4245 127.75 84.4664 127.61 84.4954C127.473 84.5272 127.32 84.5432 127.151 84.5432C126.979 84.5432 126.817 84.52 126.666 84.4737C126.514 84.4245 126.381 84.3521 126.268 84.2566C126.157 84.161 126.068 84.0409 126.001 83.8962C125.937 83.7486 125.905 83.5749 125.905 83.3751C125.905 83.2014 125.953 83.035 126.049 82.8758C126.145 82.7137 126.301 82.5704 126.517 82.4459C126.733 82.3214 127.014 82.2201 127.361 82.142C127.708 82.0609 128.134 82.0146 128.638 82.003V81.66C128.638 81.3184 128.564 81.0608 128.415 80.8871C128.266 80.7105 128.049 80.6222 127.763 80.6222C127.571 80.6222 127.409 80.6468 127.278 80.696C127.15 80.7424 127.037 80.7959 126.941 80.8567C126.848 80.9146 126.766 80.9682 126.696 81.0174C126.629 81.0637 126.562 81.0868 126.495 81.0868C126.442 81.0868 126.397 81.0738 126.359 81.0478C126.321 81.0188 126.289 80.9841 126.263 80.9436L126.123 80.696Z" fill="#333E48"/>
<path d="M132.496 83.9613C132.934 83.9613 133.263 83.8238 133.485 83.5488C133.709 83.2709 133.822 82.883 133.822 82.3851C133.822 81.8901 133.714 81.5037 133.498 81.2258C133.285 80.9479 132.964 80.8089 132.536 80.8089C132.329 80.8089 132.142 80.8422 131.976 80.9088C131.81 80.9725 131.668 81.0666 131.552 81.1911C131.438 81.3155 131.349 81.4689 131.285 81.6513C131.224 81.8337 131.193 82.0421 131.193 82.2766C131.193 82.54 131.221 82.7759 131.276 82.9843C131.332 83.1928 131.413 83.3693 131.521 83.5141C131.632 83.6588 131.767 83.7703 131.928 83.8484C132.091 83.9237 132.281 83.9613 132.496 83.9613ZM132.798 79.0417C132.501 79.0678 132.246 79.1329 132.033 79.2371C131.823 79.3413 131.648 79.4832 131.508 79.6626C131.368 79.8392 131.263 80.052 131.193 80.3009C131.123 80.5499 131.082 80.8307 131.071 81.1433C131.141 81.0043 131.231 80.8799 131.342 80.7699C131.453 80.657 131.579 80.5614 131.722 80.4833C131.865 80.4022 132.02 80.3414 132.186 80.3009C132.355 80.2575 132.534 80.2358 132.724 80.2358C133.018 80.2358 133.282 80.2879 133.516 80.3921C133.752 80.4934 133.951 80.6381 134.115 80.8263C134.281 81.0145 134.408 81.2417 134.495 81.508C134.583 81.7714 134.626 82.0638 134.626 82.3851C134.626 82.7122 134.575 83.0089 134.473 83.2753C134.374 83.5387 134.231 83.7645 134.045 83.9526C133.858 84.1379 133.634 84.2812 133.371 84.3825C133.112 84.4838 132.82 84.5345 132.496 84.5345C132.199 84.5345 131.921 84.4853 131.661 84.3868C131.402 84.2884 131.177 84.1263 130.987 83.9005C130.798 83.6747 130.648 83.378 130.537 83.0104C130.429 82.6399 130.375 82.1839 130.375 81.6426C130.375 81.1795 130.417 80.7539 130.502 80.366C130.587 79.9782 130.722 79.6409 130.909 79.3543C131.098 79.0678 131.342 78.8376 131.639 78.6639C131.94 78.4874 132.304 78.3803 132.733 78.3426L134.316 78.208L134.36 78.6075C134.368 78.6972 134.355 78.7725 134.32 78.8333C134.285 78.8941 134.223 78.9274 134.132 78.9332L132.798 79.0417Z" fill="#333E48"/>
<path d="M137.395 80.0057C137.718 80.0057 138.01 80.0592 138.27 80.1663C138.529 80.2734 138.751 80.4254 138.934 80.6222C139.118 80.8191 139.258 81.0579 139.354 81.3387C139.453 81.6166 139.503 81.9278 139.503 82.2722C139.503 82.6196 139.453 82.9322 139.354 83.2101C139.258 83.488 139.118 83.7254 138.934 83.9222C138.751 84.1191 138.529 84.271 138.27 84.3782C138.01 84.4824 137.718 84.5345 137.395 84.5345C137.068 84.5345 136.774 84.4824 136.511 84.3782C136.252 84.271 136.03 84.1191 135.846 83.9222C135.663 83.7254 135.521 83.488 135.422 83.2101C135.326 82.9322 135.278 82.6196 135.278 82.2722C135.278 81.9278 135.326 81.6166 135.422 81.3387C135.521 81.0579 135.663 80.8191 135.846 80.6222C136.03 80.4254 136.252 80.2734 136.511 80.1663C136.774 80.0592 137.068 80.0057 137.395 80.0057ZM137.395 83.9309C137.832 83.9309 138.159 83.7862 138.375 83.4967C138.59 83.2043 138.698 82.7976 138.698 82.2766C138.698 81.7526 138.59 81.3445 138.375 81.0521C138.159 80.7597 137.832 80.6135 137.395 80.6135C137.173 80.6135 136.979 80.6512 136.813 80.7264C136.65 80.8017 136.513 80.9103 136.402 81.0521C136.294 81.1939 136.212 81.3691 136.157 81.5775C136.105 81.783 136.078 82.016 136.078 82.2766C136.078 82.7976 136.186 83.2043 136.402 83.4967C136.621 83.7862 136.952 83.9309 137.395 83.9309Z" fill="#333E48"/>
<path d="M143.906 80.6657H142.205V84.4737H141.426V80.6657H139.725V80.0751H143.906V80.6657Z" fill="#333E48"/>
<path d="M146.92 82.4937C146.561 82.5053 146.255 82.5342 146.001 82.5805C145.75 82.6239 145.545 82.6818 145.384 82.7542C145.227 82.8266 145.112 82.912 145.039 83.0104C144.969 83.1088 144.934 83.2188 144.934 83.3404C144.934 83.4562 144.953 83.556 144.991 83.64C145.029 83.7239 145.08 83.7934 145.144 83.8484C145.211 83.9005 145.288 83.9396 145.376 83.9657C145.466 83.9888 145.562 84.0004 145.664 84.0004C145.801 84.0004 145.927 83.9874 146.04 83.9613C146.154 83.9324 146.261 83.8918 146.36 83.8397C146.462 83.7876 146.558 83.7254 146.648 83.653C146.742 83.5807 146.832 83.4982 146.92 83.4055V82.4937ZM144.405 80.696C144.65 80.4616 144.914 80.2864 145.196 80.1707C145.479 80.0549 145.793 79.997 146.137 79.997C146.385 79.997 146.605 80.0375 146.797 80.1185C146.99 80.1996 147.151 80.3125 147.283 80.4572C147.414 80.602 147.513 80.7771 147.58 80.9826C147.647 81.1882 147.681 81.4139 147.681 81.66V84.4737H147.335C147.259 84.4737 147.201 84.4621 147.16 84.4389C147.119 84.4129 147.087 84.3637 147.064 84.2913L146.977 83.8745C146.86 83.9816 146.746 84.0771 146.635 84.161C146.525 84.2421 146.408 84.3116 146.285 84.3695C146.163 84.4245 146.032 84.4664 145.892 84.4954C145.755 84.5272 145.602 84.5432 145.433 84.5432C145.261 84.5432 145.099 84.52 144.947 84.4737C144.795 84.4245 144.663 84.3521 144.549 84.2566C144.438 84.161 144.349 84.0409 144.282 83.8962C144.218 83.7486 144.186 83.5749 144.186 83.3751C144.186 83.2014 144.234 83.035 144.33 82.8758C144.427 82.7137 144.583 82.5704 144.798 82.4459C145.014 82.3214 145.295 82.2201 145.642 82.142C145.989 82.0609 146.415 82.0146 146.92 82.003V81.66C146.92 81.3184 146.845 81.0608 146.697 80.8871C146.548 80.7105 146.331 80.6222 146.045 80.6222C145.852 80.6222 145.691 80.6468 145.559 80.696C145.431 80.7424 145.319 80.7959 145.223 80.8567C145.129 80.9146 145.048 80.9682 144.978 81.0174C144.911 81.0637 144.844 81.0868 144.776 81.0868C144.724 81.0868 144.679 81.0738 144.641 81.0478C144.603 81.0188 144.571 80.9841 144.545 80.9436L144.405 80.696Z" fill="#333E48"/>
<path d="M151.745 81.7946C151.745 81.6151 151.718 81.4516 151.666 81.3039C151.616 81.1534 151.542 81.0246 151.443 80.9175C151.347 80.8075 151.228 80.7235 151.089 80.6657C150.949 80.6049 150.79 80.5745 150.612 80.5745C150.239 80.5745 149.943 80.683 149.724 80.9001C149.508 81.1143 149.374 81.4125 149.321 81.7946H151.745ZM152.374 83.8571C152.278 83.9729 152.163 84.0742 152.029 84.161C151.895 84.245 151.75 84.3145 151.596 84.3695C151.444 84.4245 151.287 84.465 151.123 84.4911C150.96 84.52 150.798 84.5345 150.638 84.5345C150.332 84.5345 150.049 84.4838 149.789 84.3825C149.533 84.2783 149.31 84.1278 149.12 83.9309C148.934 83.7312 148.788 83.4851 148.683 83.1928C148.578 82.9004 148.525 82.5646 148.525 82.1854C148.525 81.8786 148.572 81.592 148.665 81.3256C148.762 81.0593 148.899 80.8292 149.077 80.6353C149.254 80.4384 149.472 80.285 149.728 80.175C149.985 80.0621 150.273 80.0057 150.594 80.0057C150.86 80.0057 151.105 80.0505 151.329 80.1403C151.556 80.2271 151.752 80.3545 151.915 80.5224C152.081 80.6874 152.211 80.8929 152.304 81.1389C152.398 81.3821 152.444 81.66 152.444 81.9726C152.444 82.0942 152.431 82.1753 152.405 82.2158C152.379 82.2563 152.329 82.2766 152.256 82.2766H149.295C149.304 82.5545 149.342 82.7962 149.409 83.0017C149.479 83.2072 149.575 83.3795 149.698 83.5184C149.82 83.6545 149.966 83.7572 150.135 83.8267C150.304 83.8933 150.494 83.9266 150.704 83.9266C150.899 83.9266 151.067 83.9049 151.207 83.8614C151.349 83.8151 151.472 83.7659 151.574 83.7138C151.676 83.6617 151.761 83.6139 151.828 83.5705C151.898 83.5242 151.957 83.501 152.007 83.501C152.071 83.501 152.121 83.5257 152.156 83.5749L152.374 83.8571Z" fill="#333E48"/>
<path d="M158.251 80.0621V84.4737H157.547V81.5514C157.547 81.4704 157.551 81.3806 157.56 81.2822C157.572 81.1809 157.586 81.0868 157.604 81L156.064 83.6791C156.041 83.7225 156.01 83.7572 155.972 83.7833C155.935 83.8093 155.891 83.8224 155.841 83.8224H155.754C155.704 83.8224 155.659 83.8093 155.618 83.7833C155.58 83.7572 155.55 83.7225 155.526 83.6791L153.961 80.9913C153.975 81.0782 153.988 81.1737 154 81.2779C154.012 81.3792 154.017 81.4704 154.017 81.5514V84.4737H153.313V80.0621H153.939C153.994 80.0621 154.048 80.0751 154.1 80.1012C154.153 80.1243 154.198 80.1692 154.236 80.2358L155.618 82.5284C155.685 82.6616 155.745 82.802 155.798 82.9496C155.847 82.7962 155.905 82.6558 155.972 82.5284L157.328 80.2358C157.366 80.1663 157.411 80.12 157.464 80.0968C157.516 80.0737 157.57 80.0621 157.626 80.0621H158.251Z" fill="#333E48"/>
<path d="M160.329 78.2514V80.7351C160.329 80.8654 160.327 80.9928 160.321 81.1172C160.315 81.2417 160.308 81.3676 160.299 81.495C160.29 81.6195 160.278 81.7483 160.264 81.8814C160.252 82.0117 160.238 82.1521 160.22 82.3026H159.695C159.678 82.1521 159.662 82.0117 159.647 81.8814C159.635 81.7483 159.625 81.6195 159.617 81.495C159.608 81.3676 159.6 81.2417 159.595 81.1172C159.589 80.9928 159.586 80.8654 159.586 80.7351V78.2514H160.329ZM159.398 83.996C159.398 83.9208 159.411 83.8499 159.437 83.7833C159.466 83.7167 159.506 83.6588 159.555 83.6096C159.605 83.5604 159.662 83.5213 159.726 83.4924C159.793 83.4634 159.866 83.4489 159.945 83.4489C160.02 83.4489 160.09 83.4634 160.155 83.4924C160.222 83.5213 160.28 83.5604 160.329 83.6096C160.379 83.6588 160.418 83.7167 160.448 83.7833C160.477 83.8499 160.491 83.9208 160.491 83.996C160.491 84.0742 160.477 84.1466 160.448 84.2132C160.418 84.2768 160.379 84.3333 160.329 84.3825C160.28 84.4317 160.222 84.4693 160.155 84.4954C160.09 84.5243 160.02 84.5388 159.945 84.5388C159.866 84.5388 159.793 84.5243 159.726 84.4954C159.662 84.4693 159.605 84.4317 159.555 84.3825C159.506 84.3333 159.466 84.2768 159.437 84.2132C159.411 84.1466 159.398 84.0742 159.398 83.996Z" fill="#333E48"/>
</svg>
