<svg width="81" height="26" fill="none" xmlns="http://www.w3.org/2000/svg"><path d="M.013 13.412h9.966V26H8.024V15.167H1.968V26H.013V13.412ZM15.381 22.933l6.696-9.521h1.54V26h-1.955v-9.344L15.07 26h-1.644V13.412h1.955v9.52ZM27.059 26V13.412h5.156c.554 0 1.061.118 1.522.354.473.237.877.55 1.212.94.334.378.594.816.778 1.312.196.485.295.981.295 1.49 0 .531-.093 1.046-.277 1.542A4.323 4.323 0 0 1 35 20.362a3.824 3.824 0 0 1-1.177.922c-.45.225-.952.337-1.505.337h-3.323V26H27.06Zm1.938-6.134h3.2c.278 0 .526-.06.745-.178.23-.118.427-.284.588-.496.161-.213.288-.461.38-.745.093-.284.139-.597.139-.94 0-.354-.052-.673-.156-.957a2.156 2.156 0 0 0-.432-.727 1.805 1.805 0 0 0-.64-.479 1.573 1.573 0 0 0-.727-.177h-3.098v4.699ZM46.905 24.245V26h-8.427V13.412h8.27v1.755h-6.331v3.582H45.9v1.648h-5.485v3.848h6.489ZM58.54 15.167h-4.084V26h-1.955V15.167h-4.1v-1.755H58.54v1.755ZM69.807 15.167h-4.084V26H63.77V15.167h-4.1v-1.755h10.138v1.755ZM74.46 13.412h1.695L81 26h-2.042l-1.298-3.422h-4.74L71.64 26h-2.06l4.88-12.588Zm2.82 7.695-1.973-5.408-2.041 5.408h4.014ZM4.512 3.099h-.648A1.41 1.41 0 0 0 2.872 2a1.735 1.735 0 0 0-.512-.075c-.323 0-.617.084-.88.253-.26.168-.469.417-.624.745-.153.328-.23.73-.23 1.208 0 .476.077.88.23 1.207.155.328.363.577.624.745.263.169.557.253.88.253.178 0 .348-.025.512-.075a1.48 1.48 0 0 0 .446-.223 1.4 1.4 0 0 0 .546-.875h.648a2.265 2.265 0 0 1-.267.756 2.05 2.05 0 0 1-.48.568 2.084 2.084 0 0 1-.645.352 2.34 2.34 0 0 1-.76.121c-.456 0-.861-.115-1.216-.344a2.341 2.341 0 0 1-.839-.98C.102 5.216 0 4.714 0 4.133c0-.581.102-1.084.305-1.507.204-.423.483-.75.839-.979.355-.23.76-.344 1.216-.344.27 0 .523.04.76.12a2.055 2.055 0 0 1 1.125.92c.13.221.218.473.267.757ZM5.558 6.886V1.377h3.227v.592h-2.58V3.83h2.413v.592H6.205v1.872h2.622v.592H5.558ZM9.66 1.969v-.592h4.01v.592H11.99v4.917h-.648V1.969H9.66ZM15.15 3.69h1.525c.383 0 .706.065.968.194.265.13.465.311.6.546.138.235.207.512.207.831 0 .32-.069.6-.206.845a1.418 1.418 0 0 1-.6.573c-.263.138-.586.207-.97.207H14.67V1.377h.648v4.928h1.358c.243 0 .45-.05.618-.15a1.045 1.045 0 0 0 .52-.904.914.914 0 0 0-.295-.681c-.197-.192-.478-.288-.843-.288H15.15V3.69ZM24.684 6.886l-1.838-2.529h-.658v2.529h-.647V1.377h.647v2.389h.282l2.141-2.389h.773l-2.162 2.421 2.235 3.088h-.773ZM30.554 4.132c0 .58-.101 1.083-.305 1.506a2.34 2.34 0 0 1-.838.979c-.355.23-.76.344-1.217.344-.456 0-.862-.115-1.217-.344a2.341 2.341 0 0 1-.838-.98c-.203-.422-.305-.924-.305-1.505 0-.581.102-1.084.305-1.507.204-.423.483-.75.838-.979.355-.23.761-.344 1.217-.344.456 0 .862.115 1.217.344.355.23.634.556.838.98.204.422.305.925.305 1.506Zm-.626 0c0-.477-.078-.88-.233-1.208a1.72 1.72 0 0 0-.624-.745 1.583 1.583 0 0 0-.877-.253c-.324 0-.617.084-.88.253-.261.168-.469.417-.624.745-.153.328-.23.73-.23 1.208 0 .476.077.88.23 1.207.155.328.363.577.624.745.263.169.556.253.88.253.324 0 .616-.084.877-.253a1.72 1.72 0 0 0 .624-.745c.155-.328.233-.73.233-1.207ZM31.643 1.377h.773l1.817 4.573h.063l1.817-4.573h.773v5.509h-.606V2.7h-.052l-1.671 4.185h-.585L32.301 2.7h-.052v4.185h-.606V1.377ZM42.184 1.377v5.509h-.648V1.969h-2.694v4.917h-.648V1.377h3.99ZM43.71 6.886h-.68l1.964-5.509h.668l1.964 5.509h-.68L45.35 2.249h-.042L43.71 6.886Zm.25-2.152h2.736v.592H43.96v-.592ZM48.459 6.886V1.377h.647V3.83h2.851V1.377h.648v5.509h-.648V4.422h-2.85v2.464h-.648ZM53.901 1.377h.637v4.336h.052l2.925-4.336h.626v5.509h-.647V2.56h-.053l-2.913 4.325H53.9V1.377ZM59.437 1.377h.637v4.336h.052l2.924-4.336h.627v5.509h-.647V2.56h-.053l-2.913 4.325h-.627V1.377ZM62.069 0h.574c0 .29-.097.528-.292.713-.195.184-.46.277-.794.277-.329 0-.59-.093-.786-.277a.942.942 0 0 1-.29-.713h.575c0 .14.037.263.112.368.077.106.206.16.389.16.183 0 .313-.054.392-.16a.594.594 0 0 0 .12-.368Z" fill="#fff"/></svg>