<svg width="167" height="90" fill="none" xmlns="http://www.w3.org/2000/svg"><path d="M67.202 55.046H78.7v13.995h-2.255V56.998h-6.987V69.04h-2.256V55.046ZM84.933 65.631l7.725-10.585h1.777v13.995H92.18V58.654L84.574 69.04h-1.897V55.046h2.256v10.585ZM98.406 69.041V55.046h5.948c.64 0 1.225.132 1.757.395a4.391 4.391 0 0 1 1.397 1.044c.387.42.686.907.899 1.459.226.539.339 1.09.339 1.656 0 .591-.106 1.163-.319 1.715a4.775 4.775 0 0 1-.858 1.458c-.373.42-.826.762-1.358 1.025a3.955 3.955 0 0 1-1.737.375h-3.833v4.868h-2.235Zm2.235-6.82h3.693c.32 0 .606-.065.859-.197.266-.131.493-.315.679-.552a2.76 2.76 0 0 0 .439-.828c.106-.315.159-.663.159-1.044 0-.395-.059-.75-.179-1.065a2.398 2.398 0 0 0-.499-.808 2.08 2.08 0 0 0-.739-.532 1.867 1.867 0 0 0-.838-.197h-3.574v5.223ZM121.302 67.09v1.951h-9.721V55.046h9.542v1.952h-7.306v3.981h6.328v1.834h-6.328v4.277h7.485ZM134.726 56.998h-4.711V69.04h-2.256V56.998h-4.731v-1.952h11.698v1.952ZM147.725 56.998h-4.711V69.04h-2.255V56.998h-4.731v-1.952h11.697v1.952ZM153.093 55.046h1.956l5.59 13.995h-2.356l-1.497-3.804h-5.47l-1.476 3.804h-2.376l5.629-13.995Zm3.254 8.555-2.276-6.012-2.355 6.012h4.631Z" fill="#fff"/><path d="M7.862 66.763H5.567v2.278h2.295v-2.278ZM7.862 63.834H5.567v2.278h2.295v-2.278ZM7.862 60.905H5.567v2.278h2.295v-2.278ZM7.862 57.975H5.567v2.279h2.295v-2.279ZM7.862 55.046H5.567v2.279h2.295v-2.279ZM7.862 52.117H5.567v2.278h2.295v-2.278ZM7.862 49.188H5.567v2.278h2.295v-2.278ZM7.862 46.259H5.567v2.278h2.295v-2.278ZM7.862 43.33H5.567v2.278h2.295v-2.279ZM7.862 40.4H5.567v2.278h2.295V40.4ZM7.862 37.47H5.567v2.28h2.295v-2.28ZM7.862 34.541H5.567v2.279h2.295V34.54ZM7.862 31.612H5.567v2.279h2.295v-2.279ZM7.862 28.683H5.567v2.278h2.295v-2.278ZM7.862 22.5H5.567v2.277h2.295V22.5ZM7.862 16.315H5.567v2.278h2.295v-2.278ZM7.862 9.48H5.567v2.279h2.295V9.48ZM7.862 3.947H5.567v2.279h2.295V3.947ZM22.615 34.541h-2.294v2.279h2.294V34.54ZM22.615 31.612h-2.294v2.279h2.294v-2.279ZM22.615 26.405h-2.294v2.278h2.294v-2.278ZM22.615 21.523h-2.294V23.8h2.294v-2.278ZM48.843 66.763h-2.295v2.278h2.295v-2.278ZM48.843 63.834h-2.295v2.278h2.295v-2.278ZM48.843 60.905h-2.295v2.278h2.295v-2.278ZM48.843 57.975h-2.295v2.279h2.295v-2.279ZM48.843 55.046h-2.295v2.279h2.295v-2.279ZM48.843 52.117h-2.295v2.278h2.295v-2.278ZM48.843 49.188h-2.295v2.278h2.295v-2.278ZM48.843 46.259h-2.295v2.278h2.295v-2.278ZM48.843 43.33h-2.295v2.278h2.295v-2.279ZM48.843 40.4h-2.295v2.278h2.295V40.4ZM48.843 37.47h-2.295v2.28h2.295v-2.28ZM48.843 34.541h-2.295v2.279h2.295V34.54ZM48.843 31.612h-2.295v2.279h2.295v-2.279ZM48.843 28.683h-2.295v2.278h2.295v-2.278ZM48.843 25.754h-2.295v2.278h2.295v-2.278ZM48.843 22.825h-2.295v2.278h2.295v-2.278ZM48.843 19.244h-2.295v2.279h2.295v-2.279ZM10.813 66.763H8.518v2.278h2.295v-2.278ZM10.813 63.834H8.518v2.278h2.295v-2.278ZM10.813 60.905H8.518v2.278h2.295v-2.278ZM10.813 57.975H8.518v2.279h2.295v-2.279ZM10.813 55.046H8.518v2.279h2.295v-2.279ZM10.813 52.117H8.518v2.278h2.295v-2.278ZM10.813 49.188H8.518v2.278h2.295v-2.278ZM10.813 46.259H8.518v2.278h2.295v-2.278ZM10.813 43.33H8.518v2.278h2.295v-2.279ZM10.813 40.4H8.518v2.278h2.295V40.4ZM10.813 37.47H8.518v2.28h2.295v-2.28ZM10.813 34.541H8.518v2.279h2.295V34.54ZM10.813 31.287H8.518v2.278h2.295v-2.278ZM10.813 26.08H8.518v2.278h2.295v-2.279ZM10.813 18.919H8.518v2.278h2.295V18.92ZM10.813 12.41H8.518v2.278h2.295V12.41ZM25.565 34.541H23.27v2.279h2.295V34.54ZM25.565 31.612H23.27v2.279h2.295v-2.279ZM25.565 28.683H23.27v2.278h2.295v-2.278ZM25.565 23.801H23.27v2.278h2.295v-2.278ZM25.565 15.664H23.27v2.279h2.295v-2.279ZM37.368 34.541h-2.295v2.279h2.295V34.54ZM37.368 31.612h-2.295v2.279h2.295v-2.279ZM37.368 26.405h-2.295v2.278h2.295v-2.278ZM37.368 21.197h-2.295v2.279h2.295v-2.279ZM51.792 66.763h-2.295v2.278h2.295v-2.278ZM51.792 63.834h-2.295v2.278h2.295v-2.278ZM51.792 60.905h-2.295v2.278h2.295v-2.278ZM51.792 57.975h-2.295v2.279h2.295v-2.279ZM51.792 55.046h-2.295v2.279h2.295v-2.279ZM51.792 52.117h-2.295v2.278h2.295v-2.278ZM51.792 49.188h-2.295v2.278h2.295v-2.278ZM51.792 46.259h-2.295v2.278h2.295v-2.278ZM51.792 43.33h-2.295v2.278h2.295v-2.279ZM51.792 40.4h-2.295v2.278h2.295V40.4ZM51.792 37.47h-2.295v2.28h2.295v-2.28ZM51.792 34.541h-2.295v2.279h2.295V34.54ZM51.792 31.612h-2.295v2.279h2.295v-2.279ZM51.792 28.683h-2.295v2.278h2.295v-2.278ZM51.792 25.754h-2.295v2.278h2.295v-2.278ZM51.792 22.825h-2.295v2.278h2.295v-2.278ZM13.762 66.763h-2.295v2.278h2.295v-2.278ZM13.762 63.834h-2.295v2.278h2.295v-2.278ZM13.762 60.905h-2.295v2.278h2.295v-2.278ZM13.762 57.975h-2.295v2.279h2.295v-2.279ZM13.762 55.046h-2.295v2.279h2.295v-2.279ZM13.762 52.117h-2.295v2.278h2.295v-2.278ZM13.762 49.188h-2.295v2.278h2.295v-2.278ZM13.762 46.259h-2.295v2.278h2.295v-2.278ZM13.762 43.33h-2.295v2.278h2.295v-2.279ZM13.762 40.4h-2.295v2.278h2.295V40.4ZM13.762 37.47h-2.295v2.28h2.295v-2.28ZM13.762 34.541h-2.295v2.279h2.295V34.54ZM13.762 31.612h-2.295v2.279h2.295v-2.279ZM13.762 28.032h-2.295v2.279h2.295v-2.279ZM13.762 22.174h-2.295v2.278h2.295v-2.278ZM13.762 15.664h-2.295v2.279h2.295v-2.279ZM13.762 7.202h-2.295V9.48h2.295V7.202ZM28.516 34.541h-2.295v2.279h2.295V34.54ZM28.516 31.612h-2.295v2.279h2.295v-2.279ZM28.516 28.358h-2.295v2.278h2.295v-2.278ZM28.516 24.778h-2.295v2.278h2.295v-2.278ZM28.516 19.895h-2.295v2.279h2.295v-2.279ZM40.319 34.541h-2.295v2.279h2.295V34.54ZM40.319 31.612h-2.295v2.279h2.295v-2.279ZM40.319 28.683h-2.295v2.278h2.295v-2.278ZM40.319 25.754h-2.295v2.278h2.295v-2.278ZM40.319 18.593h-2.295v2.279h2.295v-2.279ZM54.743 66.763h-2.295v2.278h2.295v-2.278ZM54.743 63.834h-2.295v2.278h2.295v-2.278ZM54.743 60.905h-2.295v2.278h2.295v-2.278ZM54.743 57.975h-2.295v2.279h2.295v-2.279ZM54.743 55.046h-2.295v2.279h2.295v-2.279ZM54.743 52.117h-2.295v2.278h2.295v-2.278ZM54.743 49.188h-2.295v2.278h2.295v-2.278ZM54.743 46.259h-2.295v2.278h2.295v-2.278ZM54.743 43.33h-2.295v2.278h2.295v-2.279ZM54.743 40.4h-2.295v2.278h2.295V40.4ZM54.743 37.47h-2.295v2.28h2.295v-2.28ZM54.743 34.541h-2.295v2.279h2.295V34.54ZM54.743 31.612h-2.295v2.279h2.295v-2.279ZM54.743 28.683h-2.295v2.278h2.295v-2.278ZM54.743 25.754h-2.295v2.278h2.295v-2.278ZM54.743 19.895h-2.295v2.279h2.295v-2.279ZM16.713 66.763h-2.295v2.278h2.295v-2.278ZM16.713 63.834h-2.295v2.278h2.295v-2.278ZM16.713 60.905h-2.295v2.278h2.295v-2.278ZM16.713 57.975h-2.295v2.279h2.295v-2.279ZM16.713 55.046h-2.295v2.279h2.295v-2.279ZM16.713 52.117h-2.295v2.278h2.295v-2.278ZM16.713 49.188h-2.295v2.278h2.295v-2.278ZM16.713 46.259h-2.295v2.278h2.295v-2.278ZM16.713 43.33h-2.295v2.278h2.295v-2.279ZM16.713 40.4h-2.295v2.278h2.295V40.4ZM16.713 37.47h-2.295v2.28h2.295v-2.28ZM16.713 34.541h-2.295v2.279h2.295V34.54ZM16.713 31.612h-2.295v2.279h2.295v-2.279ZM16.713 28.683h-2.295v2.278h2.295v-2.278ZM16.713 25.754h-2.295v2.278h2.295v-2.278ZM16.713 22.825h-2.295v2.278h2.295v-2.278ZM16.713 19.895h-2.295v2.279h2.295v-2.279ZM16.713 16.966h-2.295v2.279h2.295v-2.279ZM16.713 11.108h-2.295v2.278h2.295v-2.278ZM31.467 34.541h-2.295v2.279h2.295V34.54ZM31.467 31.612h-2.295v2.279h2.295v-2.279ZM31.467 27.381h-2.295v2.279h2.295V27.38ZM31.467 21.197h-2.295v2.279h2.295v-2.279ZM43.268 34.541h-2.295v2.279h2.295V34.54ZM43.268 31.612h-2.295v2.279h2.295v-2.279ZM43.268 28.683h-2.295v2.278h2.295v-2.278ZM43.268 24.452h-2.295v2.278h2.295v-2.278ZM43.268 19.895h-2.295v2.279h2.295v-2.279ZM57.694 66.763H55.4v2.278h2.294v-2.278ZM57.694 63.834H55.4v2.278h2.294v-2.278ZM57.694 60.905H55.4v2.278h2.294v-2.278ZM57.694 57.975H55.4v2.279h2.294v-2.279ZM57.694 55.046H55.4v2.279h2.294v-2.279ZM57.694 52.117H55.4v2.278h2.294v-2.278ZM57.694 49.188H55.4v2.278h2.294v-2.278ZM57.694 46.259H55.4v2.278h2.294v-2.278ZM57.694 43.33H55.4v2.278h2.294v-2.279ZM57.694 40.4H55.4v2.278h2.294V40.4ZM57.694 37.47H55.4v2.28h2.294v-2.28ZM57.694 34.541H55.4v2.279h2.294V34.54ZM57.694 31.612H55.4v2.279h2.294v-2.279ZM57.694 28.683H55.4v2.278h2.294v-2.278ZM57.694 25.754H55.4v2.278h2.294v-2.278ZM57.694 22.825H55.4v2.278h2.294v-2.278ZM19.664 66.763H17.37v2.278h2.295v-2.278ZM19.664 63.834H17.37v2.278h2.295v-2.278ZM19.664 60.905H17.37v2.278h2.295v-2.278ZM19.664 57.975H17.37v2.279h2.295v-2.279ZM19.664 55.046H17.37v2.279h2.295v-2.279ZM19.664 52.117H17.37v2.278h2.295v-2.278ZM19.664 49.188H17.37v2.278h2.295v-2.278ZM19.664 46.259H17.37v2.278h2.295v-2.278ZM19.664 43.33H17.37v2.278h2.295v-2.279ZM19.664 40.4H17.37v2.278h2.295V40.4ZM19.664 37.47H17.37v2.28h2.295v-2.28ZM19.664 34.541H17.37v2.279h2.295V34.54ZM19.664 31.612H17.37v2.279h2.295v-2.279ZM19.664 27.707H17.37v2.278h2.295v-2.278ZM19.664 19.895H17.37v2.279h2.295v-2.279ZM19.664 14.037H17.37v2.278h2.295v-2.278ZM34.417 34.541h-2.295v2.279h2.295V34.54ZM34.417 31.612h-2.295v2.279h2.295v-2.279ZM34.417 28.683h-2.295v2.278h2.295v-2.278ZM34.417 23.476h-2.295v2.278h2.295v-2.278ZM34.417 16.966h-2.295v2.279h2.295v-2.279ZM46.22 34.541h-2.295v2.279h2.294V34.54ZM46.22 31.612h-2.295v2.279h2.294v-2.279ZM46.22 28.358h-2.295v2.278h2.294v-2.278ZM46.22 22.825h-2.295v2.278h2.294v-2.278ZM60.645 66.763h-2.294v2.278h2.294v-2.278ZM60.645 63.834h-2.294v2.278h2.294v-2.278ZM60.645 60.905h-2.294v2.278h2.294v-2.278ZM60.645 57.975h-2.294v2.279h2.294v-2.279ZM60.645 55.046h-2.294v2.279h2.294v-2.279ZM60.645 52.117h-2.294v2.278h2.294v-2.278ZM60.645 49.188h-2.294v2.278h2.294v-2.278ZM60.645 46.259h-2.294v2.278h2.294v-2.278ZM60.645 43.33h-2.294v2.278h2.294v-2.279ZM60.645 40.4h-2.294v2.278h2.294V40.4ZM60.645 37.47h-2.294v2.28h2.294v-2.28ZM60.645 34.541h-2.294v2.279h2.294V34.54ZM60.645 31.612h-2.294v2.279h2.294v-2.279ZM60.645 28.683h-2.294v2.278h2.294v-2.278ZM60.645 25.754h-2.294v2.278h2.294v-2.278Z" fill="#E2231A"/><path d="M72.393 43.58h-.747a1.535 1.535 0 0 0-.63-.969 1.693 1.693 0 0 0-.515-.25 2.072 2.072 0 0 0-.59-.085c-.374 0-.712.094-1.016.281a1.96 1.96 0 0 0-.72.829c-.176.365-.265.812-.265 1.342s.089.978.265 1.343c.18.365.42.641.72.829.304.187.642.28 1.016.28.204 0 .401-.027.59-.083.189-.056.36-.139.515-.248a1.58 1.58 0 0 0 .63-.972h.747a2.459 2.459 0 0 1-.308.84 2.303 2.303 0 0 1-1.298 1.023c-.273.09-.565.134-.877.134a2.6 2.6 0 0 1-1.403-.382 2.632 2.632 0 0 1-.967-1.089c-.235-.47-.353-1.029-.353-1.675 0-.645.118-1.204.353-1.674s.557-.833.967-1.089a2.6 2.6 0 0 1 1.403-.382c.312 0 .604.044.877.134.275.09.523.221.744.395.221.171.406.38.554.628.149.245.251.525.308.84ZM73.6 47.79v-6.124h3.723v.658h-2.976v2.07h2.783v.657h-2.783v2.082h3.024v.658H73.6ZM78.332 42.324v-.658h4.627v.658h-1.94v5.467h-.747v-5.467h-1.94ZM84.666 44.238h1.76c.441 0 .814.072 1.117.215.305.144.536.346.693.607.158.262.238.57.238.924 0 .355-.08.668-.238.94a1.611 1.611 0 0 1-.693.636c-.303.154-.676.23-1.118.23h-2.313v-6.124h.747v5.479h1.566c.282 0 .52-.056.714-.168a1.17 1.17 0 0 0 .446-.436c.103-.18.154-.37.154-.568a.999.999 0 0 0-.34-.757c-.228-.213-.552-.32-.974-.32h-1.759v-.658ZM95.666 47.79l-2.12-2.81h-.76v2.81h-.746v-6.124h.746v2.656h.326l2.47-2.656h.892l-2.495 2.692 2.579 3.433h-.892ZM102.439 44.728c0 .646-.118 1.205-.353 1.675a2.63 2.63 0 0 1-.967 1.089 2.596 2.596 0 0 1-1.403.383c-.527 0-.995-.128-1.404-.383a2.633 2.633 0 0 1-.967-1.089c-.235-.47-.353-1.029-.353-1.675 0-.645.118-1.204.353-1.674s.557-.833.967-1.089c.41-.255.877-.382 1.404-.382.526 0 .994.127 1.403.382.41.256.732.618.967 1.089.235.47.353 1.029.353 1.674Zm-.723 0c0-.53-.09-.977-.268-1.342a1.936 1.936 0 0 0-.72-.829 1.88 1.88 0 0 0-1.012-.28c-.374 0-.712.093-1.016.28a1.959 1.959 0 0 0-.72.829c-.176.365-.265.812-.265 1.342s.089.978.265 1.343c.18.365.42.641.72.829.304.187.642.28 1.016.28.373 0 .71-.093 1.012-.28.303-.188.543-.464.72-.829.178-.365.268-.812.268-1.343ZM103.695 41.666h.891l2.097 5.084h.072l2.097-5.084h.891v6.125h-.699v-4.653h-.06l-1.928 4.653h-.674l-1.928-4.653h-.06v4.653h-.699v-6.125ZM115.856 41.666v6.125h-.747v-5.467H112v5.467h-.747v-6.125h4.603ZM117.616 47.79h-.783l2.265-6.124h.771l2.265 6.125h-.783l-1.843-5.156h-.049l-1.843 5.156Zm.289-2.392h3.157v.658h-3.157v-.658ZM123.095 47.79v-6.124h.747v2.728h3.29v-2.728h.747v6.125h-.747v-2.74h-3.29v2.74h-.747ZM129.374 41.666h.735v4.82h.061l3.373-4.82h.723v6.125h-.747v-4.809h-.06l-3.362 4.809h-.723v-6.125ZM135.761 41.666h.735v4.82h.06l3.374-4.82h.723v6.125h-.747v-4.809h-.06l-3.362 4.809h-.723v-6.125Zm3.036-1.53h.663c0 .322-.112.586-.337.792-.225.205-.53.308-.916.308-.379 0-.682-.103-.907-.308a1.028 1.028 0 0 1-.334-.793h.663c0 .156.043.292.129.41.089.117.238.176.449.176.211 0 .362-.058.452-.176a.646.646 0 0 0 .138-.41ZM12.888 78.251v6.223h-.743V79.9c0-.06.001-.126.004-.195l.018-.213-2.152 3.89c-.067.131-.17.196-.306.196h-.123c-.137 0-.239-.065-.306-.195l-2.196-3.908c.018.153.027.295.027.425v4.573h-.744V78.25h.626c.075 0 .134.008.174.022.041.015.08.055.119.122l2.165 3.83c.035.069.068.141.1.217.035.075.067.152.096.23.03-.078.06-.155.092-.23.032-.079.067-.152.105-.222l2.126-3.825c.035-.067.073-.107.114-.122a.59.59 0 0 1 .179-.022h.625ZM15.853 83.91c.157 0 .293-.02.407-.057a.82.82 0 0 0 .288-.165.704.704 0 0 0 .171-.252.84.84 0 0 0 .057-.313.857.857 0 0 0-.048-.29.586.586 0 0 0-.162-.244.769.769 0 0 0-.289-.165c-.12-.04-.265-.06-.437-.06h-.945v1.545h.958Zm-.013-2.111c.306 0 .563.036.77.108.21.073.377.17.503.291.128.122.22.262.275.422a1.495 1.495 0 0 1-.022 1.042 1.19 1.19 0 0 1-.31.43 1.527 1.527 0 0 1-.508.282c-.2.066-.433.1-.695.1h-1.701v-4.399h.743V81.8h.945Zm3.385-1.724v4.399h-.778v-4.399h.778ZM26.22 84.474h-.784v-3.808h-2.125v3.808h-.783v-4.399h3.691v4.399ZM28.152 83.414c.143.191.3.326.468.404.17.078.359.117.569.117.414 0 .732-.146.953-.438.222-.293.333-.71.333-1.25 0-.287-.027-.533-.079-.739a1.388 1.388 0 0 0-.219-.504.853.853 0 0 0-.354-.29 1.185 1.185 0 0 0-.477-.092c-.253 0-.476.058-.669.174-.19.116-.364.28-.525.49v2.128Zm-.04-2.657c.188-.229.403-.413.648-.552.245-.139.525-.208.84-.208.257 0 .488.05.695.148.207.095.384.238.53.43.145.188.258.422.336.703.08.28.118.603.118.968 0 .324-.043.627-.13.908-.088.278-.215.52-.381.725a1.783 1.783 0 0 1-.604.482 1.794 1.794 0 0 1-.8.173c-.271 0-.505-.044-.7-.134a1.677 1.677 0 0 1-.512-.382v1.945h-.783v-5.888h.468c.111 0 .18.054.206.16l.07.522ZM34.044 80.006c.324 0 .616.053.875.16.26.107.481.26.665.456.184.197.324.436.42.717.099.278.149.589.149.933 0 .348-.05.66-.15.938a1.876 1.876 0 0 1-1.085 1.168 2.33 2.33 0 0 1-.874.156c-.326 0-.62-.052-.883-.156a1.876 1.876 0 0 1-.665-.456 2.026 2.026 0 0 1-.424-.712 2.856 2.856 0 0 1-.145-.938c0-.344.049-.655.145-.933.099-.281.24-.52.424-.717.184-.197.405-.349.665-.456.262-.107.557-.16.883-.16Zm0 3.925c.438 0 .764-.145.98-.434.216-.293.324-.7.324-1.22 0-.524-.108-.933-.324-1.225-.216-.292-.542-.439-.98-.439a1.4 1.4 0 0 0-.581.113c-.164.076-.3.184-.412.326a1.49 1.49 0 0 0-.244.525 2.831 2.831 0 0 0-.08.7c0 .52.109.927.325 1.22.218.29.55.434.992.434ZM40.136 80.857a.343.343 0 0 1-.07.073.158.158 0 0 1-.096.027.268.268 0 0 1-.145-.052 1.976 1.976 0 0 0-.196-.122 1.398 1.398 0 0 0-.696-.174c-.218 0-.41.04-.577.117a1.109 1.109 0 0 0-.42.33c-.11.145-.195.32-.254.526a2.654 2.654 0 0 0-.083.69c0 .267.03.504.092.712.061.206.147.38.258.521.114.14.25.246.407.322.16.072.34.108.538.108.19 0 .346-.022.468-.065.122-.046.223-.097.302-.152.081-.055.148-.104.2-.148a.256.256 0 0 1 .163-.069c.064 0 .114.025.148.074l.22.282c-.097.119-.206.22-.329.304a2.086 2.086 0 0 1-.84.334c-.154.026-.312.04-.472.04-.277 0-.535-.051-.774-.153a1.776 1.776 0 0 1-.617-.438 2.084 2.084 0 0 1-.411-.712c-.1-.28-.149-.6-.149-.96 0-.327.045-.63.136-.907.093-.278.227-.517.402-.717.178-.202.395-.36.652-.473.26-.113.557-.17.892-.17.312 0 .586.051.822.153.24.098.45.238.635.42l-.206.279ZM44.825 80.666h-1.701v3.808h-.779v-3.808h-1.701v-.59h4.181v.59ZM47.168 80.006c.324 0 .615.053.875.16.26.107.481.26.665.456.184.197.324.436.42.717.099.278.148.589.148.933 0 .348-.05.66-.148.938a1.876 1.876 0 0 1-1.085 1.168 2.33 2.33 0 0 1-.875.156c-.326 0-.62-.052-.883-.156a1.876 1.876 0 0 1-.665-.456 2.028 2.028 0 0 1-.424-.712 2.856 2.856 0 0 1-.145-.938c0-.344.048-.655.145-.933.099-.281.24-.52.424-.717.184-.197.405-.349.665-.456.262-.107.557-.16.883-.16Zm0 3.925c.438 0 .764-.145.98-.434.216-.293.324-.7.324-1.22 0-.524-.108-.933-.324-1.225-.216-.292-.542-.439-.98-.439a1.4 1.4 0 0 0-.581.113c-.164.076-.3.184-.412.326a1.49 1.49 0 0 0-.245.525 2.831 2.831 0 0 0-.078.7c0 .52.108.927.323 1.22.219.29.55.434.993.434ZM55.594 80.075v4.399h-.778v-1.867c-.38.098-.736.16-1.072.186a2.453 2.453 0 0 1-.875-.078 1.145 1.145 0 0 1-.59-.395c-.143-.191-.214-.454-.214-.79v-1.455h.782v1.337c0 .212.043.378.127.5a.672.672 0 0 0 .38.252c.167.046.373.059.618.039a5.81 5.81 0 0 0 .844-.144v-1.984h.778ZM59.707 81.795c0-.18-.026-.343-.079-.491a1.038 1.038 0 0 0-.577-.638 1.186 1.186 0 0 0-.477-.091c-.373 0-.669.108-.888.325-.215.214-.35.512-.402.895h2.423Zm.63 2.062a1.516 1.516 0 0 1-.346.304 2.21 2.21 0 0 1-.433.209c-.151.054-.309.095-.472.121a2.781 2.781 0 0 1-.486.043c-.306 0-.589-.05-.848-.152a1.92 1.92 0 0 1-.67-.451 2.11 2.11 0 0 1-.437-.738 2.973 2.973 0 0 1-.157-1.008c0-.306.047-.593.14-.86.096-.266.233-.496.41-.69.179-.197.396-.35.653-.46.256-.113.545-.17.866-.17.265 0 .51.046.734.135.228.087.423.215.587.382.166.165.295.37.389.617.093.243.14.521.14.834 0 .121-.013.202-.04.243-.026.04-.075.06-.148.06h-2.961c.008.279.046.52.113.726.07.205.167.377.289.516.123.136.268.24.437.309.17.066.36.1.569.1.195 0 .363-.022.503-.066a2.53 2.53 0 0 0 .621-.29c.07-.047.13-.07.18-.07.063 0 .113.025.148.074l.219.282ZM64.36 80.857a.343.343 0 0 1-.07.073.158.158 0 0 1-.097.027.268.268 0 0 1-.144-.052 1.988 1.988 0 0 0-.197-.122 1.398 1.398 0 0 0-.696-.174c-.218 0-.41.04-.577.117a1.109 1.109 0 0 0-.42.33c-.11.145-.195.32-.254.526a2.654 2.654 0 0 0-.083.69c0 .267.03.504.092.712.061.206.147.38.258.521.114.14.25.246.407.322.16.072.34.108.538.108.19 0 .346-.022.468-.065.122-.046.223-.097.302-.152.081-.055.148-.104.2-.148a.256.256 0 0 1 .163-.069c.064 0 .114.025.148.074l.22.282c-.097.119-.206.22-.329.304a2.087 2.087 0 0 1-.84.334c-.154.026-.312.04-.472.04-.277 0-.535-.051-.774-.153a1.778 1.778 0 0 1-.617-.438 2.084 2.084 0 0 1-.411-.712c-.1-.28-.149-.6-.149-.96 0-.327.045-.63.136-.907.093-.278.227-.517.402-.717.178-.202.395-.36.652-.473.26-.113.557-.17.892-.17.312 0 .586.051.823.153.239.098.45.238.634.42l-.206.279ZM69.048 80.666h-1.701v3.808h-.779v-3.808h-1.701v-.59h4.181v.59ZM73.394 80.075v4.399h-.782v-2.059h-2.126v2.059h-.783v-4.399h.783v1.754h2.126v-1.754h.782ZM76.412 80.006c.324 0 .615.053.875.16.26.107.481.26.665.456.183.197.323.436.42.717.099.278.148.589.148.933 0 .348-.05.66-.148.938a1.876 1.876 0 0 1-1.085 1.168 2.33 2.33 0 0 1-.875.156c-.326 0-.62-.052-.883-.156a1.876 1.876 0 0 1-.665-.456 2.026 2.026 0 0 1-.424-.712 2.853 2.853 0 0 1-.145-.938c0-.344.048-.655.145-.933.099-.281.24-.52.424-.717.184-.197.405-.349.665-.456a2.32 2.32 0 0 1 .883-.16Zm0 3.925c.438 0 .764-.145.98-.434.216-.293.324-.7.324-1.22 0-.524-.108-.933-.324-1.225-.216-.292-.542-.439-.98-.439a1.4 1.4 0 0 0-.582.113c-.163.076-.3.184-.41.326a1.49 1.49 0 0 0-.246.525 2.831 2.831 0 0 0-.078.7c0 .52.108.927.323 1.22.22.29.55.434.993.434ZM85.372 80.075v4.399h-.779v-2.988c0-.058.003-.12.01-.186.005-.067.012-.134.021-.2a2.783 2.783 0 0 1-.079.16 1.2 1.2 0 0 1-.083.135l-2.139 2.888a.743.743 0 0 1-.122.134c-.047.04-.1.061-.157.061h-.473V80.08h.783v2.987c0 .055-.003.116-.009.182a5.24 5.24 0 0 1-.022.196 2.44 2.44 0 0 1 .158-.287l2.139-2.888a.64.64 0 0 1 .122-.13.24.24 0 0 1 .162-.065h.468ZM92.305 84.474h-.748a.23.23 0 0 1-.153-.048.537.537 0 0 1-.088-.113l-1.115-1.724c-.012.04-.025.081-.04.122a.35.35 0 0 1-.052.104l-1.032 1.498a.89.89 0 0 1-.096.113.184.184 0 0 1-.136.048h-.695l1.552-2.258-1.491-2.14h.748c.064 0 .11.01.14.03.03.02.055.049.079.086l1.089 1.65a.904.904 0 0 1 .11-.243l.953-1.39a.395.395 0 0 1 .083-.095.175.175 0 0 1 .113-.039h.718l-1.492 2.102 1.553 2.297ZM94.606 80.006c.324 0 .616.053.875.16.26.107.481.26.665.456.184.197.323.436.42.717.099.278.148.589.148.933 0 .348-.05.66-.148.938a1.875 1.875 0 0 1-1.085 1.168 2.33 2.33 0 0 1-.875.156c-.326 0-.62-.052-.883-.156a1.876 1.876 0 0 1-.665-.456 2.026 2.026 0 0 1-.424-.712 2.856 2.856 0 0 1-.145-.938c0-.344.048-.655.145-.933.099-.281.24-.52.424-.717.184-.197.405-.349.665-.456.262-.107.557-.16.883-.16Zm0 3.925c.438 0 .764-.145.98-.434.216-.293.324-.7.324-1.22 0-.524-.108-.933-.324-1.225-.216-.292-.542-.439-.98-.439a1.4 1.4 0 0 0-.581.113c-.164.076-.3.184-.412.326a1.49 1.49 0 0 0-.245.525 2.831 2.831 0 0 0-.078.7c0 .52.108.927.323 1.22.22.29.55.434.993.434ZM98.397 83.414c.143.191.3.326.468.404.17.078.359.117.569.117.414 0 .732-.146.953-.438.222-.293.333-.71.333-1.25a2.99 2.99 0 0 0-.079-.739 1.367 1.367 0 0 0-.219-.504.85.85 0 0 0-.354-.29 1.184 1.184 0 0 0-.477-.092c-.253 0-.476.058-.669.174-.19.116-.364.28-.525.49v2.128Zm-.039-2.657c.187-.229.402-.413.647-.552.245-.139.525-.208.84-.208.257 0 .488.05.696.148.207.095.383.238.529.43.146.188.258.422.337.703.078.28.118.603.118.968 0 .324-.044.627-.132.908-.087.278-.214.52-.38.725a1.783 1.783 0 0 1-.604.482 1.793 1.793 0 0 1-.8.173c-.271 0-.505-.044-.7-.134a1.679 1.679 0 0 1-.512-.382v1.945h-.783v-5.888h.468c.111 0 .18.054.206.16l.07.522ZM104.289 80.006c.324 0 .616.053.875.16a1.874 1.874 0 0 1 1.085 1.173c.099.278.149.589.149.933 0 .348-.05.66-.149.938a1.875 1.875 0 0 1-1.085 1.168 2.328 2.328 0 0 1-.875.156c-.326 0-.621-.052-.883-.156a1.875 1.875 0 0 1-.665-.456 2.02 2.02 0 0 1-.424-.712 2.861 2.861 0 0 1-.144-.938c0-.344.048-.655.144-.933.099-.281.24-.52.424-.717.184-.197.405-.349.665-.456.262-.107.557-.16.883-.16Zm0 3.925c.438 0 .764-.145.98-.434.216-.293.324-.7.324-1.22 0-.524-.108-.933-.324-1.225-.216-.292-.542-.439-.98-.439-.221 0-.415.038-.581.113a1.086 1.086 0 0 0-.411.326c-.108.142-.19.317-.245.525a2.807 2.807 0 0 0-.079.7c0 .52.108.927.324 1.22.218.29.549.434.992.434ZM113.259 80.075v4.399h-5.961v-4.399h.783v3.813h1.806v-3.813h.783v3.813h1.806v-3.813h.783ZM116.271 80.006c.323 0 .615.053.874.16a1.866 1.866 0 0 1 1.085 1.173c.099.278.149.589.149.933 0 .348-.05.66-.149.938a1.968 1.968 0 0 1-.42.712 1.866 1.866 0 0 1-.665.456 2.326 2.326 0 0 1-.874.156 2.38 2.38 0 0 1-.884-.156 1.884 1.884 0 0 1-.665-.456 2.034 2.034 0 0 1-.424-.712 2.861 2.861 0 0 1-.144-.938c0-.344.048-.655.144-.933a1.883 1.883 0 0 1 1.089-1.172c.263-.108.557-.161.884-.161Zm0 3.925c.437 0 .764-.145.979-.434.216-.293.324-.7.324-1.22 0-.524-.108-.933-.324-1.225-.215-.292-.542-.439-.979-.439-.222 0-.416.038-.582.113-.163.076-.3.184-.411.326-.108.142-.19.317-.245.525a2.807 2.807 0 0 0-.079.7c0 .52.108.927.324 1.22.218.29.549.434.993.434ZM122.212 83.414c.143.191.299.326.468.404.17.078.359.117.569.117.414 0 .732-.146.953-.438.222-.293.333-.71.333-1.25a2.99 2.99 0 0 0-.079-.739 1.367 1.367 0 0 0-.219-.504.85.85 0 0 0-.354-.29 1.187 1.187 0 0 0-.477-.092c-.253 0-.476.058-.669.174a1.95 1.95 0 0 0-.525.49v2.128Zm-.039-2.657c.187-.229.402-.413.647-.552.245-.139.525-.208.84-.208.257 0 .489.05.696.148.207.095.383.238.529.43.146.188.258.422.337.703.078.28.118.603.118.968 0 .324-.044.627-.132.908-.087.278-.214.52-.38.725a1.783 1.783 0 0 1-.604.482 1.793 1.793 0 0 1-.8.173 1.67 1.67 0 0 1-.7-.134 1.688 1.688 0 0 1-.512-.382v1.945h-.783v-5.888h.468c.111 0 .18.054.206.16l.07.522ZM128.638 82.494a6.33 6.33 0 0 0-.918.087 2.592 2.592 0 0 0-.617.173.87.87 0 0 0-.346.256.556.556 0 0 0-.105.33c0 .116.019.216.057.3a.592.592 0 0 0 .153.208.705.705 0 0 0 .232.118c.091.023.187.034.289.034.137 0 .262-.013.376-.039a1.679 1.679 0 0 0 .608-.308c.093-.072.184-.155.271-.248v-.911Zm-2.515-1.798c.245-.234.509-.41.792-.525.283-.116.596-.174.94-.174.248 0 .468.04.661.121a1.356 1.356 0 0 1 .783.865c.067.205.1.43.1.677v2.814h-.345a.359.359 0 0 1-.175-.035c-.041-.026-.073-.075-.097-.148l-.087-.416c-.117.107-.23.202-.341.286a2.17 2.17 0 0 1-.35.209 1.91 1.91 0 0 1-.394.125c-.137.032-.29.048-.459.048-.172 0-.334-.023-.485-.07a1.166 1.166 0 0 1-.398-.216 1.05 1.05 0 0 1-.267-.36 1.302 1.302 0 0 1-.096-.522c0-.174.048-.34.144-.5a1.25 1.25 0 0 1 .468-.43c.216-.124.497-.225.844-.303a6.358 6.358 0 0 1 1.277-.139v-.343c0-.342-.074-.6-.223-.773-.149-.177-.366-.265-.652-.265a1.39 1.39 0 0 0-.485.074c-.128.046-.241.1-.337.16a5.34 5.34 0 0 0-.245.161.352.352 0 0 1-.201.07.234.234 0 0 1-.136-.04.406.406 0 0 1-.096-.103l-.14-.248ZM132.496 83.961c.438 0 .767-.137.989-.412.224-.278.337-.666.337-1.164 0-.495-.108-.881-.324-1.16-.213-.277-.534-.416-.962-.416-.207 0-.394.033-.56.1a1.119 1.119 0 0 0-.424.282 1.316 1.316 0 0 0-.267.46c-.061.183-.092.391-.092.626 0 .263.028.499.083.707.056.209.137.385.245.53.111.145.246.256.407.334.163.076.353.113.568.113Zm.302-4.92a2.165 2.165 0 0 0-.765.196c-.21.104-.385.246-.525.426-.14.176-.245.389-.315.638s-.111.53-.122.842a1.614 1.614 0 0 1 .651-.66c.143-.08.298-.142.464-.182.169-.044.348-.065.538-.065.294 0 .558.052.792.156.236.101.435.246.599.434.166.189.293.416.38.682.088.263.131.556.131.877 0 .327-.051.624-.153.89-.099.264-.242.49-.428.678a1.928 1.928 0 0 1-.674.43 2.387 2.387 0 0 1-.875.151c-.297 0-.575-.049-.835-.147a1.629 1.629 0 0 1-.674-.487c-.189-.225-.339-.522-.45-.89-.108-.37-.162-.826-.162-1.367 0-.463.042-.89.127-1.277.085-.388.22-.725.407-1.012.189-.286.433-.516.73-.69.301-.177.665-.284 1.094-.321l1.583-.135.044.4a.377.377 0 0 1-.04.225c-.035.061-.097.094-.188.1l-1.334.109ZM137.395 80.006c.323 0 .615.053.875.16a1.87 1.87 0 0 1 1.084 1.173c.099.278.149.589.149.933 0 .348-.05.66-.149.938a1.968 1.968 0 0 1-.42.712 1.87 1.87 0 0 1-.664.456c-.26.104-.552.156-.875.156a2.38 2.38 0 0 1-.884-.156 1.884 1.884 0 0 1-.665-.456 2.034 2.034 0 0 1-.424-.712 2.861 2.861 0 0 1-.144-.938c0-.344.048-.655.144-.933a1.883 1.883 0 0 1 1.089-1.172c.263-.108.557-.161.884-.161Zm0 3.925c.437 0 .764-.145.98-.434.215-.293.323-.7.323-1.22 0-.524-.108-.933-.323-1.225-.216-.292-.543-.439-.98-.439-.222 0-.416.038-.582.113-.163.076-.3.184-.411.326-.108.142-.19.317-.245.525a2.855 2.855 0 0 0-.079.7c0 .52.108.927.324 1.22.219.29.55.434.993.434ZM143.906 80.666h-1.701v3.808h-.779v-3.808h-1.701v-.59h4.181v.59ZM146.92 82.494a6.36 6.36 0 0 0-.919.087 2.606 2.606 0 0 0-.617.173.874.874 0 0 0-.345.256.556.556 0 0 0-.105.33c0 .116.019.216.057.3a.592.592 0 0 0 .153.208.695.695 0 0 0 .232.118c.09.023.186.034.288.034.137 0 .263-.013.376-.039a1.671 1.671 0 0 0 .608-.308 2.36 2.36 0 0 0 .272-.248v-.911Zm-2.515-1.798c.245-.234.509-.41.791-.525.283-.116.597-.174.941-.174.248 0 .468.04.66.121.193.082.354.195.486.34.131.144.23.32.297.525.067.205.101.43.101.677v2.814h-.346a.359.359 0 0 1-.175-.035c-.041-.026-.073-.075-.096-.148l-.087-.416a4.76 4.76 0 0 1-.342.286c-.11.081-.227.15-.35.209a1.882 1.882 0 0 1-.393.125c-.137.032-.29.048-.459.048a1.66 1.66 0 0 1-.486-.07 1.175 1.175 0 0 1-.398-.216 1.05 1.05 0 0 1-.267-.36 1.302 1.302 0 0 1-.096-.522c0-.174.048-.34.144-.5.097-.161.253-.305.468-.43.216-.124.497-.225.844-.303a6.36 6.36 0 0 1 1.278-.139v-.343c0-.342-.075-.6-.223-.773-.149-.177-.366-.265-.652-.265-.193 0-.354.025-.486.074-.128.046-.24.1-.336.16a4.841 4.841 0 0 0-.245.161.352.352 0 0 1-.202.07.233.233 0 0 1-.135-.04.406.406 0 0 1-.096-.103l-.14-.248ZM151.745 81.795c0-.18-.027-.343-.079-.491a1.046 1.046 0 0 0-.577-.638 1.187 1.187 0 0 0-.477-.091c-.373 0-.669.108-.888.325-.216.214-.35.512-.403.895h2.424Zm.629 2.062a1.511 1.511 0 0 1-.345.304 2.218 2.218 0 0 1-.433.209 2.572 2.572 0 0 1-.473.121 2.777 2.777 0 0 1-.485.043c-.306 0-.589-.05-.849-.152a1.93 1.93 0 0 1-.669-.451 2.118 2.118 0 0 1-.437-.738 2.972 2.972 0 0 1-.158-1.008c0-.306.047-.593.14-.86.097-.266.234-.496.412-.69a1.84 1.84 0 0 1 .651-.46 2.13 2.13 0 0 1 .866-.17c.266 0 .511.046.735.135.227.087.423.215.586.382.166.165.296.37.389.617a2.3 2.3 0 0 1 .14.834c0 .121-.013.202-.039.243-.026.04-.076.06-.149.06h-2.961c.009.279.047.52.114.726.07.205.166.377.289.516.122.136.268.24.437.309.169.066.359.1.569.1.195 0 .363-.022.503-.066a2.561 2.561 0 0 0 .621-.29.343.343 0 0 1 .179-.07c.064 0 .114.025.149.074l.218.282ZM158.251 80.062v4.412h-.704V81.55c0-.08.004-.17.013-.269.012-.101.026-.195.044-.282l-1.54 2.68a.288.288 0 0 1-.092.103.223.223 0 0 1-.131.04h-.087a.248.248 0 0 1-.136-.04.297.297 0 0 1-.092-.104l-1.565-2.688c.014.087.027.183.039.287.012.101.017.192.017.273v2.923h-.704v-4.412h.626c.055 0 .109.013.161.04a.3.3 0 0 1 .136.134l1.382 2.292c.067.134.127.274.18.422a2.61 2.61 0 0 1 .174-.422l1.356-2.292a.298.298 0 0 1 .136-.14.395.395 0 0 1 .162-.034h.625ZM160.329 78.251v2.484c0 .13-.002.258-.008.382a11.933 11.933 0 0 1-.057.764c-.012.13-.026.271-.044.422h-.525l-.048-.422a15.067 15.067 0 0 1-.052-.764 7.934 7.934 0 0 1-.009-.382v-2.484h.743Zm-.931 5.745a.58.58 0 0 1 .039-.213.563.563 0 0 1 .289-.29.545.545 0 0 1 .603.117.527.527 0 0 1 .162.386c0 .078-.014.15-.043.217a.584.584 0 0 1-.119.17.497.497 0 0 1-.174.112.547.547 0 0 1-.718-.282.592.592 0 0 1-.039-.217Z" fill="#fff"/></svg>