<svg width="48" height="58" fill="none" xmlns="http://www.w3.org/2000/svg"><path d="M2 55.97H0V58h2v-2.03ZM2 53.36H0v2.03h2v-2.03ZM2 50.75H0v2.03h2v-2.03ZM2 48.14H0v2.03h2v-2.03ZM2 45.53H0v2.03h2v-2.03ZM2 42.92H0v2.03h2v-2.03ZM2 40.31H0v2.03h2v-2.03ZM2 37.7H0v2.03h2V37.7ZM2 35.09H0v2.03h2v-2.03ZM2 32.48H0v2.03h2v-2.03ZM2 29.87H0v2.03h2v-2.03ZM2 27.26H0v2.03h2v-2.03ZM2 24.65H0v2.03h2v-2.03ZM2 22.04H0v2.03h2v-2.03ZM2 16.53H0v2.03h2v-2.03ZM2 11.02H0v2.03h2v-2.03ZM2 4.93H0v2.03h2V4.93ZM2 0H0v2.03h2V0ZM14.858 27.26h-2v2.03h2v-2.03ZM14.858 24.65h-2v2.03h2v-2.03ZM14.858 20.01h-2v2.03h2v-2.03ZM14.858 15.66h-2v2.03h2v-2.03ZM37.714 55.97h-2V58h2v-2.03ZM37.714 53.36h-2v2.03h2v-2.03ZM37.714 50.75h-2v2.03h2v-2.03ZM37.714 48.14h-2v2.03h2v-2.03ZM37.714 45.53h-2v2.03h2v-2.03ZM37.714 42.92h-2v2.03h2v-2.03ZM37.714 40.31h-2v2.03h2v-2.03ZM37.714 37.7h-2v2.03h2V37.7ZM37.714 35.09h-2v2.03h2v-2.03ZM37.714 32.48h-2v2.03h2v-2.03ZM37.714 29.87h-2v2.03h2v-2.03ZM37.714 27.26h-2v2.03h2v-2.03ZM37.714 24.65h-2v2.03h2v-2.03ZM37.714 22.04h-2v2.03h2v-2.03ZM37.714 19.43h-2v2.03h2v-2.03ZM37.714 16.82h-2v2.03h2v-2.03ZM37.714 13.63h-2v2.03h2v-2.03ZM4.572 55.97h-2V58h2v-2.03ZM4.572 53.36h-2v2.03h2v-2.03ZM4.572 50.75h-2v2.03h2v-2.03ZM4.572 48.14h-2v2.03h2v-2.03ZM4.572 45.53h-2v2.03h2v-2.03ZM4.572 42.92h-2v2.03h2v-2.03ZM4.572 40.31h-2v2.03h2v-2.03ZM4.572 37.7h-2v2.03h2V37.7ZM4.572 35.09h-2v2.03h2v-2.03ZM4.572 32.48h-2v2.03h2v-2.03ZM4.572 29.87h-2v2.03h2v-2.03ZM4.572 27.26h-2v2.03h2v-2.03ZM4.572 24.36h-2v2.03h2v-2.03ZM4.572 19.72h-2v2.03h2v-2.03ZM4.572 13.34h-2v2.03h2v-2.03ZM4.572 7.54h-2v2.03h2V7.54ZM17.428 27.26h-2v2.03h2v-2.03ZM17.428 24.65h-2v2.03h2v-2.03ZM17.428 22.04h-2v2.03h2v-2.03ZM17.428 17.69h-2v2.03h2v-2.03ZM17.428 10.44h-2v2.03h2v-2.03ZM27.714 27.26h-2v2.03h2v-2.03ZM27.714 24.65h-2v2.03h2v-2.03ZM27.714 20.01h-2v2.03h2v-2.03ZM27.714 15.37h-2v2.03h2v-2.03ZM40.285 55.97h-2V58h2v-2.03ZM40.285 53.36h-2v2.03h2v-2.03ZM40.285 50.75h-2v2.03h2v-2.03ZM40.285 48.14h-2v2.03h2v-2.03ZM40.285 45.53h-2v2.03h2v-2.03ZM40.285 42.92h-2v2.03h2v-2.03ZM40.285 40.31h-2v2.03h2v-2.03ZM40.285 37.7h-2v2.03h2V37.7ZM40.285 35.09h-2v2.03h2v-2.03ZM40.285 32.48h-2v2.03h2v-2.03ZM40.285 29.87h-2v2.03h2v-2.03ZM40.285 27.26h-2v2.03h2v-2.03ZM40.285 24.65h-2v2.03h2v-2.03ZM40.285 22.04h-2v2.03h2v-2.03ZM40.285 19.43h-2v2.03h2v-2.03ZM40.285 16.82h-2v2.03h2v-2.03ZM7.142 55.97h-2V58h2v-2.03ZM7.142 53.36h-2v2.03h2v-2.03ZM7.142 50.75h-2v2.03h2v-2.03ZM7.142 48.14h-2v2.03h2v-2.03ZM7.142 45.53h-2v2.03h2v-2.03ZM7.142 42.92h-2v2.03h2v-2.03ZM7.142 40.31h-2v2.03h2v-2.03ZM7.142 37.7h-2v2.03h2V37.7ZM7.142 35.09h-2v2.03h2v-2.03ZM7.142 32.48h-2v2.03h2v-2.03ZM7.142 29.87h-2v2.03h2v-2.03ZM7.142 27.26h-2v2.03h2v-2.03ZM7.142 24.65h-2v2.03h2v-2.03ZM7.142 21.46h-2v2.03h2v-2.03ZM7.142 16.24h-2v2.03h2v-2.03ZM7.142 10.44h-2v2.03h2v-2.03ZM7.142 2.9h-2v2.03h2V2.9ZM20 27.26h-2v2.03h2v-2.03ZM20 24.65h-2v2.03h2v-2.03ZM20 21.75h-2v2.03h2v-2.03ZM20 18.56h-2v2.03h2v-2.03ZM20 14.21h-2v2.03h2v-2.03ZM30.286 27.26h-2v2.03h2v-2.03ZM30.286 24.65h-2v2.03h2v-2.03ZM30.286 22.04h-2v2.03h2v-2.03ZM30.286 19.43h-2v2.03h2v-2.03ZM30.286 13.05h-2v2.03h2v-2.03ZM42.856 55.97h-2V58h2v-2.03ZM42.856 53.36h-2v2.03h2v-2.03ZM42.856 50.75h-2v2.03h2v-2.03ZM42.856 48.14h-2v2.03h2v-2.03ZM42.856 45.53h-2v2.03h2v-2.03ZM42.856 42.92h-2v2.03h2v-2.03ZM42.856 40.31h-2v2.03h2v-2.03ZM42.856 37.7h-2v2.03h2V37.7ZM42.856 35.09h-2v2.03h2v-2.03ZM42.856 32.48h-2v2.03h2v-2.03ZM42.856 29.87h-2v2.03h2v-2.03ZM42.856 27.26h-2v2.03h2v-2.03ZM42.856 24.65h-2v2.03h2v-2.03ZM42.856 22.04h-2v2.03h2v-2.03ZM42.856 19.43h-2v2.03h2v-2.03ZM42.856 14.21h-2v2.03h2v-2.03ZM9.714 55.97h-2V58h2v-2.03ZM9.714 53.36h-2v2.03h2v-2.03ZM9.714 50.75h-2v2.03h2v-2.03ZM9.714 48.14h-2v2.03h2v-2.03ZM9.714 45.53h-2v2.03h2v-2.03ZM9.714 42.92h-2v2.03h2v-2.03ZM9.714 40.31h-2v2.03h2v-2.03ZM9.714 37.7h-2v2.03h2V37.7ZM9.714 35.09h-2v2.03h2v-2.03ZM9.714 32.48h-2v2.03h2v-2.03ZM9.714 29.87h-2v2.03h2v-2.03ZM9.714 27.26h-2v2.03h2v-2.03ZM9.714 24.65h-2v2.03h2v-2.03ZM9.714 22.04h-2v2.03h2v-2.03ZM9.714 19.43h-2v2.03h2v-2.03ZM9.714 16.82h-2v2.03h2v-2.03ZM9.714 14.21h-2v2.03h2v-2.03ZM9.714 11.6h-2v2.03h2V11.6ZM9.714 6.38h-2v2.03h2V6.38ZM22.572 27.26h-2v2.03h2v-2.03ZM22.572 24.65h-2v2.03h2v-2.03ZM22.572 20.88h-2v2.03h2v-2.03ZM22.572 15.37h-2v2.03h2v-2.03ZM32.856 27.26h-2v2.03h2v-2.03ZM32.856 24.65h-2v2.03h2v-2.03ZM32.856 22.04h-2v2.03h2v-2.03ZM32.856 18.27h-2v2.03h2v-2.03ZM32.856 14.21h-2v2.03h2v-2.03ZM45.428 55.97h-2V58h2v-2.03ZM45.428 53.36h-2v2.03h2v-2.03ZM45.428 50.75h-2v2.03h2v-2.03ZM45.428 48.14h-2v2.03h2v-2.03ZM45.428 45.53h-2v2.03h2v-2.03ZM45.428 42.92h-2v2.03h2v-2.03ZM45.428 40.31h-2v2.03h2v-2.03ZM45.428 37.7h-2v2.03h2V37.7ZM45.428 35.09h-2v2.03h2v-2.03ZM45.428 32.48h-2v2.03h2v-2.03ZM45.428 29.87h-2v2.03h2v-2.03ZM45.428 27.26h-2v2.03h2v-2.03ZM45.428 24.65h-2v2.03h2v-2.03ZM45.428 22.04h-2v2.03h2v-2.03ZM45.428 19.43h-2v2.03h2v-2.03ZM45.428 16.82h-2v2.03h2v-2.03ZM12.286 55.97h-2V58h2v-2.03ZM12.286 53.36h-2v2.03h2v-2.03ZM12.286 50.75h-2v2.03h2v-2.03ZM12.286 48.14h-2v2.03h2v-2.03ZM12.286 45.53h-2v2.03h2v-2.03ZM12.286 42.92h-2v2.03h2v-2.03ZM12.286 40.31h-2v2.03h2v-2.03ZM12.286 37.7h-2v2.03h2V37.7ZM12.286 35.09h-2v2.03h2v-2.03ZM12.286 32.48h-2v2.03h2v-2.03ZM12.286 29.87h-2v2.03h2v-2.03ZM12.286 27.26h-2v2.03h2v-2.03ZM12.286 24.65h-2v2.03h2v-2.03ZM12.286 21.17h-2v2.03h2v-2.03ZM12.286 14.21h-2v2.03h2v-2.03ZM12.286 8.99h-2v2.03h2V8.99ZM25.142 27.26h-2v2.03h2v-2.03ZM25.142 24.65h-2v2.03h2v-2.03ZM25.142 22.04h-2v2.03h2v-2.03ZM25.142 17.4h-2v2.03h2V17.4ZM25.142 11.6h-2v2.03h2V11.6ZM35.428 27.26h-2v2.03h2v-2.03ZM35.428 24.65h-2v2.03h2v-2.03ZM35.428 21.75h-2v2.03h2v-2.03ZM35.428 16.82h-2v2.03h2v-2.03ZM48 55.97h-2V58h2v-2.03ZM48 53.36h-2v2.03h2v-2.03ZM48 50.75h-2v2.03h2v-2.03ZM48 48.14h-2v2.03h2v-2.03ZM48 45.53h-2v2.03h2v-2.03ZM48 42.92h-2v2.03h2v-2.03ZM48 40.31h-2v2.03h2v-2.03ZM48 37.7h-2v2.03h2V37.7ZM48 35.09h-2v2.03h2v-2.03ZM48 32.48h-2v2.03h2v-2.03ZM48 29.87h-2v2.03h2v-2.03ZM48 27.26h-2v2.03h2v-2.03ZM48 24.65h-2v2.03h2v-2.03ZM48 22.04h-2v2.03h2v-2.03ZM48 19.43h-2v2.03h2v-2.03Z" fill="#E2231A"/></svg>