<svg width="192" height="128" fill="none" xmlns="http://www.w3.org/2000/svg"><path d="M16 18.342 7.802 26.54c-.306.307-.697.46-1.17.46-.475 0-.865-.153-1.172-.46-.307-.307-.46-.697-.46-1.171 0-.474.153-.865.46-1.171L13.658 16 5.46 7.802C5.153 7.496 5 7.105 5 6.632c0-.475.153-.865.46-1.172.307-.307.697-.46 1.171-.46.474 0 .865.153 1.171.46L16 13.658l8.198-8.198c.306-.307.697-.46 1.17-.46.475 0 .865.153 1.172.46.307.307.46.697.46 1.171 0 .474-.153.865-.46 1.171L18.342 16l8.198 8.198c.307.306.46.697.46 1.17 0 .475-.153.865-.46 1.172-.307.307-.697.46-1.171.46-.474 0-.865-.153-1.171-.46L16 18.342Z" fill="#333E48"/><path d="m44.208 21.071 13.154-13.59c.31-.32.672-.481 1.086-.481.414 0 .776.16 1.086.481.31.32.466.702.466 1.143 0 .442-.155.822-.466 1.142L45.294 24.52c-.31.32-.672.481-1.086.481-.414 0-.776-.16-1.087-.481l-6.673-6.895A1.52 1.52 0 0 1 36 16.482a1.66 1.66 0 0 1 .486-1.143c.311-.322.68-.483 1.106-.482.426.002.795.162 1.105.482l5.51 5.732Z" fill="#fff"/><path d="M71.667 17.333c-.473 0-.868-.128-1.187-.384-.319-.256-.479-.572-.48-.949-.001-.377.159-.693.48-.95.321-.255.717-.383 1.187-.383h16.666c.473 0 .869.128 1.189.384.32.256.48.572.478.949-.001.377-.161.694-.48.95-.319.258-.714.385-1.187.383H71.667ZM111.051 6.48c-.256.319-.384.714-.384 1.187v7h-7c-.47 0-.866.128-1.187.384-.321.256-.481.572-.48.949.001.377.161.693.48.95.319.255.714.383 1.187.383h7v7c-.002.473.125.868.382 1.187.257.319.574.479.951.48.377.001.693-.158.949-.478.256-.32.384-.716.384-1.189v-7h7c.473.002.868-.125 1.187-.382.319-.257.479-.574.48-.951.001-.377-.158-.693-.478-.95-.32-.255-.716-.383-1.189-.383h-7v-7c0-.47-.128-.866-.384-1.187-.256-.321-.572-.481-.949-.48-.377.001-.693.161-.949.48Z" fill="#E2231A"/><path d="M144 16c-1.742 0-3.233-.62-4.473-1.86-1.24-1.24-1.86-2.732-1.86-4.473 0-1.742.62-3.233 1.86-4.473 1.24-1.24 2.731-1.86 4.473-1.86s3.233.62 4.473 1.86c1.24 1.24 1.86 2.731 1.86 4.473 0 1.741-.62 3.232-1.86 4.473-1.24 1.24-2.731 1.86-4.473 1.86Zm-12.667 9.5v-1.267c0-.897.231-1.721.694-2.473a4.632 4.632 0 0 1 1.84-1.723 23.47 23.47 0 0 1 4.987-1.84 21.865 21.865 0 0 1 10.292 0 23.7 23.7 0 0 1 4.987 1.84c.766.396 1.379.97 1.842 1.723.462.753.693 1.577.692 2.473V25.5c0 .87-.31 1.617-.93 2.237a3.04 3.04 0 0 1-2.237.93h-19a3.05 3.05 0 0 1-2.236-.93 3.058 3.058 0 0 1-.931-2.237Z" fill="#96A3B0"/><path d="M162.555 23.333a1.18 1.18 0 0 1-.87-.352 1.189 1.189 0 0 1-.352-.87v-.703c0-.876.448-1.589 1.345-2.139.896-.55 2.077-.825 3.544-.825.265 0 .52.006.764.016s.479.036.703.076a5.104 5.104 0 0 0-.642 1.345 5.03 5.03 0 0 0-.214 1.466v1.986h-4.278Zm7.334 0c-.346 0-.637-.117-.87-.352a1.185 1.185 0 0 1-.352-.87v-.764c0-.652.178-1.248.535-1.788.357-.54.861-1.014 1.512-1.42.651-.407 1.43-.712 2.338-.917.908-.204 1.89-.306 2.948-.305a13.6 13.6 0 0 1 2.98.305c.907.204 1.686.51 2.337.917.651.407 1.15.881 1.497 1.421.347.54.52 1.136.519 1.787v.764c0 .346-.117.637-.351.872a1.175 1.175 0 0 1-.871.35h-12.222Zm15.278 0v-1.986c0-.53-.066-1.029-.198-1.497a4.74 4.74 0 0 0-.597-1.314 5.01 5.01 0 0 1 .688-.076c.235-.01.474-.015.718-.016 1.466 0 2.648.27 3.544.81.896.541 1.345 1.259 1.345 2.154v.703c0 .346-.118.637-.352.872a1.18 1.18 0 0 1-.871.35h-4.277Zm-18.945-6.11c-.672 0-1.247-.24-1.726-.718a2.36 2.36 0 0 1-.718-1.727c0-.693.239-1.273.718-1.742a2.381 2.381 0 0 1 1.726-.703c.693 0 1.273.235 1.742.703.468.469.703 1.05.703 1.742 0 .672-.235 1.248-.703 1.727-.469.479-1.049.718-1.742.717Zm19.556 0c-.673 0-1.248-.24-1.726-.718a2.36 2.36 0 0 1-.719-1.727c0-.693.24-1.273.719-1.742a2.38 2.38 0 0 1 1.726-.703c.692 0 1.273.235 1.741.703.469.469.703 1.05.703 1.742a2.38 2.38 0 0 1-.703 1.727c-.468.479-1.049.718-1.741.717ZM176 16c-1.019 0-1.884-.357-2.597-1.07-.713-.712-1.07-1.578-1.07-2.597 0-1.039.357-1.91 1.07-2.612.713-.702 1.578-1.054 2.597-1.054 1.039 0 1.91.351 2.613 1.054.703.704 1.054 1.574 1.054 2.612 0 1.019-.352 1.885-1.054 2.598C177.911 15.643 177.04 16 176 16Z" fill="#fff"/><path d="M8.526 60.667a2.427 2.427 0 0 1-1.783-.744A2.448 2.448 0 0 1 6 58.133V37.867c0-.697.248-1.293.743-1.789a2.435 2.435 0 0 1 1.783-.745h10.106l7.578 7.6v3.8a5 5 0 0 0-2.526 1.394l-7.579 7.568v4.972H8.526Zm10.106 0v-3.895l6.978-6.967c.19-.19.4-.327.632-.412.232-.084.463-.126.695-.126a1.888 1.888 0 0 1 1.358.57l1.168 1.171c.169.19.3.401.395.634.096.232.143.464.142.696 0 .233-.043.47-.126.713-.084.244-.22.46-.41.649l-6.948 6.967h-3.884Zm8.305-7.094 1.168-1.235-1.168-1.171-1.2 1.203 1.2 1.203ZM17.368 44.2h6.316l-6.316-6.333V44.2Zm30.569 11.4a1.53 1.53 0 0 0 1.124-.46c.307-.306.46-.68.459-1.123 0-.443-.154-.818-.459-1.125a1.514 1.514 0 0 0-1.124-.459c-.445.002-.82.155-1.124.46-.304.305-.457.68-.46 1.124-.002.444.151.819.46 1.124.31.306.684.459 1.124.459ZM48 60.667c-1.752 0-3.399-.333-4.94-.998a12.812 12.812 0 0 1-4.022-2.707 12.764 12.764 0 0 1-2.707-4.022c-.664-1.542-.997-3.189-.998-4.94 0-1.751.332-3.398.998-4.94a12.82 12.82 0 0 1 2.707-4.022 12.771 12.771 0 0 1 4.022-2.706c1.543-.666 3.19-.999 4.94-.999 1.75 0 3.397.333 4.94.998a12.772 12.772 0 0 1 4.022 2.707 12.838 12.838 0 0 1 2.708 4.022c.667 1.542 1 3.189.997 4.94-.003 1.751-.336 3.398-.999 4.94a12.705 12.705 0 0 1-2.706 4.022 12.866 12.866 0 0 1-4.022 2.708c-1.54.666-3.186.998-4.94.997Zm.127-18.114c.527 0 .987.17 1.378.507.39.338.586.76.585 1.267 0 .464-.142.876-.427 1.235a7.831 7.831 0 0 1-.966 1.013 8.385 8.385 0 0 0-1.282 1.393 2.84 2.84 0 0 0-.555 1.71c0 .296.111.544.333.745.222.201.48.301.775.3.317 0 .586-.105.808-.316a1.45 1.45 0 0 0 .427-.792 2.54 2.54 0 0 1 .57-1.187c.296-.348.612-.68.95-.998a8.136 8.136 0 0 0 1.252-1.52 3.346 3.346 0 0 0 .522-1.837c0-1.076-.438-1.958-1.314-2.643-.876-.686-1.895-1.03-3.056-1.03a5.39 5.39 0 0 0-2.296.507 3.549 3.549 0 0 0-1.663 1.551 1.141 1.141 0 0 0-.142.809.935.935 0 0 0 .427.648c.296.169.602.222.919.158.316-.063.58-.242.791-.538.233-.317.523-.56.872-.728a2.475 2.475 0 0 1 1.092-.254ZM68.74 56.667a1.34 1.34 0 0 1-1.001-.416 1.424 1.424 0 0 1-.406-1.029 1.408 1.408 0 0 1 .406-1.028 1.347 1.347 0 0 1 1.002-.416h22.518c.399 0 .733.139 1.004.416.27.277.404.62.404 1.028a1.43 1.43 0 0 1-.406 1.03 1.329 1.329 0 0 1-1.002.415H68.741Zm0-7.223a1.34 1.34 0 0 1-1.001-.416A1.424 1.424 0 0 1 67.333 48a1.408 1.408 0 0 1 .406-1.028 1.347 1.347 0 0 1 1.002-.416h22.518c.399 0 .733.138 1.004.416.27.277.404.62.404 1.028a1.43 1.43 0 0 1-.406 1.03 1.328 1.328 0 0 1-1.002.414H68.741Zm0-7.222a1.34 1.34 0 0 1-1.001-.416 1.424 1.424 0 0 1-.406-1.028 1.408 1.408 0 0 1 .406-1.029 1.346 1.346 0 0 1 1.002-.416h22.518c.399 0 .733.139 1.004.416.27.278.404.62.404 1.029a1.43 1.43 0 0 1-.406 1.03 1.328 1.328 0 0 1-1.002.414H68.741Zm41.779 18.445a2.08 2.08 0 0 1-1.465-.57 2.34 2.34 0 0 1-.741-1.394l-.284-2.09a4.746 4.746 0 0 1-.771-.38 10.795 10.795 0 0 1-.71-.475l-1.953.824a2.045 2.045 0 0 1-1.576.063 2.325 2.325 0 0 1-1.229-1.013l-1.481-2.597a2.018 2.018 0 0 1-.252-1.552 2.4 2.4 0 0 1 .851-1.361l1.67-1.267a3.044 3.044 0 0 1-.032-.428v-.855c0-.137.011-.28.032-.427l-1.67-1.267a2.4 2.4 0 0 1-.851-1.361 2.018 2.018 0 0 1 .252-1.552l1.481-2.597a2.326 2.326 0 0 1 1.229-1.013 2.045 2.045 0 0 1 1.576.063l1.953.824a8.15 8.15 0 0 1 .725-.475c.252-.148.504-.275.756-.38l.284-2.09a2.33 2.33 0 0 1 .741-1.394c.41-.38.899-.57 1.465-.57h2.962c.567 0 1.056.19 1.466.57.41.38.657.845.74 1.394l.284 2.09c.273.105.53.232.772.38.242.147.478.306.709.475l1.953-.824a2.045 2.045 0 0 1 1.576-.063c.525.19.935.528 1.229 1.013l1.481 2.597a2.02 2.02 0 0 1 .252 1.552 2.4 2.4 0 0 1-.851 1.361l-1.67 1.267c.021.148.032.29.032.428v.854c0 .138-.021.28-.063.428l1.67 1.267c.441.359.725.813.851 1.361a2.019 2.019 0 0 1-.252 1.552l-1.513 2.597a2.325 2.325 0 0 1-1.229 1.013c-.525.19-1.05.169-1.576-.063l-1.89-.824a8.594 8.594 0 0 1-.725.475 6.335 6.335 0 0 1-.756.38l-.284 2.09a2.334 2.334 0 0 1-.74 1.394 2.08 2.08 0 0 1-1.466.57h-2.962Zm1.544-8.234c1.219 0 2.258-.432 3.12-1.298.861-.865 1.292-1.91 1.292-3.135 0-1.224-.431-2.27-1.292-3.135-.862-.866-1.901-1.298-3.12-1.298-1.239 0-2.285.432-3.136 1.298-.851.866-1.277 1.91-1.276 3.135.001 1.224.427 2.27 1.277 3.135.851.866 1.896 1.298 3.135 1.298Zm22.073 8.234c-.771 0-1.43-.276-1.979-.827a2.723 2.723 0 0 1-.824-1.988V38.148c0-.774.275-1.436.824-1.987a2.701 2.701 0 0 1 1.979-.828h8.409c.397 0 .731.136 1 .406s.403.604.402 1.002a1.378 1.378 0 0 1-.404 1.003 1.338 1.338 0 0 1-.998.404h-8.409v19.704h8.409c.397 0 .731.135 1 .405s.403.605.402 1.002a1.378 1.378 0 0 1-.404 1.004 1.338 1.338 0 0 1-.998.404h-8.409Zm17.064-11.26h-10.056a1.35 1.35 0 0 1-.998-.405 1.373 1.373 0 0 1-.404-1.002 1.357 1.357 0 0 1 .404-1.002c.27-.27.603-.405.998-.405H151.2l-2.628-2.64a1.295 1.295 0 0 1-.386-.95c0-.375.129-.703.386-.984.257-.282.584-.429.981-.441a1.32 1.32 0 0 1 1.016.405l5.01 5.032c.281.281.421.61.421.985s-.14.704-.421.985l-5.01 5.032c-.28.281-.613.416-.998.405a1.424 1.424 0 0 1-.999-.44 1.369 1.369 0 0 1-.367-1.003c.012-.386.146-.709.402-.968l2.593-2.604Z" fill="#96A3B0"/><path d="M169.5 56.681a4.772 4.772 0 0 0 .91 2.831c-3.871-.245-7.41-1.66-7.41-4.275v-1.271a12.503 12.503 0 0 0 6.5 2.238v.477Zm.058-5.879a.043.043 0 0 0-.012.02 2.25 2.25 0 0 0-.046.457v2.759c-3.496-.405-6.5-1.791-6.5-4.204v-1.27a12.32 12.32 0 0 0 6.543 2.238h.015Zm5.633-5.286a9.04 9.04 0 0 0-4.868 3.177c-3.842-.245-7.323-1.66-7.323-4.26v-.983a14.178 14.178 0 0 0 8.667 2.354c1.181.005 2.36-.092 3.524-.288Zm5.142-2.066v.982a2.717 2.717 0 0 1-.029.361 19.16 19.16 0 0 0-3.235.275 9.86 9.86 0 0 0 3.264-1.618ZM171.667 35c-4.334 0-8.667 1.444-8.667 4.319 0 2.903 4.333 4.319 8.667 4.319 4.333 0 8.666-1.416 8.666-4.32 0-2.874-4.333-4.318-8.666-4.318Zm8.666 22.764a14.153 14.153 0 0 1-8.666-2.498v1.415c0 2.875 4.333 4.319 8.666 4.319 4.334 0 8.667-1.444 8.667-4.319v-1.415a14.156 14.156 0 0 1-8.667 2.498Zm0-10.804c-4.781 0-8.666 1.936-8.666 4.319s3.885 4.319 8.666 4.319c4.781 0 8.667-1.936 8.667-4.32 0-2.382-3.886-4.318-8.667-4.318ZM22.552 88.265c.858 0 1.583-.298 2.176-.893.593-.595.889-1.323.889-2.185 0-.862-.296-1.59-.889-2.186-.593-.595-1.318-.892-2.176-.892-.858 0-1.584.297-2.177.892-.592.595-.888 1.324-.888 2.186 0 .862.296 1.59.889 2.185.592.595 1.317.893 2.176.893Zm7.11 4.063a1.16 1.16 0 0 1-.857.339 1.16 1.16 0 0 1-.859-.339l-2.452-2.462a4.947 4.947 0 0 1-1.394.646c-.5.144-1.016.216-1.548.216-1.533 0-2.835-.539-3.908-1.616-1.072-1.077-1.609-2.385-1.61-3.925 0-1.54.536-2.848 1.61-3.924s2.377-1.615 3.908-1.617c1.53-.002 2.834.537 3.908 1.617 1.075 1.08 1.611 2.387 1.609 3.924a5.66 5.66 0 0 1-.215 1.555 4.96 4.96 0 0 1-.643 1.4l2.452 2.462c.225.226.337.513.337.862 0 .35-.112.636-.337.862Zm-21.21-.37c-.674 0-1.251-.24-1.731-.722A2.381 2.381 0 0 1 6 89.496v-19.7c0-.677.24-1.257.72-1.739a2.362 2.362 0 0 1 1.732-.724h8.797a2.415 2.415 0 0 1 1.716.708l5.947 5.972a2.44 2.44 0 0 1 .705 1.724v.554c0 .37-.149.667-.445.892a1.081 1.081 0 0 1-.996.185 6.927 6.927 0 0 0-1.625-.185c-2.41 0-4.352.821-5.823 2.463-1.471 1.642-2.207 3.499-2.207 5.572 0 .903.159 1.795.476 2.677.317.883.812 1.714 1.486 2.494.286.308.352.646.198 1.016-.153.369-.414.554-.78.554h-7.45Zm8.583-22.162v4.925c0 .349.117.641.353.878.235.236.526.354.872.353h4.905l-6.13-6.156Z" fill="#fff"/><g clip-path="url(#a)" fill="#fff"><path d="M39.557 69.188h9.886l.493-.996a2.889 2.889 0 0 0-.136-2.82A2.887 2.887 0 0 0 47.333 64a2.92 2.92 0 0 0-2.085.882l-.748.771-.748-.77A2.92 2.92 0 0 0 41.667 64a2.887 2.887 0 0 0-2.467 1.373 2.889 2.889 0 0 0-.136 2.82l.493.995Zm6.469 14.036c.062.191.093.383.093.58 0 .315-.075.594-.226.836-.151.242-.39.403-.717.485a1.274 1.274 0 0 1-.27.05 3.718 3.718 0 0 1-.21.009H43.09a.125.125 0 0 1-.125-.125v-2.56c0-.068.056-.125.125-.125h1.607c.047 0 .116.004.208.008.092.006.183.021.272.045.23.054.415.153.551.297.137.144.237.31.3.5Z"/><path d="m51.151 75.826-.013-.013H37.84l-.003.002a19.65 19.65 0 0 0-4.32 6.427A19.654 19.654 0 0 0 32 89.835a6.15 6.15 0 0 0 2.553 4.982l.039.028A6.103 6.103 0 0 0 38.176 96H50.8c.236 0 .469-.013.7-.04A8.86 8.86 0 0 1 48.125 89c0-3.505 2.042-6.542 5-7.983v-.08c0-.696.254-1.334.676-1.826a19.64 19.64 0 0 0-2.65-3.285Zm-4.381 9.51c-.324.417-.805.674-1.445.77a2.878 2.878 0 0 1-.36.037 6.947 6.947 0 0 1-.226.005h-1.65a.125.125 0 0 0-.125.125v.576c0 .07.056.125.125.125h2.26c.07 0 .125.057.125.125v.646a.125.125 0 0 1-.125.125h-2.26a.125.125 0 0 0-.125.125v.88a.125.125 0 0 1-.125.125h-.864a.125.125 0 0 1-.125-.125v-.88a.125.125 0 0 0-.125-.125h-.534a.125.125 0 0 1-.125-.125v-.646c0-.068.056-.125.125-.125h.534a.125.125 0 0 0 .125-.125v-.576a.125.125 0 0 0-.125-.125h-.534a.125.125 0 0 1-.125-.125v-.714c0-.069.056-.125.125-.125h.534a.125.125 0 0 0 .125-.125v-3.61c0-.068.056-.125.125-.125h2.764c.043 0 .118.002.227.006.108.003.228.016.359.037.43.067.788.214 1.074.437.287.224.5.506.643.845.142.34.213.715.213 1.127 0 .622-.162 1.142-.485 1.56ZM59 80.352v-.915a.938.938 0 0 0-.938-.937h-.124V78a1.064 1.064 0 0 1 2.125 0A2.94 2.94 0 0 0 63 80.938h.063a.938.938 0 0 0 0-1.876H63A1.064 1.064 0 0 1 61.937 78 2.94 2.94 0 0 0 59 75.062 2.94 2.94 0 0 0 56.062 78v.5h-.124a.938.938 0 0 0-.938.938v.914a8.903 8.903 0 0 1 4 0Z"/><path d="M57 82a7 7 0 1 0 0 14 7 7 0 0 0 0-14Zm.938 7a.94.94 0 0 1-.275.663l-1.5 1.5a.935.935 0 0 1-1.326 0 .937.937 0 0 1 0-1.325l1.225-1.226V86a.938.938 0 0 1 1.876 0v3ZM39.5 73.938h10a1.44 1.44 0 0 0 1.438-1.438 1.44 1.44 0 0 0-1.438-1.438h-10a1.44 1.44 0 0 0-1.438 1.438 1.44 1.44 0 0 0 1.438 1.438Z"/></g><path d="M88.801 68.524h-.428V67H86.85v1.524h-3.048V67h-1.524v1.524H79.23V67h-1.524v1.524h-3.048V67h-1.524v1.524h-3.092V67h-1.524v1.524h-.427c-.603 0-1.091.488-1.091 1.096v.905a1.1 1.1 0 0 0 1.096 1.096h20.705a1.1 1.1 0 0 0 1.096-1.096v-.905a1.1 1.1 0 0 0-1.096-1.096ZM86.855 79.24a7.46 7.46 0 0 1 2.33.374.544.544 0 0 0 .718-.516v-5.191a.76.76 0 0 0-.762-.762H67.762a.76.76 0 0 0-.762.762v12.186c0 .422.34.762.762.762h10.75a.76.76 0 0 0 .756-.685 7.623 7.623 0 0 1 7.587-6.93Zm-2.286-3.809h1.524a.76.76 0 0 1 .762.762.76.76 0 0 1-.762.762h-1.524a.76.76 0 0 1-.762-.762.76.76 0 0 1 .762-.762Zm-4.572 0h1.524a.76.76 0 0 1 .762.762.76.76 0 0 1-.762.762h-1.524a.76.76 0 0 1-.762-.762.76.76 0 0 1 .762-.762Zm0 3.048h1.524a.76.76 0 0 1 .762.762.76.76 0 0 1-.762.762h-1.524a.76.76 0 0 1-.762-.762.76.76 0 0 1 .762-.762Zm-7.62 4.572h-1.573a.76.76 0 0 1-.762-.762.76.76 0 0 1 .762-.762h1.574a.76.76 0 0 1 .762.762.76.76 0 0 1-.762.762Zm0-3.048h-1.573a.76.76 0 0 1-.762-.762.76.76 0 0 1 .762-.762h1.574a.76.76 0 0 1 .762.762.76.76 0 0 1-.762.762Zm0-3.048h-1.573a.76.76 0 0 1-.762-.762.76.76 0 0 1 .762-.762h1.574a.76.76 0 0 1 .762.762.76.76 0 0 1-.762.762Zm4.572 6.096h-1.523a.76.76 0 0 1-.763-.762.76.76 0 0 1 .763-.762h1.523a.76.76 0 0 1 .762.762.76.76 0 0 1-.762.762Zm0-3.048h-1.523a.76.76 0 0 1-.763-.762.76.76 0 0 1 .763-.762h1.523a.76.76 0 0 1 .762.762.76.76 0 0 1-.762.762Zm0-3.048h-1.523a.76.76 0 0 1-.763-.762.76.76 0 0 1 .763-.762h1.523a.76.76 0 0 1 .762.762.76.76 0 0 1-.762.762Z" fill="#fff"/><path d="M86.855 80.76a6.097 6.097 0 0 0-6.096 6.095c0 3.366 2.73 6.145 6.096 6.145S93 90.22 93 86.855c0-3.366-2.78-6.096-6.145-6.096Zm0 9.9a.76.76 0 0 1-.762-.763.76.76 0 0 1 .762-.762.76.76 0 0 1 .762.762.76.76 0 0 1-.762.762Zm0-3.049a.76.76 0 0 1-.762-.761v-3.048a.76.76 0 0 1 .762-.762.76.76 0 0 1 .762.762v3.047a.76.76 0 0 1-.762.762Z" fill="#fff"/><path d="M123 83.667a.913.913 0 0 1-.913.917h-2.739v1.833h1.826a.913.913 0 0 1 .913.916.914.914 0 0 1-.913.917h-1.826v1.833a.916.916 0 0 1-.913.917.912.912 0 0 1-.913-.917v-6.416a.912.912 0 0 1 .913-.917h3.652a.914.914 0 0 1 .913.917Zm-15.065 2.291c0 .851-.337 1.667-.936 2.269a3.19 3.19 0 0 1-2.26.94h-.913v.916a.914.914 0 1 1-1.826 0v-6.416a.914.914 0 0 1 .913-.917h1.826c.848 0 1.66.338 2.26.94.599.601.936 1.417.936 2.268Zm-1.826 0a1.369 1.369 0 0 0-1.37-1.375h-.913v2.75h.913a1.369 1.369 0 0 0 1.37-1.375Zm10.043.917a4.135 4.135 0 0 1-1.203 2.917A4.102 4.102 0 0 1 112.043 91h-1.826a.92.92 0 0 1-.913-.917v-6.416a.92.92 0 0 1 .913-.917h1.826c1.09 0 2.135.435 2.906 1.208a4.135 4.135 0 0 1 1.203 2.917Zm-1.826 0c0-.608-.24-1.19-.668-1.62a2.281 2.281 0 0 0-1.615-.672h-.913v4.584h.913a2.284 2.284 0 0 0 2.283-2.292ZM102 79.083v-8.25c0-.486.192-.952.535-1.296a1.822 1.822 0 0 1 1.291-.537h10.957a.907.907 0 0 1 .646.268l6.391 6.417a.916.916 0 0 1 .267.648v2.75a.914.914 0 1 1-1.826 0V77.25h-5.478a.91.91 0 0 1-.913-.917v-5.5h-10.044v8.25a.914.914 0 1 1-1.826 0Zm13.696-3.666h3.274l-3.274-3.288v3.288Zm36.309 11.463h-3.73a1.12 1.12 0 0 1-.837-.348 1.184 1.184 0 0 1-.338-.858 1.176 1.176 0 0 1 .338-.859c.226-.231.505-.347.837-.347h3.73l-1.057-1.085a1.137 1.137 0 0 1-.323-.828c0-.332.117-.618.352-.86a1.1 1.1 0 0 1 .822-.332c.333 0 .608.11.823.332l3.055 3.135c.098.1.176.225.235.376a1.269 1.269 0 0 1 0 .934c-.059.15-.137.275-.235.377l-3.055 3.135a1.135 1.135 0 0 1-.807.347 1.08 1.08 0 0 1-.838-.347c-.215-.22-.323-.502-.323-.844 0-.341.108-.623.323-.844l1.028-1.085Zm-16.655 0a2.234 2.234 0 0 1-1.659-.709 2.358 2.358 0 0 1-.691-1.703V72.41c0-.663.23-1.23.691-1.702A2.238 2.238 0 0 1 135.35 70h15.275c.646 0 1.199.236 1.66.709.46.472.69 1.04.689 1.702v4.913c0 .322-.117.603-.352.844a1.114 1.114 0 0 1-.823.362 1.12 1.12 0 0 1-.836-.347 1.183 1.183 0 0 1-.338-.858V74.1l-7.755 5.546-7.52-5.516v10.339h8.313c.333 0 .612.116.838.347.225.231.338.518.337.859-.001.34-.113.627-.337.86a1.11 1.11 0 0 1-.838.345h-8.313Zm1.704-14.469 5.816 4.28 5.992-4.28h-11.808Z" fill="#E2231A"/><path d="M172.667 85.333c-2.423 0-4.472-.839-6.15-2.517-1.677-1.678-2.516-3.728-2.517-6.15-.001-2.42.838-4.47 2.517-6.149 1.679-1.678 3.729-2.517 6.15-2.517 2.42 0 4.47.84 6.15 2.517 1.68 1.679 2.519 3.728 2.516 6.15 0 .977-.155 1.9-.466 2.766a7.95 7.95 0 0 1-1.267 2.3l7.467 7.467c.244.244.366.556.366.933 0 .378-.122.69-.366.934-.245.244-.556.366-.934.366-.377 0-.689-.122-.933-.366l-7.467-7.467a8.124 8.124 0 0 1-5.066 1.733Zm0-2.666c1.666 0 3.083-.583 4.25-1.75 1.167-1.166 1.751-2.583 1.75-4.25-.001-1.668-.584-3.084-1.75-4.25-1.165-1.165-2.582-1.749-4.25-1.75-1.669-.002-3.085.581-4.25 1.75-1.164 1.17-1.748 2.586-1.75 4.25-.003 1.664.581 3.08 1.75 4.25 1.17 1.17 2.587 1.753 4.25 1.75Z" fill="#fff"/><path d="M16 118.4c-.191 0-.37-.03-.538-.091a1.229 1.229 0 0 1-.466-.312l-6.601-6.742c-.263-.269-.395-.611-.395-1.026 0-.415.132-.757.395-1.026s.598-.403 1.004-.403c.407 0 .742.134 1.005.403L16 114.919l5.596-5.716c.264-.269.598-.403 1.005-.403.407 0 .741.134 1.004.403.264.269.395.611.395 1.026 0 .415-.131.757-.395 1.026l-6.6 6.742a1.252 1.252 0 0 1-.467.312 1.514 1.514 0 0 1-.538.091Z" fill="#999"/><path d="M34.556 119.333c-.347 0-.637-.117-.87-.352a1.186 1.186 0 0 1-.353-.87v-.703c0-.876.448-1.589 1.345-2.139.896-.55 2.078-.825 3.544-.825.265 0 .52.006.764.016.245.011.479.036.703.076-.285.428-.5.876-.642 1.345a5.003 5.003 0 0 0-.214 1.466v1.986h-4.277Zm7.333 0c-.347 0-.637-.117-.87-.352a1.186 1.186 0 0 1-.352-.87v-.764c0-.652.178-1.248.535-1.788.357-.54.86-1.014 1.512-1.42.65-.407 1.43-.712 2.338-.917.908-.204 1.89-.306 2.948-.305 1.08 0 2.073.101 2.98.305s1.686.509 2.337.917c.65.407 1.15.881 1.497 1.421a3.24 3.24 0 0 1 .52 1.787v.764c0 .346-.118.637-.352.872a1.178 1.178 0 0 1-.871.35H41.889Zm15.278 0v-1.986c0-.529-.066-1.029-.198-1.497a4.738 4.738 0 0 0-.597-1.314 5.01 5.01 0 0 1 .688-.076c.235-.009.474-.015.718-.016 1.466 0 2.648.271 3.544.811.896.54 1.345 1.258 1.345 2.153v.703c0 .346-.118.637-.352.872a1.18 1.18 0 0 1-.87.35h-4.278Zm-18.945-6.111a2.353 2.353 0 0 1-1.726-.717 2.36 2.36 0 0 1-.718-1.727c0-.693.24-1.273.718-1.742a2.382 2.382 0 0 1 1.726-.703c.693 0 1.273.235 1.742.703.468.469.703 1.049.703 1.742 0 .672-.235 1.248-.703 1.727-.469.479-1.05.718-1.742.717Zm19.556 0a2.354 2.354 0 0 1-1.726-.717 2.36 2.36 0 0 1-.719-1.727c0-.693.24-1.273.719-1.742a2.383 2.383 0 0 1 1.726-.703c.692 0 1.273.235 1.741.703.469.469.703 1.049.703 1.742a2.38 2.38 0 0 1-.703 1.727c-.468.479-1.049.718-1.741.717ZM48 112c-1.019 0-1.884-.357-2.597-1.069-.713-.713-1.07-1.579-1.07-2.598 0-1.039.357-1.909 1.07-2.612.713-.702 1.578-1.054 2.597-1.054 1.039 0 1.91.351 2.613 1.054.703.704 1.054 1.574 1.054 2.612 0 1.019-.352 1.885-1.054 2.598C49.911 111.643 49.04 112 48 112Z" fill="#96A3B0"/><defs><clipPath id="a"><path fill="#fff" transform="translate(32 64)" d="M0 0h32v32H0z"/></clipPath></defs></svg>