<svg width="544" height="32" fill="none" xmlns="http://www.w3.org/2000/svg"><path d="M16 18.342 7.802 26.54c-.306.307-.697.46-1.17.46-.475 0-.865-.153-1.172-.46-.307-.307-.46-.697-.46-1.171 0-.474.153-.865.46-1.171L13.658 16 5.46 7.802C5.153 7.496 5 7.105 5 6.632c0-.475.153-.865.46-1.172.307-.307.697-.46 1.171-.46.474 0 .865.153 1.171.46L16 13.658l8.198-8.198c.306-.307.697-.46 1.17-.46.475 0 .865.153 1.172.46.307.307.46.697.46 1.171 0 .474-.153.865-.46 1.171L18.342 16l8.198 8.198c.307.306.46.697.46 1.17 0 .475-.153.865-.46 1.172-.307.307-.697.46-1.171.46-.474 0-.865-.153-1.171-.46L16 18.342ZM44.208 21.071l13.154-13.59c.31-.32.672-.481 1.086-.481.414 0 .776.16 1.086.481.31.32.466.702.466 1.143 0 .442-.155.822-.466 1.142L45.294 24.52c-.31.32-.672.481-1.086.481-.414 0-.776-.16-1.087-.481l-6.673-6.895A1.52 1.52 0 0 1 36 16.482a1.66 1.66 0 0 1 .486-1.143c.311-.322.68-.483 1.106-.482.426.002.795.162 1.105.482l5.51 5.732ZM71.667 17.333c-.473 0-.868-.128-1.187-.384-.319-.256-.479-.572-.48-.949-.001-.377.159-.693.48-.95.321-.255.717-.383 1.187-.383h16.666c.473 0 .869.128 1.189.384.32.256.48.572.478.949-.001.377-.161.694-.48.95-.319.258-.714.385-1.187.383H71.667ZM111.051 6.48c-.256.319-.384.714-.384 1.187v7h-7c-.47 0-.866.128-1.187.384-.321.256-.481.572-.48.949.001.377.161.693.48.95.319.255.714.383 1.187.383h7v7c-.002.473.125.868.382 1.187.257.319.574.479.951.48.377.001.693-.158.949-.478.256-.32.384-.716.384-1.189v-7h7c.473.002.868-.125 1.187-.382.319-.257.479-.574.48-.951.001-.377-.158-.693-.478-.95-.32-.255-.716-.383-1.189-.383h-7v-7c0-.47-.128-.866-.384-1.187-.256-.321-.572-.481-.949-.48-.377.001-.693.161-.949.48ZM144 16c-1.742 0-3.233-.62-4.473-1.86-1.24-1.24-1.86-2.732-1.86-4.473 0-1.742.62-3.233 1.86-4.473 1.24-1.24 2.731-1.86 4.473-1.86s3.233.62 4.473 1.86c1.24 1.24 1.86 2.731 1.86 4.473 0 1.741-.62 3.232-1.86 4.473-1.24 1.24-2.731 1.86-4.473 1.86Zm-12.667 9.5v-1.267c0-.897.231-1.721.694-2.473a4.632 4.632 0 0 1 1.84-1.723 23.47 23.47 0 0 1 4.987-1.84 21.865 21.865 0 0 1 10.292 0 23.7 23.7 0 0 1 4.987 1.84c.766.396 1.379.97 1.842 1.723.462.753.693 1.577.692 2.473V25.5c0 .87-.31 1.617-.93 2.237a3.04 3.04 0 0 1-2.237.93h-19a3.05 3.05 0 0 1-2.236-.93 3.058 3.058 0 0 1-.931-2.237ZM162.555 23.333a1.18 1.18 0 0 1-.87-.352 1.189 1.189 0 0 1-.352-.87v-.703c0-.876.448-1.589 1.345-2.139.896-.55 2.077-.825 3.544-.825.265 0 .52.006.764.016s.479.036.703.076a5.104 5.104 0 0 0-.642 1.345 5.03 5.03 0 0 0-.214 1.466v1.986h-4.278Zm7.334 0c-.346 0-.637-.117-.87-.352a1.185 1.185 0 0 1-.352-.87v-.764c0-.652.178-1.248.535-1.788.357-.54.861-1.014 1.512-1.42.651-.407 1.43-.712 2.338-.917.908-.204 1.89-.306 2.948-.305a13.6 13.6 0 0 1 2.98.305c.907.204 1.686.51 2.337.917.651.407 1.15.881 1.497 1.421.347.54.52 1.136.519 1.787v.764c0 .346-.117.637-.351.872a1.175 1.175 0 0 1-.871.35h-12.222Zm15.278 0v-1.986c0-.53-.066-1.029-.198-1.497a4.74 4.74 0 0 0-.597-1.314 5.01 5.01 0 0 1 .688-.076c.235-.01.474-.015.718-.016 1.466 0 2.648.27 3.544.81.896.541 1.345 1.259 1.345 2.154v.703c0 .346-.118.637-.352.872a1.18 1.18 0 0 1-.871.35h-4.277Zm-18.945-6.11c-.672 0-1.247-.24-1.726-.718a2.36 2.36 0 0 1-.718-1.727c0-.693.239-1.273.718-1.742a2.381 2.381 0 0 1 1.726-.703c.693 0 1.273.235 1.742.703.468.469.703 1.05.703 1.742 0 .672-.235 1.248-.703 1.727-.469.479-1.049.718-1.742.717Zm19.556 0c-.673 0-1.248-.24-1.726-.718a2.36 2.36 0 0 1-.719-1.727c0-.693.24-1.273.719-1.742a2.38 2.38 0 0 1 1.726-.703c.692 0 1.273.235 1.741.703.469.469.703 1.05.703 1.742a2.38 2.38 0 0 1-.703 1.727c-.468.479-1.049.718-1.741.717ZM176 16c-1.019 0-1.884-.357-2.597-1.07-.713-.712-1.07-1.578-1.07-2.597 0-1.039.357-1.91 1.07-2.612.713-.702 1.578-1.054 2.597-1.054 1.039 0 1.91.351 2.613 1.054.703.704 1.054 1.574 1.054 2.612 0 1.019-.352 1.885-1.054 2.598C177.911 15.643 177.04 16 176 16ZM200.526 28.667a2.428 2.428 0 0 1-1.783-.744 2.446 2.446 0 0 1-.743-1.79V5.867c0-.697.248-1.293.743-1.789a2.434 2.434 0 0 1 1.783-.745h10.106l7.579 7.6v3.8a4.99 4.99 0 0 0-2.527 1.394l-7.579 7.568v4.972h-7.579Zm10.106 0v-3.895l6.979-6.967c.189-.19.4-.327.631-.412.232-.084.463-.126.695-.126a1.887 1.887 0 0 1 1.358.57l1.168 1.171c.169.19.3.402.396.634.095.232.142.464.141.696a2.23 2.23 0 0 1-.126.713 1.68 1.68 0 0 1-.411.649l-6.947 6.967h-3.884Zm8.305-7.094 1.168-1.235-1.168-1.171-1.2 1.203 1.2 1.203Zm-9.569-9.373h6.316l-6.316-6.333V12.2ZM239.937 23.6c.443 0 .818-.153 1.124-.46.307-.306.46-.68.459-1.123a1.542 1.542 0 0 0-.459-1.125 1.51 1.51 0 0 0-1.124-.459c-.445.002-.82.155-1.124.46-.304.305-.457.68-.46 1.124-.002.444.151.819.46 1.125a1.54 1.54 0 0 0 1.124.458Zm.063 5.067c-1.752 0-3.399-.333-4.94-.998a12.815 12.815 0 0 1-4.022-2.707 12.771 12.771 0 0 1-2.707-4.022c-.664-1.542-.997-3.189-.998-4.94-.001-1.751.332-3.398.998-4.94a12.839 12.839 0 0 1 2.707-4.022 12.78 12.78 0 0 1 4.022-2.706c1.543-.666 3.189-.999 4.94-.999 1.75 0 3.397.333 4.94.999a12.78 12.78 0 0 1 4.022 2.706 12.841 12.841 0 0 1 2.708 4.022c.667 1.542.999 3.189.997 4.94-.003 1.751-.336 3.398-.999 4.94a12.702 12.702 0 0 1-2.706 4.022 12.876 12.876 0 0 1-4.022 2.708c-1.54.666-3.186.998-4.94.997Zm.127-18.114c.527 0 .987.17 1.378.507a1.6 1.6 0 0 1 .585 1.267c0 .464-.142.876-.427 1.235a7.91 7.91 0 0 1-.966 1.013 8.369 8.369 0 0 0-1.282 1.393 2.841 2.841 0 0 0-.555 1.71c0 .296.111.544.333.745.222.201.481.301.775.3.317 0 .586-.105.808-.316.222-.211.365-.475.427-.792.085-.443.275-.839.57-1.187.296-.348.612-.68.95-.998a8.135 8.135 0 0 0 1.252-1.52 3.359 3.359 0 0 0 .522-1.837c0-1.076-.438-1.957-1.314-2.643-.876-.686-1.894-1.03-3.056-1.03a5.39 5.39 0 0 0-2.296.507 3.548 3.548 0 0 0-1.663 1.551 1.14 1.14 0 0 0-.142.809.939.939 0 0 0 .427.648c.296.169.602.222.919.158.316-.063.58-.242.791-.538a2.32 2.32 0 0 1 .872-.728 2.47 2.47 0 0 1 1.092-.254ZM260.741 24.667a1.34 1.34 0 0 1-1.002-.416 1.422 1.422 0 0 1-.406-1.029 1.405 1.405 0 0 1 .406-1.028 1.346 1.346 0 0 1 1.002-.416h22.518c.399 0 .733.139 1.004.416.27.277.405.62.404 1.028a1.427 1.427 0 0 1-.406 1.03 1.328 1.328 0 0 1-1.002.415h-22.518Zm0-7.223a1.34 1.34 0 0 1-1.002-.415 1.422 1.422 0 0 1-.406-1.029 1.405 1.405 0 0 1 .406-1.028 1.346 1.346 0 0 1 1.002-.416h22.518c.399 0 .733.138 1.004.416.27.277.405.62.404 1.028a1.427 1.427 0 0 1-.406 1.03 1.328 1.328 0 0 1-1.002.415h-22.518Zm0-7.222a1.34 1.34 0 0 1-1.002-.416 1.422 1.422 0 0 1-.406-1.028 1.406 1.406 0 0 1 .406-1.029 1.346 1.346 0 0 1 1.002-.416h22.518c.399 0 .733.139 1.004.416.27.278.405.62.404 1.029a1.427 1.427 0 0 1-.406 1.03 1.328 1.328 0 0 1-1.002.414h-22.518ZM302.519 28.667a2.08 2.08 0 0 1-1.465-.57 2.34 2.34 0 0 1-.741-1.394l-.284-2.09a4.746 4.746 0 0 1-.771-.38 10.795 10.795 0 0 1-.71-.475l-1.953.824a2.045 2.045 0 0 1-1.576.063 2.325 2.325 0 0 1-1.229-1.013l-1.481-2.597a2.019 2.019 0 0 1-.252-1.552 2.4 2.4 0 0 1 .851-1.361l1.67-1.267a3.044 3.044 0 0 1-.032-.428v-.855c0-.137.011-.28.032-.427l-1.67-1.267a2.4 2.4 0 0 1-.851-1.361 2.02 2.02 0 0 1 .252-1.552l1.481-2.597a2.326 2.326 0 0 1 1.229-1.013 2.045 2.045 0 0 1 1.576.063l1.953.824c.231-.17.473-.328.725-.475a6.33 6.33 0 0 1 .756-.38l.284-2.09a2.33 2.33 0 0 1 .741-1.394c.41-.38.899-.57 1.465-.57h2.962c.567 0 1.056.19 1.466.57.41.38.657.845.74 1.394l.284 2.09c.273.105.53.232.772.38.242.147.478.306.709.475l1.953-.824a2.045 2.045 0 0 1 1.576-.063c.525.19.935.528 1.229 1.013l1.481 2.597a2.02 2.02 0 0 1 .252 1.552 2.4 2.4 0 0 1-.851 1.361l-1.67 1.267c.021.148.032.29.032.428v.854c0 .138-.021.28-.063.428l1.67 1.267c.441.359.725.813.851 1.361a2.019 2.019 0 0 1-.252 1.552l-1.513 2.597a2.325 2.325 0 0 1-1.229 1.013c-.525.19-1.05.169-1.576-.063l-1.89-.824a8.594 8.594 0 0 1-.725.475 6.335 6.335 0 0 1-.756.38l-.284 2.09a2.334 2.334 0 0 1-.74 1.394 2.08 2.08 0 0 1-1.466.57h-2.962Zm1.544-8.234c1.219 0 2.258-.432 3.12-1.298.861-.866 1.292-1.91 1.292-3.135 0-1.224-.431-2.27-1.292-3.135-.862-.866-1.901-1.298-3.12-1.298-1.239 0-2.285.432-3.136 1.298-.851.866-1.277 1.91-1.276 3.135.001 1.224.427 2.27 1.277 3.135.851.866 1.896 1.298 3.135 1.298ZM326.136 28.667c-.771 0-1.43-.276-1.979-.827a2.723 2.723 0 0 1-.824-1.988V6.148c0-.774.275-1.436.824-1.987a2.701 2.701 0 0 1 1.979-.828h8.409c.397 0 .731.135 1 .406.269.27.403.604.402 1.002a1.377 1.377 0 0 1-.404 1.003 1.338 1.338 0 0 1-.998.404h-8.409v19.704h8.409c.397 0 .731.135 1 .405s.403.604.402 1.002a1.378 1.378 0 0 1-.404 1.004 1.338 1.338 0 0 1-.998.404h-8.409Zm17.064-11.26h-10.056a1.35 1.35 0 0 1-.998-.405 1.373 1.373 0 0 1-.404-1.002 1.357 1.357 0 0 1 .404-1.002c.27-.27.603-.405.998-.405H343.2l-2.628-2.64a1.295 1.295 0 0 1-.386-.95c0-.375.129-.703.386-.984.257-.282.584-.429.981-.441.397-.012.736.123 1.016.405l5.01 5.032c.281.281.421.61.421.985s-.14.704-.421.985l-5.01 5.032c-.28.281-.613.416-.998.405a1.424 1.424 0 0 1-.999-.44 1.369 1.369 0 0 1-.367-1.003c.012-.386.146-.709.402-.968l2.593-2.604ZM361.5 24.681a4.772 4.772 0 0 0 .91 2.831c-3.871-.245-7.41-1.66-7.41-4.275v-1.271a12.503 12.503 0 0 0 6.5 2.238v.477Zm.058-5.879a.043.043 0 0 0-.012.02 2.25 2.25 0 0 0-.046.457v2.759c-3.496-.405-6.5-1.791-6.5-4.204v-1.27a12.32 12.32 0 0 0 6.543 2.238h.015Zm5.633-5.286a9.04 9.04 0 0 0-4.868 3.177c-3.842-.245-7.323-1.66-7.323-4.26v-.983a14.178 14.178 0 0 0 8.667 2.354c1.181.005 2.36-.092 3.524-.288Zm5.142-2.066v.982c-.002.121-.011.242-.029.361a19.16 19.16 0 0 0-3.235.275 9.86 9.86 0 0 0 3.264-1.618ZM363.667 3C359.333 3 355 4.444 355 7.319c0 2.903 4.333 4.319 8.667 4.319 4.333 0 8.666-1.416 8.666-4.32C372.333 4.445 368 3 363.667 3Zm8.666 22.764a14.153 14.153 0 0 1-8.666-2.498v1.415c0 2.875 4.333 4.319 8.666 4.319 4.334 0 8.667-1.444 8.667-4.319v-1.415a14.156 14.156 0 0 1-8.667 2.498Zm0-10.804c-4.781 0-8.666 1.936-8.666 4.319s3.885 4.319 8.666 4.319c4.781 0 8.667-1.936 8.667-4.32 0-2.382-3.886-4.318-8.667-4.318ZM406.552 24.265c.858 0 1.583-.298 2.176-.893.593-.595.889-1.323.889-2.185 0-.862-.296-1.59-.889-2.186-.593-.595-1.318-.892-2.176-.892-.859 0-1.584.297-2.177.892-.592.595-.888 1.324-.888 2.186 0 .862.296 1.59.888 2.185.593.595 1.318.893 2.177.893Zm7.111 4.063a1.16 1.16 0 0 1-.858.339c-.348 0-.634-.113-.859-.339l-2.452-2.462a4.944 4.944 0 0 1-1.394.646 5.58 5.58 0 0 1-1.548.215c-1.533 0-2.835-.538-3.908-1.615-1.072-1.077-1.609-2.385-1.61-3.925 0-1.54.536-2.848 1.61-3.924s2.377-1.615 3.908-1.617c1.531-.002 2.834.537 3.908 1.617 1.075 1.08 1.611 2.387 1.609 3.924a5.66 5.66 0 0 1-.215 1.555 4.96 4.96 0 0 1-.643 1.4l2.452 2.462c.225.226.337.513.337.862 0 .35-.112.636-.337.862Zm-21.211-.37c-.674 0-1.251-.24-1.731-.722a2.381 2.381 0 0 1-.721-1.74v-19.7c0-.677.24-1.257.721-1.739a2.363 2.363 0 0 1 1.731-.724h8.797a2.42 2.42 0 0 1 1.717.708l5.946 5.972a2.435 2.435 0 0 1 .705 1.724v.554c0 .37-.148.667-.445.893a1.082 1.082 0 0 1-.996.184 6.911 6.911 0 0 0-1.624-.185c-2.412 0-4.353.821-5.824 2.463-1.471 1.642-2.207 3.499-2.207 5.572 0 .902.159 1.795.476 2.677.317.883.812 1.714 1.486 2.494.286.308.352.646.198 1.016-.153.369-.414.554-.781.554h-7.448Zm8.582-22.162v4.925c0 .349.118.642.354.878.235.236.526.354.873.353h4.904l-6.131-6.156Z" fill="#333E48"/><g clip-path="url(#a)" fill="#333E48"><path d="M423.557 5.188h9.886l.493-.995a2.89 2.89 0 0 0-.136-2.82A2.887 2.887 0 0 0 431.333 0c-.782 0-1.542.322-2.085.882l-.748.771-.748-.77A2.918 2.918 0 0 0 425.667 0a2.887 2.887 0 0 0-2.467 1.373 2.89 2.89 0 0 0-.136 2.82l.493.995ZM430.026 19.224c.062.191.093.384.093.58 0 .315-.075.594-.226.836-.151.242-.39.403-.717.485a1.268 1.268 0 0 1-.269.05 3.73 3.73 0 0 1-.211.009h-1.607a.125.125 0 0 1-.125-.125v-2.56c0-.068.056-.125.125-.125h1.607c.047 0 .116.004.208.009.092.005.183.02.272.044.231.054.415.153.551.297.137.143.237.31.299.5Z"/><path d="m435.151 11.826-.013-.014H421.84l-.002.003a19.628 19.628 0 0 0-4.32 6.427A19.653 19.653 0 0 0 416 25.835a6.15 6.15 0 0 0 2.553 4.982l.039.028A6.101 6.101 0 0 0 422.176 32H434.8c.236 0 .469-.013.7-.04a8.86 8.86 0 0 1-3.375-6.96c0-3.505 2.042-6.542 5-7.983v-.08c0-.696.254-1.335.676-1.826a19.67 19.67 0 0 0-2.65-3.285Zm-4.381 9.51c-.324.417-.805.674-1.445.77a2.868 2.868 0 0 1-.359.037 6.978 6.978 0 0 1-.227.005h-1.65a.125.125 0 0 0-.125.125v.576c0 .07.056.125.125.125h2.26c.069 0 .125.057.125.125v.646a.125.125 0 0 1-.125.125h-2.26a.125.125 0 0 0-.125.125v.88a.125.125 0 0 1-.125.125h-.864a.125.125 0 0 1-.125-.125v-.88a.125.125 0 0 0-.125-.125h-.534a.125.125 0 0 1-.125-.125v-.646c0-.068.056-.125.125-.125h.534a.125.125 0 0 0 .125-.125v-.576a.125.125 0 0 0-.125-.125h-.534a.125.125 0 0 1-.125-.125v-.714c0-.069.056-.125.125-.125h.534a.125.125 0 0 0 .125-.125v-3.61c0-.068.056-.125.125-.125h2.764c.043 0 .118.002.227.006.108.003.228.016.359.037.43.067.788.214 1.074.437.287.224.5.506.643.845.142.34.213.715.213 1.127 0 .622-.162 1.142-.485 1.56ZM443 16.352v-.915a.938.938 0 0 0-.938-.937h-.124V14c0-.586.476-1.063 1.062-1.063.586 0 1.062.477 1.062 1.063A2.94 2.94 0 0 0 447 16.938h.062a.938.938 0 1 0 0-1.875H447A1.063 1.063 0 0 1 445.938 14 2.94 2.94 0 0 0 443 11.062 2.94 2.94 0 0 0 440.062 14v.5h-.124a.938.938 0 0 0-.938.938v.914a8.9 8.9 0 0 1 4 0Z"/><path d="M441 18a7 7 0 1 0 0 14 7 7 0 0 0 0-14Zm.938 7a.938.938 0 0 1-.275.663l-1.5 1.5a.934.934 0 0 1-1.326 0 .937.937 0 0 1 0-1.326l1.225-1.225V22a.939.939 0 0 1 1.876 0v3ZM423.5 9.938h10a1.44 1.44 0 0 0 1.438-1.438 1.44 1.44 0 0 0-1.438-1.438h-10a1.44 1.44 0 0 0-1.438 1.438 1.44 1.44 0 0 0 1.438 1.438Z"/></g><path d="M472.801 4.524h-.428V3h-1.524v1.524h-3.047V3h-1.524v1.524h-3.048V3h-1.524v1.524h-3.048V3h-1.524v1.524h-3.092V3h-1.524v1.524h-.427c-.603 0-1.091.488-1.091 1.096v.905a1.1 1.1 0 0 0 1.096 1.096h20.705a1.1 1.1 0 0 0 1.096-1.096V5.62a1.1 1.1 0 0 0-1.096-1.096ZM470.855 15.24c.811 0 1.595.132 2.33.373a.544.544 0 0 0 .718-.515V9.907a.76.76 0 0 0-.762-.762h-21.379a.76.76 0 0 0-.762.762v12.186c0 .422.34.762.762.762h10.75a.76.76 0 0 0 .756-.685 7.624 7.624 0 0 1 7.587-6.93Zm-2.286-3.809h1.524a.76.76 0 0 1 .762.762.76.76 0 0 1-.762.762h-1.524a.76.76 0 0 1-.762-.762.76.76 0 0 1 .762-.762Zm-4.572 0h1.524a.76.76 0 0 1 .762.762.76.76 0 0 1-.762.762h-1.524a.76.76 0 0 1-.762-.762.76.76 0 0 1 .762-.762Zm0 3.048h1.524a.76.76 0 0 1 .762.762.76.76 0 0 1-.762.762h-1.524a.76.76 0 0 1-.762-.762.76.76 0 0 1 .762-.762Zm-7.619 4.572h-1.574a.76.76 0 0 1-.762-.762.76.76 0 0 1 .762-.762h1.574a.76.76 0 0 1 .762.762.76.76 0 0 1-.762.762Zm0-3.048h-1.574a.76.76 0 0 1-.762-.762.76.76 0 0 1 .762-.762h1.574a.76.76 0 0 1 .762.762.76.76 0 0 1-.762.762Zm0-3.048h-1.574a.76.76 0 0 1-.762-.762.76.76 0 0 1 .762-.762h1.574a.76.76 0 0 1 .762.762.76.76 0 0 1-.762.762Zm4.571 6.096h-1.524a.76.76 0 0 1-.761-.762.76.76 0 0 1 .761-.762h1.524a.76.76 0 0 1 .762.762.76.76 0 0 1-.762.762Zm0-3.048h-1.524a.76.76 0 0 1-.761-.762.76.76 0 0 1 .761-.762h1.524a.76.76 0 0 1 .762.762.76.76 0 0 1-.762.762Zm0-3.048h-1.524a.76.76 0 0 1-.761-.762.76.76 0 0 1 .761-.762h1.524a.76.76 0 0 1 .762.762.76.76 0 0 1-.762.762Z" fill="#333E48"/><path d="M470.855 16.76a6.097 6.097 0 0 0-6.096 6.095c0 3.366 2.73 6.145 6.096 6.145S477 26.22 477 22.855c0-3.366-2.779-6.096-6.145-6.096Zm0 9.9a.76.76 0 0 1-.762-.763.76.76 0 0 1 .762-.762.76.76 0 0 1 .762.762.76.76 0 0 1-.762.762Zm0-3.049a.76.76 0 0 1-.762-.762v-3.047a.76.76 0 0 1 .762-.762.76.76 0 0 1 .762.762v3.047a.76.76 0 0 1-.762.762Z" fill="#333E48"/><path d="M507 19.667a.913.913 0 0 1-.913.917h-2.739v1.833h1.826a.913.913 0 0 1 .913.916.914.914 0 0 1-.913.917h-1.826v1.833a.916.916 0 0 1-.913.917.912.912 0 0 1-.913-.917v-6.416a.912.912 0 0 1 .913-.917h3.652a.914.914 0 0 1 .913.917Zm-15.065 2.291c0 .851-.337 1.667-.936 2.269a3.19 3.19 0 0 1-2.26.94h-.913v.916a.914.914 0 1 1-1.826 0v-6.416a.914.914 0 0 1 .913-.917h1.826c.848 0 1.66.338 2.26.94.599.601.936 1.417.936 2.268Zm-1.826 0a1.369 1.369 0 0 0-1.37-1.375h-.913v2.75h.913a1.369 1.369 0 0 0 1.37-1.375Zm10.043.917a4.135 4.135 0 0 1-1.203 2.917A4.102 4.102 0 0 1 496.043 27h-1.826a.92.92 0 0 1-.913-.917v-6.416a.92.92 0 0 1 .913-.917h1.826c1.09 0 2.135.435 2.906 1.208a4.135 4.135 0 0 1 1.203 2.917Zm-1.826 0c0-.608-.24-1.19-.668-1.62a2.281 2.281 0 0 0-1.615-.672h-.913v4.584h.913c.606 0 1.186-.242 1.615-.672.428-.43.668-1.012.668-1.62ZM486 15.083v-8.25c0-.486.192-.952.535-1.296A1.822 1.822 0 0 1 487.826 5h10.957a.908.908 0 0 1 .646.268l6.391 6.417a.916.916 0 0 1 .267.648v2.75a.914.914 0 1 1-1.826 0V13.25h-5.478a.91.91 0 0 1-.913-.917v-5.5h-10.044v8.25a.914.914 0 1 1-1.826 0Zm13.696-3.666h3.274l-3.274-3.288v3.288ZM536.005 22.88h-3.73a1.12 1.12 0 0 1-.837-.348 1.184 1.184 0 0 1-.338-.858c-.001-.341.112-.627.338-.859.226-.231.505-.347.837-.347h3.73l-1.057-1.085a1.137 1.137 0 0 1-.323-.828c0-.332.117-.618.352-.86.215-.221.49-.332.822-.332.333 0 .608.11.823.332l3.055 3.134c.098.101.176.226.235.377a1.269 1.269 0 0 1 0 .934c-.059.15-.137.275-.235.377l-3.055 3.135a1.135 1.135 0 0 1-.807.347 1.08 1.08 0 0 1-.838-.347c-.215-.22-.323-.502-.323-.844 0-.341.108-.623.323-.844l1.028-1.085Zm-16.655 0a2.234 2.234 0 0 1-1.659-.709 2.358 2.358 0 0 1-.691-1.703V8.41c0-.663.23-1.23.691-1.702A2.238 2.238 0 0 1 519.35 6h15.275c.646 0 1.199.236 1.66.709.46.473.69 1.04.689 1.702v4.913c0 .322-.117.603-.352.844a1.114 1.114 0 0 1-.823.362 1.12 1.12 0 0 1-.836-.347 1.183 1.183 0 0 1-.338-.857v-3.227l-7.755 5.546-7.52-5.516v10.339h8.313c.333 0 .612.116.838.347.225.232.338.518.337.858-.001.341-.113.628-.337.86a1.11 1.11 0 0 1-.838.346h-8.313Zm1.704-14.469 5.816 4.28 5.992-4.28h-11.808Z" fill="#E2231A"/><defs><clipPath id="a"><path fill="#fff" transform="translate(416)" d="M0 0h32v32H0z"/></clipPath></defs></svg>