<svg width="192" height="96" viewBox="0 0 192 96" fill="none" xmlns="http://www.w3.org/2000/svg">
<path d="M16 18.3422L7.80228 26.5399C7.49556 26.8466 7.1052 27 6.63118 27C6.15716 27 5.76679 26.8466 5.46008 26.5399C5.15336 26.2332 5 25.8428 5 25.3688C5 24.8948 5.15336 24.5044 5.46008 24.1977L13.6578 16L5.46008 7.80228C5.15336 7.49556 5 7.1052 5 6.63118C5 6.15716 5.15336 5.76679 5.46008 5.46008C5.76679 5.15336 6.15716 5 6.63118 5C7.1052 5 7.49556 5.15336 7.80228 5.46008L16 13.6578L24.1977 5.46008C24.5044 5.15336 24.8948 5 25.3688 5C25.8428 5 26.2332 5.15336 26.5399 5.46008C26.8466 5.76679 27 6.15716 27 6.63118C27 7.1052 26.8466 7.49556 26.5399 7.80228L18.3422 16L26.5399 24.1977C26.8466 24.5044 27 24.8948 27 25.3688C27 25.8428 26.8466 26.2332 26.5399 26.5399C26.2332 26.8466 25.8428 27 25.3688 27C24.8948 27 24.5044 26.8466 24.1977 26.5399L16 18.3422Z" fill="#333E48"/>
<path d="M44.2079 21.0713L57.3615 7.48107C57.6719 7.16036 58.0341 7 58.448 7C58.8618 7 59.224 7.16036 59.5344 7.48107C59.8448 7.80178 60 8.1829 60 8.62441C60 9.06592 59.8448 9.4465 59.5344 9.76615L45.2944 24.5189C44.984 24.8396 44.6218 25 44.2079 25C43.7941 25 43.4319 24.8396 43.1215 24.5189L36.4477 17.6236C36.1373 17.3029 35.9883 16.9223 36.0007 16.4819C36.0131 16.0414 36.1751 15.6603 36.4865 15.3385C36.798 15.0167 37.1668 14.8564 37.5931 14.8575C38.0194 14.8585 38.3878 15.0189 38.6982 15.3385L44.2079 21.0713Z" fill="white"/>
<path d="M71.6667 17.3333C71.1944 17.3333 70.7989 17.2053 70.48 16.9493C70.1611 16.6933 70.0011 16.3768 70 16C69.9989 15.6231 70.1589 15.3066 70.48 15.0506C70.8011 14.7946 71.1967 14.6666 71.6667 14.6666H88.3333C88.8056 14.6666 89.2017 14.7946 89.5217 15.0506C89.8417 15.3066 90.0011 15.6231 90 16C89.9989 16.3768 89.8389 16.6937 89.52 16.9506C89.2011 17.2075 88.8056 17.3351 88.3333 17.3333H71.6667Z" fill="#333E48"/>
<path d="M111.051 6.48001C110.795 6.79889 110.667 7.19445 110.667 7.66667V14.6667H103.667C103.197 14.6667 102.801 14.7947 102.48 15.0507C102.159 15.3067 101.999 15.6231 102 16C102.001 16.3769 102.161 16.6933 102.48 16.9493C102.799 17.2053 103.194 17.3333 103.667 17.3333H110.667V24.3333C110.665 24.8056 110.792 25.2011 111.049 25.52C111.306 25.8389 111.623 25.9989 112 26C112.377 26.0011 112.693 25.8417 112.949 25.5217C113.205 25.2017 113.333 24.8056 113.333 24.3333V17.3333H120.333C120.806 17.3351 121.201 17.2075 121.52 16.9507C121.839 16.6938 121.999 16.3769 122 16C122.001 15.6231 121.842 15.3067 121.522 15.0507C121.202 14.7947 120.806 14.6667 120.333 14.6667H113.333V7.66667C113.333 7.19667 113.205 6.80112 112.949 6.48001C112.693 6.15889 112.377 5.99889 112 6.00001C111.623 6.00112 111.307 6.16112 111.051 6.48001Z" fill="#E2231A"/>
<path d="M144 16C142.258 16 140.767 15.3799 139.527 14.1396C138.287 12.8993 137.667 11.4084 137.667 9.66671C137.667 7.92504 138.287 6.43407 139.527 5.19379C140.767 3.95351 142.258 3.33337 144 3.33337C145.742 3.33337 147.233 3.95351 148.473 5.19379C149.713 6.43407 150.333 7.92504 150.333 9.66671C150.333 11.4084 149.713 12.8993 148.473 14.1396C147.233 15.3799 145.742 16 144 16ZM131.333 25.5V24.2334C131.333 23.3362 131.564 22.5118 132.027 21.7602C132.489 21.0086 133.102 20.4344 133.867 20.0375C135.503 19.2195 137.165 18.6062 138.854 18.1977C140.543 17.7892 142.258 17.5844 144 17.5834C145.742 17.5823 147.457 17.7871 149.146 18.1977C150.835 18.6083 152.497 19.2216 154.133 20.0375C154.899 20.4334 155.512 21.0076 155.975 21.7602C156.437 22.5128 156.668 23.3372 156.667 24.2334V25.5C156.667 26.3709 156.357 27.1166 155.737 27.7373C155.118 28.358 154.372 28.6678 153.5 28.6667H134.5C133.629 28.6667 132.884 28.3569 132.264 27.7373C131.645 27.1177 131.334 26.3719 131.333 25.5Z" fill="#96A3B0"/>
<path d="M162.555 23.3333C162.209 23.3333 161.919 23.216 161.685 22.9813C161.451 22.7466 161.334 22.4565 161.333 22.1111V21.4083C161.333 20.5324 161.781 19.8194 162.678 19.2694C163.574 18.7194 164.755 18.4444 166.222 18.4444C166.487 18.4444 166.742 18.4497 166.986 18.4603C167.23 18.4709 167.465 18.4961 167.689 18.5361C167.404 18.9638 167.19 19.412 167.047 19.8805C166.905 20.349 166.833 20.8379 166.833 21.3472V23.3333H162.555ZM169.889 23.3333C169.543 23.3333 169.252 23.216 169.019 22.9813C168.785 22.7466 168.667 22.4565 168.667 22.1111V21.3472C168.667 20.6953 168.845 20.0993 169.202 19.5591C169.559 19.0188 170.063 18.5454 170.714 18.1388C171.365 17.7323 172.144 17.4267 173.052 17.2222C173.96 17.0177 174.942 16.9158 176 16.9166C177.08 16.9166 178.073 17.0185 178.98 17.2222C179.887 17.4259 180.666 17.7314 181.317 18.1388C181.968 18.5463 182.467 19.0201 182.814 19.5603C183.161 20.1005 183.334 20.6961 183.333 21.3472V22.1111C183.333 22.4574 183.216 22.7478 182.982 22.9825C182.749 23.2172 182.458 23.3341 182.111 23.3333H169.889ZM185.167 23.3333V21.3472C185.167 20.8175 185.101 20.3185 184.969 19.85C184.837 19.3814 184.638 18.9435 184.372 18.5361C184.596 18.4953 184.826 18.4701 185.06 18.4603C185.295 18.4505 185.534 18.4452 185.778 18.4444C187.244 18.4444 188.426 18.7145 189.322 19.2547C190.218 19.795 190.667 20.5128 190.667 21.4083V22.1111C190.667 22.4574 190.549 22.7478 190.315 22.9825C190.08 23.2172 189.79 23.3341 189.444 23.3333H185.167ZM166.222 17.2222C165.55 17.2222 164.975 16.983 164.496 16.5047C164.018 16.0264 163.779 15.4508 163.778 14.7777C163.778 14.0851 164.017 13.5046 164.496 13.0361C164.975 12.5676 165.551 12.3333 166.222 12.3333C166.915 12.3333 167.495 12.5676 167.964 13.0361C168.432 13.5046 168.667 14.0851 168.667 14.7777C168.667 15.45 168.432 16.0256 167.964 16.5047C167.495 16.9838 166.915 17.223 166.222 17.2222ZM185.778 17.2222C185.105 17.2222 184.53 16.983 184.052 16.5047C183.574 16.0264 183.334 15.4508 183.333 14.7777C183.333 14.0851 183.573 13.5046 184.052 13.0361C184.531 12.5676 185.106 12.3333 185.778 12.3333C186.47 12.3333 187.051 12.5676 187.519 13.0361C187.988 13.5046 188.222 14.0851 188.222 14.7777C188.222 15.45 187.988 16.0256 187.519 16.5047C187.051 16.9838 186.47 17.223 185.778 17.2222ZM176 16C174.981 16 174.116 15.6435 173.403 14.9305C172.69 14.2176 172.333 13.3518 172.333 12.3333C172.333 11.2944 172.69 10.4238 173.403 9.7214C174.116 9.01903 174.981 8.66744 176 8.66663C177.039 8.66663 177.91 9.01822 178.613 9.7214C179.316 10.4246 179.667 11.2952 179.667 12.3333C179.667 13.3518 179.315 14.2176 178.613 14.9305C177.911 15.6435 177.04 16 176 16Z" fill="#333E48"/>
<path d="M8.52631 60.6667C7.83158 60.6667 7.23705 60.4189 6.74274 59.9232C6.24842 59.4275 6.00084 58.8309 6 58.1334V37.8667C6 37.17 6.24758 36.5739 6.74274 36.0782C7.23789 35.5825 7.83242 35.3342 8.52631 35.3334H18.6316L26.2105 42.9334V46.7334C25.7263 46.8389 25.2737 47.0078 24.8526 47.24C24.4316 47.4723 24.0421 47.7678 23.6842 48.1267L16.1053 55.695V60.6667H8.52631ZM18.6316 60.6667V56.7717L25.6105 49.805C25.8 49.615 26.0105 49.4778 26.2421 49.3934C26.4737 49.3089 26.7053 49.2667 26.9368 49.2667C27.1895 49.2667 27.4316 49.3144 27.6631 49.4098C27.8947 49.5053 28.1053 49.6476 28.2947 49.8367L29.4631 51.0084C29.6316 51.1984 29.7634 51.4095 29.8585 51.6417C29.9537 51.8739 30.0008 52.1062 30 52.3384C29.9991 52.5706 29.957 52.8083 29.8737 53.0515C29.7903 53.2947 29.6535 53.5109 29.4631 53.7L22.5158 60.6667H18.6316ZM26.9368 53.5734L28.1053 52.3384L26.9368 51.1667L25.7368 52.37L26.9368 53.5734ZM17.3684 44.2H23.6842L17.3684 37.8667V44.2Z" fill="#96A3B0"/>
<path d="M47.9366 55.6C48.3799 55.6 48.7548 55.4468 49.0614 55.1402C49.3679 54.8337 49.5208 54.4592 49.5199 54.0167C49.5191 53.5742 49.3662 53.1993 49.0614 52.8919C48.7565 52.5845 48.3816 52.4317 47.9366 52.4334C47.4916 52.4351 47.117 52.5883 46.813 52.8932C46.509 53.198 46.3558 53.5725 46.3532 54.0167C46.3507 54.4609 46.504 54.8358 46.813 55.1415C47.1221 55.4472 47.4966 55.6 47.9366 55.6ZM47.9999 60.6667C46.2477 60.6667 44.601 60.334 43.0599 59.6686C41.5188 59.0031 40.1783 58.1009 39.0383 56.9617C37.8983 55.8225 36.996 54.482 36.3314 52.94C35.6668 51.3981 35.3341 49.7514 35.3333 48C35.3324 46.2487 35.6651 44.602 36.3314 43.06C36.9977 41.5181 37.8999 40.1775 39.0383 39.0384C40.1766 37.8992 41.5171 36.9969 43.0599 36.3315C44.6027 35.6661 46.2494 35.3334 47.9999 35.3334C49.7504 35.3334 51.3971 35.6661 52.9399 36.3315C54.4827 36.9969 55.8233 37.8992 56.9616 39.0384C58.0999 40.1775 59.0026 41.5181 59.6697 43.06C60.3368 44.602 60.6691 46.2487 60.6666 48C60.664 49.7514 60.3313 51.3981 59.6684 52.94C59.0056 54.482 58.1033 55.8225 56.9616 56.9617C55.8199 58.1009 54.4793 59.0036 52.9399 59.6698C51.4005 60.3361 49.7538 60.6684 47.9999 60.6667ZM48.1266 42.5534C48.6544 42.5534 49.1137 42.7223 49.5047 43.06C49.8957 43.3978 50.0908 43.82 50.0899 44.3267C50.0899 44.7911 49.9476 45.2028 49.663 45.5617C49.3785 45.9206 49.0563 46.2584 48.6966 46.575C48.211 46.9973 47.7837 47.4617 47.4147 47.9684C47.0457 48.475 46.8608 49.045 46.8599 49.6784C46.8599 49.9739 46.971 50.2222 47.193 50.4232C47.4151 50.6241 47.6735 50.7242 47.9682 50.7234C48.2849 50.7234 48.5543 50.6178 48.7764 50.4067C48.9985 50.1956 49.1408 49.9317 49.2032 49.615C49.2877 49.1717 49.4777 48.7761 49.7732 48.4282C50.0688 48.0803 50.3855 47.7475 50.7232 47.43C51.2088 46.9656 51.626 46.4589 51.9747 45.91C52.3235 45.3611 52.4974 44.7489 52.4966 44.0734C52.4966 42.9967 52.0587 42.1155 51.183 41.4298C50.3074 40.7442 49.2885 40.4009 48.1266 40.4C47.3244 40.4 46.5593 40.5689 45.8314 40.9067C45.1035 41.2445 44.5491 41.7617 44.1682 42.4584C44.0205 42.7117 43.9732 42.9811 44.0264 43.2665C44.0796 43.5519 44.2219 43.7681 44.4532 43.915C44.7488 44.0839 45.0549 44.1367 45.3716 44.0734C45.6882 44.01 45.9521 43.8306 46.1632 43.535C46.3955 43.2184 46.686 42.9756 47.0347 42.8067C47.3835 42.6378 47.7474 42.5534 48.1266 42.5534Z" fill="#96A3B0"/>
<path d="M68.7407 56.6667C68.3419 56.6667 68.0079 56.528 67.7386 56.2507C67.4693 55.9734 67.3342 55.6305 67.3333 55.2222C67.3323 54.8139 67.4674 54.4711 67.7386 54.1938C68.0098 53.9165 68.3438 53.7778 68.7407 53.7778H91.2592C91.6579 53.7778 91.9924 53.9165 92.2627 54.1938C92.5329 54.4711 92.6675 54.8139 92.6666 55.2222C92.6656 55.6305 92.5305 55.9738 92.2612 56.2521C91.992 56.5304 91.6579 56.6686 91.2592 56.6667H68.7407ZM68.7407 49.4445C68.3419 49.4445 68.0079 49.3058 67.7386 49.0285C67.4693 48.7511 67.3342 48.4083 67.3333 48C67.3323 47.5917 67.4674 47.2489 67.7386 46.9716C68.0098 46.6943 68.3438 46.5556 68.7407 46.5556H91.2592C91.6579 46.5556 91.9924 46.6943 92.2627 46.9716C92.5329 47.2489 92.6675 47.5917 92.6666 48C92.6656 48.4083 92.5305 48.7516 92.2612 49.0299C91.992 49.3082 91.6579 49.4464 91.2592 49.4445H68.7407ZM68.7407 42.2223C68.3419 42.2223 68.0079 42.0836 67.7386 41.8063C67.4693 41.5289 67.3342 41.1861 67.3333 40.7778C67.3323 40.3695 67.4674 40.0267 67.7386 39.7494C68.0098 39.472 68.3438 39.3334 68.7407 39.3334H91.2592C91.6579 39.3334 91.9924 39.472 92.2627 39.7494C92.5329 40.0267 92.6675 40.3695 92.6666 40.7778C92.6656 41.1861 92.5305 41.5294 92.2612 41.8077C91.992 42.086 91.6579 42.2242 91.2592 42.2223H68.7407Z" fill="#96A3B0"/>
<path d="M110.519 60.6667C109.952 60.6667 109.463 60.4767 109.054 60.0967C108.645 59.7167 108.398 59.2523 108.313 58.7034L108.029 56.6134C107.756 56.5078 107.499 56.3812 107.258 56.2334C107.017 56.0856 106.78 55.9273 106.548 55.7584L104.595 56.5817C104.069 56.8139 103.544 56.835 103.019 56.645C102.494 56.455 102.084 56.1173 101.79 55.6317L100.309 53.035C100.015 52.5495 99.9307 52.0323 100.057 51.4834C100.183 50.9345 100.466 50.4806 100.908 50.1217L102.578 48.855C102.557 48.7073 102.546 48.5646 102.546 48.4269V47.5719C102.546 47.4351 102.557 47.2928 102.578 47.145L100.908 45.8784C100.466 45.5195 100.183 45.0656 100.057 44.5167C99.9307 43.9678 100.015 43.4506 100.309 42.965L101.79 40.3684C102.084 39.8828 102.494 39.545 103.019 39.355C103.544 39.165 104.069 39.1862 104.595 39.4184L106.548 40.2417C106.779 40.0728 107.021 39.9145 107.273 39.7667C107.525 39.6189 107.777 39.4923 108.029 39.3867L108.313 37.2967C108.397 36.7478 108.644 36.2834 109.054 35.9034C109.464 35.5234 109.953 35.3334 110.519 35.3334H113.481C114.048 35.3334 114.537 35.5234 114.947 35.9034C115.357 36.2834 115.604 36.7478 115.687 37.2967L115.971 39.3867C116.244 39.4923 116.501 39.6189 116.743 39.7667C116.985 39.9145 117.221 40.0728 117.452 40.2417L119.405 39.4184C119.931 39.1862 120.456 39.165 120.981 39.355C121.506 39.545 121.916 39.8828 122.21 40.3684L123.691 42.965C123.985 43.4506 124.069 43.9678 123.943 44.5167C123.817 45.0656 123.534 45.5195 123.092 45.8784L121.422 47.145C121.443 47.2928 121.454 47.4355 121.454 47.5732V48.4269C121.454 48.5646 121.433 48.7073 121.391 48.855L123.061 50.1217C123.502 50.4806 123.786 50.9345 123.912 51.4834C124.038 52.0323 123.954 52.5495 123.66 53.035L122.147 55.6317C121.853 56.1173 121.443 56.455 120.918 56.645C120.393 56.835 119.868 56.8139 119.342 56.5817L117.452 55.7584C117.221 55.9273 116.979 56.0856 116.727 56.2334C116.475 56.3812 116.223 56.5078 115.971 56.6134L115.687 58.7034C115.603 59.2523 115.356 59.7167 114.947 60.0967C114.538 60.4767 114.049 60.6667 113.481 60.6667H110.519ZM112.063 52.4334C113.282 52.4334 114.321 52.0006 115.183 51.135C116.044 50.2695 116.475 49.2245 116.475 48C116.475 46.7756 116.044 45.7306 115.183 44.865C114.321 43.9995 113.282 43.5667 112.063 43.5667C110.824 43.5667 109.778 43.9995 108.927 44.865C108.076 45.7306 107.65 46.7756 107.651 48C107.652 49.2245 108.078 50.2695 108.928 51.135C109.779 52.0006 110.824 52.4334 112.063 52.4334Z" fill="#96A3B0"/>
<path d="M134.136 60.6667C133.365 60.6667 132.706 60.3913 132.157 59.8405C131.609 59.2898 131.334 58.6269 131.333 57.8519V38.1482C131.333 37.3741 131.608 36.7117 132.157 36.1609C132.707 35.6102 133.366 35.3343 134.136 35.3334H142.545C142.942 35.3334 143.276 35.4685 143.545 35.7387C143.814 36.0089 143.948 36.343 143.947 36.7408C143.946 37.1386 143.811 37.4731 143.543 37.7443C143.275 38.0154 142.942 38.1501 142.545 38.1482H134.136V57.8519H142.545C142.942 57.8519 143.276 57.987 143.545 58.2572C143.814 58.5274 143.948 58.8615 143.947 59.2593C143.946 59.6571 143.811 59.9916 143.543 60.2628C143.275 60.5339 142.942 60.6686 142.545 60.6667H134.136ZM151.2 49.4074H141.144C140.747 49.4074 140.414 49.2723 140.146 49.0021C139.878 48.7319 139.743 48.3979 139.742 48C139.741 47.6022 139.876 47.2682 140.146 46.998C140.416 46.7277 140.749 46.5926 141.144 46.5926H151.2L148.572 43.9537C148.315 43.6957 148.186 43.379 148.186 43.0037C148.186 42.6284 148.315 42.3 148.572 42.0186C148.829 41.7371 149.156 41.5902 149.553 41.578C149.95 41.5658 150.289 41.7009 150.569 41.9834L155.579 47.0148C155.86 47.2963 156 47.6247 156 48C156 48.3753 155.86 48.7037 155.579 48.9852L150.569 54.0167C150.289 54.2982 149.956 54.4333 149.571 54.422C149.186 54.4108 148.853 54.2639 148.572 53.9815C148.315 53.7 148.193 53.366 148.205 52.9794C148.217 52.5929 148.351 52.2701 148.607 52.0111L151.2 49.4074Z" fill="#96A3B0"/>
<path d="M169.5 56.6811C169.494 57.6977 169.813 58.6897 170.41 59.5122C166.539 59.2667 163 57.8511 163 55.2367V53.9656C164.915 55.3046 167.167 56.0803 169.5 56.2044V56.6811ZM169.558 50.8022C169.552 50.8079 169.548 50.8148 169.546 50.8223C169.543 50.8298 169.542 50.8377 169.543 50.8456C169.515 50.9882 169.5 51.1334 169.5 51.2789V54.0378C166.004 53.6333 163 52.2467 163 49.8344V48.5633C164.923 49.9191 167.193 50.696 169.543 50.8022H169.558ZM175.191 45.5156C173.263 46.0097 171.552 47.1268 170.323 48.6933C166.481 48.4478 163 47.0322 163 44.4322V43.45C165.557 45.1532 168.599 45.9794 171.667 45.8044C172.848 45.8088 174.027 45.7121 175.191 45.5156ZM180.333 43.45V44.4322C180.331 44.5531 180.322 44.6737 180.304 44.7933C179.22 44.7931 178.138 44.8849 177.069 45.0678C178.248 44.736 179.355 44.1873 180.333 43.45ZM171.667 35C167.333 35 163 36.4444 163 39.3189C163 42.2222 167.333 43.6378 171.667 43.6378C176 43.6378 180.333 42.2222 180.333 39.3189C180.333 36.4444 176 35 171.667 35ZM180.333 57.7644C177.249 57.8988 174.206 57.0212 171.667 55.2656V56.6811C171.667 59.5556 176 61 180.333 61C184.667 61 189 59.5556 189 56.6811V55.2656C186.461 57.0212 183.417 57.8988 180.333 57.7644ZM180.333 46.96C175.552 46.96 171.667 48.8956 171.667 51.2789C171.667 53.6622 175.552 55.5978 180.333 55.5978C185.114 55.5978 189 53.6622 189 51.2789C189 48.8956 185.114 46.96 180.333 46.96Z" fill="white"/>
<path d="M22.5517 88.2649C23.41 88.2649 24.1354 87.9674 24.728 87.3723C25.3206 86.7771 25.6169 86.0486 25.6169 85.1868C25.6169 84.3249 25.3206 83.5964 24.728 83.0013C24.1354 82.4061 23.41 82.1086 22.5517 82.1086C21.6935 82.1086 20.9681 82.4061 20.3755 83.0013C19.7829 83.5964 19.4866 84.3249 19.4866 85.1868C19.4866 86.0486 19.7829 86.7771 20.3755 87.3723C20.9681 87.9674 21.6935 88.2649 22.5517 88.2649ZM29.6628 92.3281C29.4381 92.5538 29.152 92.6667 28.8046 92.6667C28.4572 92.6667 28.1711 92.5538 27.9464 92.3281L25.4943 89.8656C25.0651 90.1529 24.6005 90.3683 24.1002 90.512C23.6 90.6556 23.0838 90.7275 22.5517 90.7275C21.0192 90.7275 19.7167 90.189 18.6443 89.112C17.5719 88.0351 17.0353 86.7267 17.0345 85.1868C17.0337 83.6469 17.5703 82.3388 18.6443 81.2627C19.7183 80.1866 21.0208 79.6477 22.5517 79.6461C24.0827 79.6444 25.3855 80.1833 26.4604 81.2627C27.5352 82.3421 28.0714 83.6501 28.069 85.1868C28.069 85.7203 27.9974 86.2387 27.8544 86.7418C27.7114 87.245 27.4968 87.7117 27.2107 88.1418L29.6628 90.6043C29.8876 90.8301 30 91.1174 30 91.4662C30 91.8151 29.8876 92.1024 29.6628 92.3281ZM8.45211 91.9587C7.77778 91.9587 7.20072 91.7178 6.72092 91.236C6.24112 90.7541 6.00082 90.1742 6 89.4962V69.7959C6 69.1187 6.24031 68.5392 6.72092 68.0574C7.20153 67.5755 7.7786 67.3342 8.45211 67.3334H17.249C17.576 67.3334 17.8878 67.3949 18.1845 67.5181C18.4812 67.6412 18.7416 67.8156 18.9655 68.0414L24.9119 74.013C25.1367 74.2387 25.3103 74.5006 25.4329 74.7985C25.5556 75.0965 25.6169 75.4093 25.6169 75.7368V76.2908C25.6169 76.6602 25.4685 76.9578 25.1718 77.1835C24.8751 77.4092 24.5432 77.4708 24.1762 77.3682C23.9106 77.3066 23.645 77.2603 23.3793 77.2291C23.1137 77.1979 22.8378 77.1827 22.5517 77.1835C20.1405 77.1835 18.1992 78.0044 16.728 79.6461C15.2567 81.2877 14.5211 83.1449 14.5211 85.2175C14.5211 86.1205 14.6796 87.0131 14.9968 87.8955C15.3139 88.778 15.8092 89.6091 16.4828 90.3889C16.7688 90.6967 16.835 91.0353 16.6814 91.4047C16.5277 91.774 16.2674 91.9587 15.9004 91.9587H8.45211ZM17.0345 69.7959V74.721C17.0345 75.0698 17.1522 75.3625 17.3876 75.5989C17.623 75.8353 17.914 75.9531 18.2605 75.9522H23.1648L17.0345 69.7959Z" fill="white"/>
<g clip-path="url(#clip0_32_2906)">
<path d="M39.5569 69.1875H49.4431L49.9356 68.1925C50.3838 67.2856 50.3331 66.2319 49.8 65.3725C49.2662 64.5131 48.3438 64 47.3325 64C46.5513 64 45.7913 64.3219 45.2475 64.8825L44.5 65.6531L43.7525 64.8825C43.2087 64.3219 42.4487 64 41.6675 64C40.6562 64 39.7337 64.5131 39.2 65.3725C38.6669 66.2319 38.6163 67.2856 39.0644 68.1925L39.5569 69.1875Z" fill="white"/>
<path d="M46.0262 83.2244C46.0881 83.415 46.1194 83.6075 46.1194 83.8031C46.1194 84.1194 46.0437 84.3981 45.8931 84.64C45.7419 84.8819 45.5031 85.0431 45.1763 85.125C45.08 85.1531 44.99 85.17 44.9069 85.1756C44.8231 85.1806 44.7531 85.1838 44.6962 85.1838H43.0887C43.02 85.1838 42.9637 85.1275 42.9637 85.0588V82.4994C42.9637 82.4306 43.02 82.3744 43.0887 82.3744H44.6962C44.7425 82.3744 44.8119 82.3775 44.9044 82.3825C44.9963 82.3881 45.0869 82.4031 45.1763 82.4275C45.4069 82.4812 45.5906 82.58 45.7275 82.7237C45.8644 82.8675 45.9637 83.0344 46.0262 83.2244Z" fill="white"/>
<path d="M51.1513 75.8256L51.1381 75.8125H37.84L37.8375 75.815C35.9781 77.6606 34.5244 79.8231 33.5175 82.2419C32.5106 84.66 32 87.215 32 89.835C32 91.8044 32.9544 93.6675 34.5531 94.8169L34.5919 94.845C35.6425 95.6006 36.8819 96 38.1762 96H50.8C51.0356 96 51.2687 95.9869 51.5 95.96C49.445 94.3337 48.125 91.8181 48.125 89C48.125 85.495 50.1675 82.4581 53.125 81.0169V80.9375C53.125 80.2412 53.3794 79.6025 53.8006 79.1112C53.0425 77.9294 52.1569 76.8313 51.1513 75.8256ZM46.77 85.3356C46.4463 85.7531 45.965 86.01 45.325 86.1056C45.1937 86.1269 45.0737 86.1394 44.9656 86.1431C44.8569 86.1469 44.7819 86.1481 44.7388 86.1481H43.0887C43.02 86.1481 42.9637 86.2044 42.9637 86.2731V86.8494C42.9637 86.9181 43.02 86.9744 43.0887 86.9744H45.3494C45.4181 86.9744 45.4744 87.0306 45.4744 87.0994V87.745C45.4744 87.8138 45.4181 87.87 45.3494 87.87H43.0887C43.02 87.87 42.9637 87.9263 42.9637 87.995V88.875C42.9637 88.9438 42.9075 89 42.8387 89H41.975C41.9062 89 41.85 88.9438 41.85 88.875V87.995C41.85 87.9263 41.7938 87.87 41.725 87.87H41.1912C41.1225 87.87 41.0662 87.8138 41.0662 87.745V87.0994C41.0662 87.0306 41.1225 86.9744 41.1912 86.9744H41.725C41.7938 86.9744 41.85 86.9181 41.85 86.8494V86.2731C41.85 86.2044 41.7938 86.1481 41.725 86.1481H41.1912C41.1225 86.1481 41.0662 86.0919 41.0662 86.0231V85.3088C41.0662 85.24 41.1225 85.1838 41.1912 85.1838H41.725C41.7938 85.1838 41.85 85.1275 41.85 85.0588V81.4494C41.85 81.3806 41.9062 81.3244 41.975 81.3244H44.7388C44.7819 81.3244 44.8569 81.3263 44.9656 81.33C45.0737 81.3331 45.1937 81.3456 45.325 81.3669C45.755 81.4344 46.1131 81.5806 46.3994 81.8044C46.6856 82.0281 46.8994 82.31 47.0419 82.6488C47.1838 82.9881 47.255 83.3644 47.255 83.7763C47.255 84.3981 47.0931 84.9181 46.77 85.3356Z" fill="white"/>
<path d="M59 80.3519V79.4375C59 78.92 58.58 78.5 58.0625 78.5H57.9375V78C57.9375 77.4144 58.4144 76.9375 59 76.9375C59.5856 76.9375 60.0625 77.4144 60.0625 78C60.0625 79.62 61.38 80.9375 63 80.9375H63.0625C63.58 80.9375 64 80.5175 64 80C64 79.4825 63.58 79.0625 63.0625 79.0625H63C62.4144 79.0625 61.9375 78.5856 61.9375 78C61.9375 76.38 60.62 75.0625 59 75.0625C57.38 75.0625 56.0625 76.38 56.0625 78V78.5H55.9375C55.42 78.5 55 78.92 55 79.4375V80.3519C55.6431 80.2038 56.3125 80.125 57 80.125C57.6875 80.125 58.3569 80.2038 59 80.3519Z" fill="white"/>
<path d="M57 82C53.1338 82 50 85.1338 50 89C50 92.8662 53.1338 96 57 96C60.8662 96 64 92.8662 64 89C64 85.1338 60.8662 82 57 82ZM57.9375 89C57.9375 89.2488 57.8387 89.4869 57.6631 89.6631L56.1631 91.1631C55.98 91.3462 55.74 91.4375 55.5 91.4375C55.26 91.4375 55.02 91.3462 54.8369 91.1631C54.4706 90.7969 54.4706 90.2031 54.8369 89.8375L56.0625 88.6119V86C56.0625 85.4825 56.4825 85.0625 57 85.0625C57.5175 85.0625 57.9375 85.4825 57.9375 86V89Z" fill="white"/>
<path d="M39.5 73.9375H49.5C50.2925 73.9375 50.9375 73.2925 50.9375 72.5C50.9375 71.7075 50.2925 71.0625 49.5 71.0625H39.5C38.7075 71.0625 38.0625 71.7075 38.0625 72.5C38.0625 73.2925 38.7075 73.9375 39.5 73.9375Z" fill="white"/>
</g>
<path d="M88.801 68.5239H88.3734V67H86.8495V68.5239H83.8016V67H82.2777V68.5239H79.2298V67H77.7059V68.5239H74.658V67H73.1341V68.5239H70.0424V67H68.5184V68.5239H68.0909C67.4879 68.5239 67 69.0118 67 69.6203V70.5248C67 71.1278 67.4934 71.6211 68.0964 71.6211H88.801C89.404 71.6211 89.8973 71.1278 89.8973 70.5248V69.6203C89.8973 69.0173 89.404 68.5239 88.801 68.5239Z" fill="white"/>
<path d="M86.8549 79.2408C87.6662 79.2408 88.4501 79.3723 89.1847 79.6135C89.541 79.7287 89.9028 79.471 89.9028 79.0983V73.907C89.9028 73.4849 89.5629 73.1451 89.1408 73.1451H67.762C67.3399 73.1451 67 73.4849 67 73.907V86.093C67 86.5151 67.3399 86.8549 67.762 86.8549H78.5117C78.9009 86.8549 79.2298 86.5589 79.2682 86.1697C79.6135 82.2886 82.8861 79.2408 86.8549 79.2408ZM84.569 75.431H86.093C86.5151 75.431 86.8549 75.7708 86.8549 76.1929C86.8549 76.615 86.5151 76.9549 86.093 76.9549H84.569C84.147 76.9549 83.8071 76.615 83.8071 76.1929C83.8071 75.7708 84.147 75.431 84.569 75.431ZM79.9973 75.431H81.5212C81.9433 75.431 82.2832 75.7708 82.2832 76.1929C82.2832 76.615 81.9433 76.9549 81.5212 76.9549H79.9973C79.5752 76.9549 79.2353 76.615 79.2353 76.1929C79.2353 75.7708 79.5752 75.431 79.9973 75.431ZM79.9973 78.4788H81.5212C81.9433 78.4788 82.2832 78.8187 82.2832 79.2408C82.2832 79.6629 81.9433 80.0027 81.5212 80.0027H79.9973C79.5752 80.0027 79.2353 79.6629 79.2353 79.2408C79.2353 78.8187 79.5752 78.4788 79.9973 78.4788ZM72.3776 83.0506H70.8043C70.3822 83.0506 70.0424 82.7107 70.0424 82.2886C70.0424 81.8665 70.3822 81.5267 70.8043 81.5267H72.3776C72.7997 81.5267 73.1396 81.8665 73.1396 82.2886C73.1396 82.7107 72.7997 83.0506 72.3776 83.0506ZM72.3776 80.0027H70.8043C70.3822 80.0027 70.0424 79.6629 70.0424 79.2408C70.0424 78.8187 70.3822 78.4788 70.8043 78.4788H72.3776C72.7997 78.4788 73.1396 78.8187 73.1396 79.2408C73.1396 79.6629 72.7997 80.0027 72.3776 80.0027ZM72.3776 76.9549H70.8043C70.3822 76.9549 70.0424 76.615 70.0424 76.1929C70.0424 75.7708 70.3822 75.431 70.8043 75.431H72.3776C72.7997 75.431 73.1396 75.7708 73.1396 76.1929C73.1396 76.615 72.7997 76.9549 72.3776 76.9549ZM76.9494 83.0506H75.4255C75.0034 83.0506 74.6635 82.7107 74.6635 82.2886C74.6635 81.8665 75.0034 81.5267 75.4255 81.5267H76.9494C77.3715 81.5267 77.7114 81.8665 77.7114 82.2886C77.7114 82.7107 77.3715 83.0506 76.9494 83.0506ZM76.9494 80.0027H75.4255C75.0034 80.0027 74.6635 79.6629 74.6635 79.2408C74.6635 78.8187 75.0034 78.4788 75.4255 78.4788H76.9494C77.3715 78.4788 77.7114 78.8187 77.7114 79.2408C77.7114 79.6629 77.3715 80.0027 76.9494 80.0027ZM76.9494 76.9549H75.4255C75.0034 76.9549 74.6635 76.615 74.6635 76.1929C74.6635 75.7708 75.0034 75.431 75.4255 75.431H76.9494C77.3715 75.431 77.7114 75.7708 77.7114 76.1929C77.7114 76.615 77.3715 76.9549 76.9494 76.9549Z" fill="white"/>
<path d="M86.8549 80.7592C83.4891 80.7592 80.7592 83.4891 80.7592 86.8549C80.7592 90.2207 83.4891 93 86.8549 93C90.2207 93 93 90.2207 93 86.8549C93 83.4891 90.2207 80.7592 86.8549 80.7592ZM86.8549 90.6593C86.4328 90.6593 86.093 90.3194 86.093 89.8973C86.093 89.4752 86.4328 89.1354 86.8549 89.1354C87.277 89.1354 87.6169 89.4752 87.6169 89.8973C87.6169 90.3194 87.277 90.6593 86.8549 90.6593ZM86.8549 87.6114C86.4328 87.6114 86.093 87.2716 86.093 86.8495V83.8016C86.093 83.3795 86.4328 83.0396 86.8549 83.0396C87.277 83.0396 87.6169 83.3795 87.6169 83.8016V86.8495C87.6169 87.2716 87.277 87.6114 86.8549 87.6114Z" fill="white"/>
<path d="M123 83.6667C123 83.9098 122.904 84.1429 122.733 84.3148C122.561 84.4868 122.329 84.5833 122.087 84.5833H119.348V86.4167H121.174C121.416 86.4167 121.648 86.5132 121.82 86.6852C121.991 86.8571 122.087 87.0902 122.087 87.3333C122.087 87.5764 121.991 87.8096 121.82 87.9815C121.648 88.1534 121.416 88.25 121.174 88.25H119.348V90.0833C119.348 90.3264 119.252 90.5596 119.08 90.7315C118.909 90.9034 118.677 91 118.435 91C118.193 91 117.96 90.9034 117.789 90.7315C117.618 90.5596 117.522 90.3264 117.522 90.0833V83.6667C117.522 83.4236 117.618 83.1904 117.789 83.0185C117.96 82.8466 118.193 82.75 118.435 82.75H122.087C122.329 82.75 122.561 82.8466 122.733 83.0185C122.904 83.1904 123 83.4236 123 83.6667ZM107.935 85.9583C107.935 86.8092 107.598 87.6253 106.999 88.227C106.399 88.8286 105.587 89.1667 104.739 89.1667H103.826V90.0833C103.826 90.3264 103.73 90.5596 103.559 90.7315C103.387 90.9034 103.155 91 102.913 91C102.671 91 102.439 90.9034 102.267 90.7315C102.096 90.5596 102 90.3264 102 90.0833V83.6667C102 83.4236 102.096 83.1904 102.267 83.0185C102.439 82.8466 102.671 82.75 102.913 82.75H104.739C105.587 82.75 106.399 83.088 106.999 83.6897C107.598 84.2914 107.935 85.1074 107.935 85.9583ZM106.109 85.9583C106.109 85.5937 105.964 85.2439 105.708 84.9861C105.451 84.7282 105.102 84.5833 104.739 84.5833H103.826V87.3333H104.739C105.102 87.3333 105.451 87.1885 105.708 86.9306C105.964 86.6727 106.109 86.323 106.109 85.9583ZM116.152 86.875C116.152 87.969 115.719 89.0182 114.949 89.7918C114.178 90.5654 113.133 91 112.043 91H110.217C109.975 91 109.743 90.9034 109.572 90.7315C109.401 90.5596 109.304 90.3264 109.304 90.0833V83.6667C109.304 83.4236 109.401 83.1904 109.572 83.0185C109.743 82.8466 109.975 82.75 110.217 82.75H112.043C113.133 82.75 114.178 83.1846 114.949 83.9582C115.719 84.7318 116.152 85.781 116.152 86.875ZM114.326 86.875C114.326 86.2672 114.086 85.6843 113.658 85.2545C113.229 84.8248 112.649 84.5833 112.043 84.5833H111.13V89.1667H112.043C112.649 89.1667 113.229 88.9252 113.658 88.4955C114.086 88.0657 114.326 87.4828 114.326 86.875ZM102 79.0833V70.8333C102 70.3471 102.192 69.8808 102.535 69.537C102.877 69.1932 103.342 69 103.826 69H114.783C114.903 68.9999 115.021 69.0235 115.132 69.0695C115.243 69.1155 115.344 69.183 115.429 69.2681L121.82 75.6848C121.905 75.77 121.972 75.8711 122.018 75.9824C122.064 76.0937 122.087 76.2129 122.087 76.3333V79.0833C122.087 79.3264 121.991 79.5596 121.82 79.7315C121.648 79.9034 121.416 80 121.174 80C120.932 80 120.7 79.9034 120.528 79.7315C120.357 79.5596 120.261 79.3264 120.261 79.0833V77.25H114.783C114.54 77.25 114.308 77.1534 114.137 76.9815C113.966 76.8096 113.87 76.5764 113.87 76.3333V70.8333H103.826V79.0833C103.826 79.3264 103.73 79.5596 103.559 79.7315C103.387 79.9034 103.155 80 102.913 80C102.671 80 102.439 79.9034 102.267 79.7315C102.096 79.5596 102 79.3264 102 79.0833ZM115.696 75.4167H118.97L115.696 72.1293V75.4167Z" fill="#E2231A"/>
<path d="M152.005 86.8791H148.275C147.942 86.8791 147.663 86.7634 147.438 86.5319C147.213 86.3004 147.1 86.0143 147.1 85.6735C147.099 85.3327 147.212 85.0465 147.438 84.815C147.664 84.5836 147.943 84.4678 148.275 84.4678H152.005L150.948 83.3827C150.732 83.1617 150.625 82.8856 150.625 82.5545C150.625 82.2233 150.742 81.9368 150.977 81.6948C151.192 81.4738 151.467 81.3633 151.799 81.3633C152.132 81.3633 152.407 81.4738 152.622 81.6948L155.677 84.8295C155.775 84.93 155.853 85.0554 155.912 85.2057C155.971 85.356 156 85.5119 156 85.6735C156 85.835 155.971 85.9906 155.912 86.1401C155.853 86.2896 155.775 86.4154 155.677 86.5174L152.622 89.6521C152.407 89.8732 152.137 89.9889 151.815 89.9994C151.492 90.0098 151.213 89.8941 150.977 89.6521C150.762 89.4311 150.654 89.1498 150.654 88.8082C150.654 88.4666 150.762 88.1852 150.977 87.9642L152.005 86.8791ZM135.35 86.8791C134.704 86.8791 134.151 86.6432 133.691 86.1714C133.231 85.6996 133.001 85.1317 133 84.4678V72.4113C133 71.7482 133.23 71.1807 133.691 70.7089C134.151 70.2371 134.704 70.0008 135.35 70H150.625C151.271 70 151.824 70.2363 152.285 70.7089C152.745 71.1815 152.975 71.749 152.974 72.4113V77.3243C152.974 77.6458 152.857 77.9272 152.622 78.1683C152.387 78.4094 152.113 78.53 151.799 78.53C151.467 78.53 151.188 78.4142 150.963 78.1828C150.738 77.9513 150.625 77.6655 150.625 77.3255V74.0992L142.87 79.6452L135.35 74.1294V84.4678H143.663C143.996 84.4678 144.275 84.5836 144.501 84.815C144.726 85.0465 144.839 85.3327 144.838 85.6735C144.837 86.0143 144.725 86.3008 144.501 86.5331C144.277 86.7654 143.997 86.8807 143.663 86.8791H135.35ZM137.054 72.4113L142.87 76.6914L148.862 72.4113H137.054Z" fill="#E2231A"/>
<path d="M172.667 85.3333C170.244 85.3333 168.195 84.4942 166.517 82.816C164.84 81.1378 164.001 79.088 164 76.6667C163.999 74.2453 164.838 72.1956 166.517 70.5173C168.196 68.8391 170.246 68 172.667 68C175.087 68 177.137 68.8391 178.817 70.5173C180.497 72.1956 181.336 74.2453 181.333 76.6667C181.333 77.6444 181.178 78.5667 180.867 79.4333C180.556 80.3 180.133 81.0667 179.6 81.7333L187.067 89.2C187.311 89.4444 187.433 89.7556 187.433 90.1333C187.433 90.5111 187.311 90.8222 187.067 91.0667C186.822 91.3111 186.511 91.4333 186.133 91.4333C185.756 91.4333 185.444 91.3111 185.2 91.0667L177.733 83.6C177.067 84.1333 176.3 84.5556 175.433 84.8667C174.567 85.1778 173.644 85.3333 172.667 85.3333ZM172.667 82.6667C174.333 82.6667 175.75 82.0836 176.917 80.9173C178.084 79.7511 178.668 78.3342 178.667 76.6667C178.666 74.9991 178.083 73.5827 176.917 72.4173C175.752 71.252 174.335 70.6684 172.667 70.6667C170.998 70.6649 169.582 71.2484 168.417 72.4173C167.253 73.5862 166.669 75.0027 166.667 76.6667C166.664 78.3307 167.248 79.7476 168.417 80.9173C169.587 82.0871 171.004 82.6702 172.667 82.6667Z" fill="white"/>
<defs>
<clipPath id="clip0_32_2906">
<rect width="32" height="32" fill="white" transform="translate(32 64)"/>
</clipPath>
</defs>
</svg>
